<?xml version="1.0" encoding="UTF-8" standalone="no"?>
<!-- Created with Inkscape (http://www.inkscape.org/) -->

<svg
   width="66.375969mm"
   height="45.633732mm"
   viewBox="0 0 66.375969 45.633732"
   version="1.1"
   id="svg12288"
   inkscape:version="1.1.2 (0a00cf5339, 2022-02-04)"
   sodipodi:docname="recursive-proof-1.svg"
   xmlns:inkscape="http://www.inkscape.org/namespaces/inkscape"
   xmlns:sodipodi="http://sodipodi.sourceforge.net/DTD/sodipodi-0.dtd"
   xmlns="http://www.w3.org/2000/svg"
   xmlns:svg="http://www.w3.org/2000/svg">
  <sodipodi:namedview
     id="namedview12290"
     pagecolor="#ffffff"
     bordercolor="#666666"
     borderopacity="1.0"
     inkscape:pageshadow="2"
     inkscape:pageopacity="0.0"
     inkscape:pagecheckerboard="0"
     inkscape:document-units="mm"
     showgrid="false"
     inkscape:zoom="0.69664703"
     inkscape:cx="396.90114"
     inkscape:cy="561.25984"
     inkscape:window-width="1920"
     inkscape:window-height="1007"
     inkscape:window-x="0"
     inkscape:window-y="0"
     inkscape:window-maximized="1"
     inkscape:current-layer="layer1" />
  <defs
     id="defs12285">
    <clipPath
       id="clip1">
      <path
         d="M 131,106 H 512.51172 V 261 H 131 Z m 0,0"
         id="path511" />
    </clipPath>
    <clipPath
       id="clip2">
      <path
         d="M 131,106 H 512.51172 V 261 H 131 Z m 0,0"
         id="path514" />
    </clipPath>
    <clipPath
       id="clip3">
      <path
         d="m 150,229 h 283 v 31.57422 H 150 Z m 0,0"
         id="path517" />
    </clipPath>
    <clipPath
       id="clip4">
      <path
         d="m 150,228 h 283 v 32.57422 H 150 Z m 0,0"
         id="path520" />
    </clipPath>
    <clipPath
       id="clip5">
      <path
         d="m 181,224 h 283 v 36.57422 H 181 Z m 0,0"
         id="path523" />
    </clipPath>
    <clipPath
       id="clip6">
      <path
         d="m 180,224 h 284 v 36.57422 H 180 Z m 0,0"
         id="path526" />
    </clipPath>
    <clipPath
       id="clip7">
      <path
         d="m 211,164 h 283 v 96.57422 H 211 Z m 0,0"
         id="path529" />
    </clipPath>
    <clipPath
       id="clip1-3">
      <path
         d="m 372,102 h 32.38672 v 38 H 372 Z m 0,0"
         id="path6601" />
    </clipPath>
    <clipPath
       id="clip2-6">
      <path
         d="m 293,99.828125 h 55 V 205 h -55 z m 0,0"
         id="path6604" />
    </clipPath>
    <clipPath
       id="clip3-7">
      <path
         d="M 216.23437,211 H 284 v 18.18359 h -67.76563 z m 0,0"
         id="path6607" />
    </clipPath>
  </defs>
  <g
     inkscape:label="Layer 1"
     inkscape:groupmode="layer"
     id="layer1">
    <path
       style="fill:none;stroke:#000000;stroke-width:0.140582;stroke-linecap:butt;stroke-linejoin:miter;stroke-miterlimit:10;stroke-opacity:1"
       d="m 15.604901,27.57041 c 0,-2.105642 -1.70738,-3.813033 -3.81303,-3.813033 -2.1056398,0 -3.8130298,1.707391 -3.8130298,3.813033 0,2.105643 1.70739,3.813031 3.8130298,3.813031 2.10565,0 3.81303,-1.707388 3.81303,-3.813031 z m 0,0"
       id="path6612" />
    <g
       style="fill:#000000;fill-opacity:1"
       id="g6616"
       transform="matrix(0.35277777,0,0,0.35277777,-76.282679,-35.217143)">
      <g
         id="use6614"
         transform="translate(245.40199,181.70799)">
        <path
           style="stroke:none"
           d="M 3.296875,-3.453125 H 5.15625 c 1.546875,0 3.0625,-1.125 3.0625,-2.34375 0,-0.84375 -0.71875,-1.65625 -2.140625,-1.65625 h -3.53125 c -0.21875,0 -0.328125,0 -0.328125,0.21875 0,0.125 0.09375,0.125 0.3125,0.125 0.140625,0 0.34375,0.015625 0.46875,0.015625 0.171875,0.03125 0.234375,0.0625 0.234375,0.171875 0,0.046875 0,0.078125 -0.03125,0.21875 l -1.46875,5.859375 c -0.109375,0.421875 -0.125,0.5 -1,0.5 -0.171875,0 -0.296875,0 -0.296875,0.21875 C 0.4375,0 0.5625,0 0.59375,0 c 0.3125,0 1.078125,-0.03125 1.390625,-0.03125 0.234375,0 0.46875,0.015625 0.703125,0.015625 C 2.921875,-0.015625 3.15625,0 3.390625,0 c 0.078125,0 0.21875,0 0.21875,-0.21875 0,-0.125 -0.09375,-0.125 -0.3125,-0.125 -0.390625,0 -0.703125,0 -0.703125,-0.1875 0,-0.0625 0.03125,-0.125 0.03125,-0.1875 z m 0.796875,-3.25 c 0.09375,-0.375 0.109375,-0.40625 0.578125,-0.40625 H 5.71875 c 0.90625,0 1.484375,0.296875 1.484375,1.046875 0,0.421875 -0.21875,1.359375 -0.640625,1.75 -0.546875,0.5 -1.203125,0.578125 -1.671875,0.578125 H 3.34375 Z m 0,0"
           id="path16025" />
      </g>
    </g>
    <path
       style="fill:none;stroke:#000000;stroke-width:0.140582;stroke-linecap:butt;stroke-linejoin:miter;stroke-miterlimit:10;stroke-opacity:1"
       d="m 40.630081,27.57041 c 0,-2.119422 -1.71841,-3.836458 -3.83784,-3.836458 -2.11942,0 -3.83646,1.717036 -3.83646,3.836458 0,2.119422 1.71704,3.837834 3.83646,3.837834 2.11943,0 3.83784,-1.718412 3.83784,-3.837834 z m 0,0"
       id="path6618" />
    <g
       style="fill:#000000;fill-opacity:1"
       id="g6622"
       transform="matrix(0.35277777,0,0,0.35277777,-76.282679,-35.217143)">
      <g
         id="use6620"
         transform="translate(316.133,181.70799)">
        <path
           style="stroke:none"
           d="M 6.84375,-6.203125 C 7.390625,-7.0625 7.84375,-7.09375 8.25,-7.109375 8.375,-7.125 8.390625,-7.3125 8.390625,-7.3125 c 0,-0.09375 -0.0625,-0.140625 -0.140625,-0.140625 -0.28125,0 -0.609375,0.03125 -0.90625,0.03125 -0.359375,0 -0.71875,-0.03125 -1.078125,-0.03125 -0.0625,0 -0.203125,0 -0.203125,0.21875 0,0.109375 0.09375,0.125 0.171875,0.125 0.296875,0.015625 0.5,0.125 0.5,0.359375 0,0.15625 -0.15625,0.40625 -0.15625,0.40625 l -3.34375,5.328125 -0.75,-5.765625 c 0,-0.1875 0.25,-0.328125 0.75,-0.328125 0.15625,0 0.28125,0 0.28125,-0.21875 0,-0.09375 -0.09375,-0.125 -0.15625,-0.125 -0.4375,0 -0.90625,0.03125 -1.359375,0.03125 -0.1875,0 -0.390625,0 -0.59375,0 -0.203125,0 -0.40625,-0.03125 -0.59375,-0.03125 -0.078125,0 -0.203125,0 -0.203125,0.21875 0,0.125 0.09375,0.125 0.28125,0.125 0.609375,0 0.609375,0.09375 0.640625,0.375 l 0.875,6.71875 c 0.03125,0.21875 0.0625,0.25 0.21875,0.25 0.171875,0 0.203125,-0.046875 0.296875,-0.1875 z m 0,0"
           id="path16017" />
      </g>
    </g>
    <path
       style="fill:none;stroke:#000000;stroke-width:0.140582;stroke-linecap:butt;stroke-linejoin:miter;stroke-miterlimit:10;stroke-opacity:1"
       d="m 41.269491,7.5709407 c 0,-2.473579 -2.00505,-4.477244 -4.47725,-4.477244 -2.4722,0 -4.47724,2.003665 -4.47724,4.477244 0,2.4722003 2.00504,4.4758683 4.47724,4.4758683 2.4722,0 4.47725,-2.003668 4.47725,-4.4758683 z m 0,0"
       id="path6624" />
    <g
       style="fill:#000000;fill-opacity:1"
       id="g6628"
       transform="matrix(0.35277777,0,0,0.35277777,-76.282679,-35.217143)">
      <g
         id="use6626"
         transform="translate(313.90201,125.121)">
        <path
           style="stroke:none"
           d="M 3.296875,-3.453125 H 5.15625 c 1.546875,0 3.0625,-1.125 3.0625,-2.34375 0,-0.84375 -0.71875,-1.65625 -2.140625,-1.65625 h -3.53125 c -0.21875,0 -0.328125,0 -0.328125,0.21875 0,0.125 0.09375,0.125 0.3125,0.125 0.140625,0 0.34375,0.015625 0.46875,0.015625 0.171875,0.03125 0.234375,0.0625 0.234375,0.171875 0,0.046875 0,0.078125 -0.03125,0.21875 l -1.46875,5.859375 c -0.109375,0.421875 -0.125,0.5 -1,0.5 -0.171875,0 -0.296875,0 -0.296875,0.21875 C 0.4375,0 0.5625,0 0.59375,0 c 0.3125,0 1.078125,-0.03125 1.390625,-0.03125 0.234375,0 0.46875,0.015625 0.703125,0.015625 C 2.921875,-0.015625 3.15625,0 3.390625,0 c 0.078125,0 0.21875,0 0.21875,-0.21875 0,-0.125 -0.09375,-0.125 -0.3125,-0.125 -0.390625,0 -0.703125,0 -0.703125,-0.1875 0,-0.0625 0.03125,-0.125 0.03125,-0.1875 z m 0.796875,-3.25 c 0.09375,-0.375 0.109375,-0.40625 0.578125,-0.40625 H 5.71875 c 0.90625,0 1.484375,0.296875 1.484375,1.046875 0,0.421875 -0.21875,1.359375 -0.640625,1.75 -0.546875,0.5 -1.203125,0.578125 -1.671875,0.578125 H 3.34375 Z m 0,0"
           id="path16029" />
      </g>
    </g>
    <g
       style="fill:#000000;fill-opacity:1"
       id="g6632"
       transform="matrix(0.35277777,0,0,0.35277777,-76.282679,-35.217143)">
      <g
         id="use6630"
         transform="translate(322.42099,121.163)">
        <path
           style="stroke:none"
           d="m 3.9375,-2.28125 c 0.125,-0.046875 0.15625,-0.0625 0.15625,-0.140625 0,-0.046875 -0.046875,-0.109375 -0.109375,-0.109375 -0.015625,0 -0.234375,0.046875 -0.34375,0.0625 l -1.21875,0.25 -0.1875,-1.46875 c -0.015625,-0.125 -0.03125,-0.203125 -0.125,-0.203125 -0.09375,0 -0.09375,0.0625 -0.125,0.203125 L 1.8125,-2.21875 0.34375,-2.515625 0.234375,-2.53125 c -0.0625,0 -0.109375,0.0625 -0.109375,0.109375 0,0.078125 0.0625,0.109375 0.140625,0.140625 l 1.375,0.625 L 1,-0.53125 c -0.046875,0.09375 -0.15625,0.296875 -0.15625,0.3125 0,0.046875 0.03125,0.109375 0.109375,0.109375 0.015625,0 0.046875,0 0.09375,-0.03125 0.0625,-0.0625 0.21875,-0.234375 0.28125,-0.3125 l 0.78125,-0.84375 0.875,0.9375 c 0.03125,0.046875 0.125,0.140625 0.15625,0.171875 0.09375,0.078125 0.09375,0.078125 0.125,0.078125 0.078125,0 0.109375,-0.0625 0.109375,-0.109375 0,-0.046875 -0.6875,-1.265625 -0.78125,-1.4375 z m 0,0"
           id="path16041" />
      </g>
    </g>
    <g
       clip-path="url(#clip1-3)"
       clip-rule="nonzero"
       id="g6636"
       transform="matrix(0.35277777,0,0,0.35277777,-76.282679,-35.217143)">
      <path
         style="fill:none;stroke:#000000;stroke-width:0.3985;stroke-linecap:butt;stroke-linejoin:miter;stroke-miterlimit:10;stroke-opacity:1"
         d="m 154.53041,56.691938 c 0,7.070312 -5.73047,12.796875 -12.79688,12.796875 -7.06641,0 -12.79297,-5.726563 -12.79297,-12.796875 0,-7.066407 5.72656,-12.792969 12.79297,-12.792969 7.06641,0 12.79688,5.726562 12.79688,12.792969 z m 0,0"
         transform="matrix(1,0,0,-1,249.661,177.981)"
         id="path6634" />
    </g>
    <g
       style="fill:#000000;fill-opacity:1"
       id="g6640"
       transform="matrix(0.35277777,0,0,0.35277777,-76.282679,-35.217143)">
      <g
         id="use6638"
         transform="translate(384.633,125.121)">
        <path
           style="stroke:none"
           d="M 6.84375,-6.203125 C 7.390625,-7.0625 7.84375,-7.09375 8.25,-7.109375 8.375,-7.125 8.390625,-7.3125 8.390625,-7.3125 c 0,-0.09375 -0.0625,-0.140625 -0.140625,-0.140625 -0.28125,0 -0.609375,0.03125 -0.90625,0.03125 -0.359375,0 -0.71875,-0.03125 -1.078125,-0.03125 -0.0625,0 -0.203125,0 -0.203125,0.21875 0,0.109375 0.09375,0.125 0.171875,0.125 0.296875,0.015625 0.5,0.125 0.5,0.359375 0,0.15625 -0.15625,0.40625 -0.15625,0.40625 l -3.34375,5.328125 -0.75,-5.765625 c 0,-0.1875 0.25,-0.328125 0.75,-0.328125 0.15625,0 0.28125,0 0.28125,-0.21875 0,-0.09375 -0.09375,-0.125 -0.15625,-0.125 -0.4375,0 -0.90625,0.03125 -1.359375,0.03125 -0.1875,0 -0.390625,0 -0.59375,0 -0.203125,0 -0.40625,-0.03125 -0.59375,-0.03125 -0.078125,0 -0.203125,0 -0.203125,0.21875 0,0.125 0.09375,0.125 0.28125,0.125 0.609375,0 0.609375,0.09375 0.640625,0.375 l 0.875,6.71875 c 0.03125,0.21875 0.0625,0.25 0.21875,0.25 0.171875,0 0.203125,-0.046875 0.296875,-0.1875 z m 0,0"
           id="path16021" />
      </g>
    </g>
    <g
       style="fill:#000000;fill-opacity:1"
       id="g6644"
       transform="matrix(0.35277777,0,0,0.35277777,-76.282679,-35.217143)">
      <g
         id="use6642"
         transform="translate(393.42099,121.163)">
        <path
           style="stroke:none"
           d="m 3.9375,-2.28125 c 0.125,-0.046875 0.15625,-0.0625 0.15625,-0.140625 0,-0.046875 -0.046875,-0.109375 -0.109375,-0.109375 -0.015625,0 -0.234375,0.046875 -0.34375,0.0625 l -1.21875,0.25 -0.1875,-1.46875 c -0.015625,-0.125 -0.03125,-0.203125 -0.125,-0.203125 -0.09375,0 -0.09375,0.0625 -0.125,0.203125 L 1.8125,-2.21875 0.34375,-2.515625 0.234375,-2.53125 c -0.0625,0 -0.109375,0.0625 -0.109375,0.109375 0,0.078125 0.0625,0.109375 0.140625,0.140625 l 1.375,0.625 L 1,-0.53125 c -0.046875,0.09375 -0.15625,0.296875 -0.15625,0.3125 0,0.046875 0.03125,0.109375 0.109375,0.109375 0.015625,0 0.046875,0 0.09375,-0.03125 0.0625,-0.0625 0.21875,-0.234375 0.28125,-0.3125 l 0.78125,-0.84375 0.875,0.9375 c 0.03125,0.046875 0.125,0.140625 0.15625,0.171875 0.09375,0.078125 0.09375,0.078125 0.125,0.078125 0.078125,0 0.109375,-0.0625 0.109375,-0.109375 0,-0.046875 -0.6875,-1.265625 -0.78125,-1.4375 z m 0,0"
           id="path16045" />
      </g>
    </g>
    <g
       clip-path="url(#clip2-6)"
       clip-rule="nonzero"
       id="g6648"
       transform="matrix(0.35277777,0,0,0.35277777,-76.282679,-35.217143)">
      <path
         style="fill:none;stroke:#000000;stroke-width:0.3985;stroke-linecap:butt;stroke-linejoin:miter;stroke-miterlimit:10;stroke-dasharray:2.98883, 2.98883;stroke-opacity:1"
         d="m 59.569469,-21.261187 h 22.59375 c 5.503906,0 9.964843,4.460937 9.964843,9.964843 v 79.289063 c 0,5.5 -4.460937,9.960937 -9.964843,9.960937 h -22.59375 c -5.503907,0 -9.960938,-4.460937 -9.960938,-9.960937 v -79.289063 c 0,-5.503906 4.457031,-9.964843 9.960938,-9.964843 z m 0,0"
         transform="matrix(1,0,0,-1,249.661,177.981)"
         id="path6646" />
    </g>
    <path
       style="fill:none;stroke:#000000;stroke-width:0.140582;stroke-linecap:butt;stroke-linejoin:miter;stroke-miterlimit:10;stroke-opacity:1"
       d="m 15.675191,27.57041 h 13.61777"
       id="path6650" />
    <path
       style="fill:#ffffff;fill-opacity:1;fill-rule:nonzero;stroke:none;stroke-width:0.352778"
       d="m 20.035301,29.681563 h 4.89755 v -4.222309 h -4.89755 z m 0,0"
       id="path6652" />
    <g
       style="fill:#000000;fill-opacity:1"
       id="g6656"
       transform="matrix(0.35277777,0,0,0.35277777,-76.282679,-35.217143)">
      <g
         id="use6654"
         transform="translate(276.66299,180.32899)">
        <path
           style="stroke:none"
           d="M 2.890625,-4.0625 H 4.125 c -0.359375,1.609375 -0.453125,2.078125 -0.453125,2.8125 0,0.15625 0,0.453125 0.078125,0.828125 C 3.859375,0.046875 3.984375,0.125 4.140625,0.125 c 0.21875,0 0.453125,-0.203125 0.453125,-0.421875 0,-0.0625 0,-0.078125 -0.0625,-0.234375 C 4.203125,-1.3125 4.203125,-2.03125 4.203125,-2.328125 4.203125,-2.90625 4.28125,-3.5 4.40625,-4.0625 h 1.25 c 0.140625,0 0.53125,0 0.53125,-0.375 0,-0.265625 -0.234375,-0.265625 -0.4375,-0.265625 H 2.09375 c -0.234375,0 -0.65625,0 -1.140625,0.515625 -0.375,0.421875 -0.65625,0.921875 -0.65625,0.984375 0,0 0,0.109375 0.125,0.109375 0.09375,0 0.109375,-0.046875 0.171875,-0.140625 C 1.140625,-4.0625 1.765625,-4.0625 1.984375,-4.0625 h 0.625 C 2.25,-2.75 1.671875,-1.421875 1.203125,-0.4375 1.125,-0.265625 1.125,-0.25 1.125,-0.171875 1.125,0.03125 1.296875,0.125 1.4375,0.125 c 0.328125,0 0.421875,-0.3125 0.546875,-0.71875 0.15625,-0.5 0.15625,-0.515625 0.296875,-1.0625 z m 0,0"
           id="path16033" />
      </g>
    </g>
    <path
       style="fill:none;stroke:#000000;stroke-width:0.140582;stroke-linecap:butt;stroke-linejoin:miter;stroke-miterlimit:10;stroke-opacity:1"
       d="m 29.292961,27.57041 h 3.45198"
       id="path6658" />
    <path
       style="fill:none;stroke:#000000;stroke-width:0.140582;stroke-linecap:round;stroke-linejoin:round;stroke-miterlimit:10;stroke-opacity:1"
       d="m 32.083491,26.727049 c 0.13366,0.505742 0.43132,0.745518 0.73173,0.843361 -0.30041,0.09922 -0.59807,0.337619 -0.73173,0.843358"
       id="path6660" />
    <path
       style="fill:none;stroke:#000000;stroke-width:0.140582;stroke-linecap:butt;stroke-linejoin:miter;stroke-miterlimit:10;stroke-opacity:1"
       d="M 36.792241,23.523111 V 12.25765"
       id="path6662" />
    <path
       style="fill:none;stroke:#000000;stroke-width:0.140582;stroke-linecap:round;stroke-linejoin:round;stroke-miterlimit:10;stroke-opacity:1"
       d="m 37.635601,22.861653 c -0.50574,0.133671 -0.74414,0.431327 -0.84336,0.731738 -0.0978,-0.300411 -0.33762,-0.598067 -0.84336,-0.731738"
       id="path6664" />
    <path
       style="fill:none;stroke:#000000;stroke-width:0.140582;stroke-linecap:round;stroke-linejoin:round;stroke-miterlimit:10;stroke-opacity:1"
       d="m 35.948881,12.919109 c 0.50574,-0.133671 0.74552,-0.431328 0.84336,-0.731739 0.0992,0.300411 0.33762,0.598068 0.84336,0.731739"
       id="path6666" />
    <path
       style="fill:none;stroke:#000000;stroke-width:0.140582;stroke-linecap:butt;stroke-linejoin:miter;stroke-miterlimit:10;stroke-opacity:1"
       d="m 41.339771,7.5709407 h 2.95313"
       id="path6668" />
    <path
       style="fill:none;stroke:#000000;stroke-width:0.140582;stroke-linecap:butt;stroke-linejoin:miter;stroke-miterlimit:10;stroke-opacity:1"
       d="M 44.292901,7.5709407 H 57.068697"
       id="path6670" />
    <path
       style="fill:none;stroke:#000000;stroke-width:0.140582;stroke-linecap:round;stroke-linejoin:round;stroke-miterlimit:10;stroke-opacity:1"
       d="m 56.407239,6.7262037 c 0.133668,0.507118 0.431324,0.745518 0.731735,0.844737 -0.300411,0.09784 -0.598067,0.336243 -0.731735,0.843361"
       id="path6672" />
    <path
       style="fill:#ffffff;fill-opacity:1;fill-rule:nonzero;stroke:none;stroke-width:0.352778"
       d="m 47.467901,10.681175 h 6.56635 V 4.4593317 h -6.56635 z m 0,0"
       id="path6674" />
    <g
       style="fill:#000000;fill-opacity:1"
       id="g6678"
       transform="matrix(0.35277777,0,0,0.35277777,-76.282679,-35.217143)">
      <g
         id="use6676"
         transform="translate(354.422,123.773)">
        <path
           style="stroke:none"
           d="M 2.890625,-4.0625 H 4.125 c -0.359375,1.609375 -0.453125,2.078125 -0.453125,2.8125 0,0.15625 0,0.453125 0.078125,0.828125 C 3.859375,0.046875 3.984375,0.125 4.140625,0.125 c 0.21875,0 0.453125,-0.203125 0.453125,-0.421875 0,-0.0625 0,-0.078125 -0.0625,-0.234375 C 4.203125,-1.3125 4.203125,-2.03125 4.203125,-2.328125 4.203125,-2.90625 4.28125,-3.5 4.40625,-4.0625 h 1.25 c 0.140625,0 0.53125,0 0.53125,-0.375 0,-0.265625 -0.234375,-0.265625 -0.4375,-0.265625 H 2.09375 c -0.234375,0 -0.65625,0 -1.140625,0.515625 -0.375,0.421875 -0.65625,0.921875 -0.65625,0.984375 0,0 0,0.109375 0.125,0.109375 0.09375,0 0.109375,-0.046875 0.171875,-0.140625 C 1.140625,-4.0625 1.765625,-4.0625 1.984375,-4.0625 h 0.625 C 2.25,-2.75 1.671875,-1.421875 1.203125,-0.4375 1.125,-0.265625 1.125,-0.25 1.125,-0.171875 1.125,0.03125 1.296875,0.125 1.4375,0.125 c 0.328125,0 0.421875,-0.3125 0.546875,-0.71875 0.15625,-0.5 0.15625,-0.515625 0.296875,-1.0625 z m 0,0"
           id="path16037" />
      </g>
    </g>
    <g
       style="fill:#000000;fill-opacity:1"
       id="g6682"
       transform="matrix(0.35277777,0,0,0.35277777,-76.282679,-35.217143)">
      <g
         id="use6680"
         transform="translate(361.03201,119.814)">
        <path
           style="stroke:none"
           d="m 3.9375,-2.28125 c 0.125,-0.046875 0.15625,-0.0625 0.15625,-0.140625 0,-0.046875 -0.046875,-0.109375 -0.109375,-0.109375 -0.015625,0 -0.234375,0.046875 -0.34375,0.0625 l -1.21875,0.25 -0.1875,-1.46875 c -0.015625,-0.125 -0.03125,-0.203125 -0.125,-0.203125 -0.09375,0 -0.09375,0.0625 -0.125,0.203125 L 1.8125,-2.21875 0.34375,-2.515625 0.234375,-2.53125 c -0.0625,0 -0.109375,0.0625 -0.109375,0.109375 0,0.078125 0.0625,0.109375 0.140625,0.140625 l 1.375,0.625 L 1,-0.53125 c -0.046875,0.09375 -0.15625,0.296875 -0.15625,0.3125 0,0.046875 0.03125,0.109375 0.109375,0.109375 0.015625,0 0.046875,0 0.09375,-0.03125 0.0625,-0.0625 0.21875,-0.234375 0.28125,-0.3125 l 0.78125,-0.84375 0.875,0.9375 c 0.03125,0.046875 0.125,0.140625 0.15625,0.171875 0.09375,0.078125 0.09375,0.078125 0.125,0.078125 0.078125,0 0.109375,-0.0625 0.109375,-0.109375 0,-0.046875 -0.6875,-1.265625 -0.78125,-1.4375 z m 0,0"
           id="path16049" />
      </g>
    </g>
    <g
       clip-path="url(#clip3-7)"
       clip-rule="nonzero"
       id="g6686"
       transform="matrix(0.35277777,0,0,0.35277777,-76.282679,-35.217143)">
      <path
         style="fill:none;stroke:#000000;stroke-width:0.3985;stroke-linecap:butt;stroke-linejoin:miter;stroke-miterlimit:10;stroke-opacity:1"
         d="m -33.227406,-51.003375 h 66.453125 v 16.96875 h -66.453125 z m 0,0"
         transform="matrix(1,0,0,-1,249.661,177.981)"
         id="path6684" />
    </g>
    <g
       style="fill:#000000;fill-opacity:1"
       id="g6710"
       transform="matrix(0.35277777,0,0,0.35277777,-76.282679,-35.217143)">
      <g
         id="use6688"
         transform="translate(220.07001,223.228)">
        <path
           style="stroke:none"
           d="M 6.34375,-1.25 C 5.703125,-0.8125 5.328125,-0.59375 4.25,-0.59375 c -1.5625,0 -2.546875,-1.625 -2.546875,-3.203125 0,-1.484375 0.90625,-3.1875 2.578125,-3.1875 0.765625,0 1.265625,0.171875 1.859375,0.5625 L 6.296875,-7.3125 c -0.46875,-0.234375 -1.3125,-0.375 -2.015625,-0.375 -2.015625,0 -3.5625,1.703125 -3.5625,3.984375 0,1.734375 1.296875,3.828125 3.5625,3.828125 1.015625,0 1.421875,-0.171875 2.125,-0.609375 z m 0,0"
           id="path15977" />
      </g>
      <g
         id="use6690"
         transform="translate(227.03983,223.228)">
        <path
           style="stroke:none"
           d="m 5.109375,-2.40625 c 0,-1.453125 -1.078125,-2.625 -2.390625,-2.625 -1.328125,0 -2.390625,1.203125 -2.390625,2.625 0,1.453125 1.109375,2.53125 2.390625,2.53125 1.3125,0 2.390625,-1.109375 2.390625,-2.53125 z M 2.71875,-0.578125 c -0.75,0 -1.546875,-0.609375 -1.546875,-1.9375 0,-1.3125 0.828125,-1.84375 1.546875,-1.84375 0.765625,0 1.546875,0.5625 1.546875,1.84375 0,1.296875 -0.75,1.9375 -1.546875,1.9375 z m 0,0"
           id="path16001" />
      </g>
      <g
         id="use6692"
         transform="translate(232.49437,223.228)">
        <path
           style="stroke:none"
           d="m 7.78125,-3.25 c 0,-0.734375 -0.171875,-1.71875 -1.5,-1.71875 -0.65625,0 -1.21875,0.3125 -1.625,0.90625 C 4.375,-4.890625 3.609375,-4.96875 3.265625,-4.96875 c -0.796875,0 -1.296875,0.453125 -1.59375,0.84375 V -4.90625 H 0.890625 V 0 h 0.84375 v -2.671875 c 0,-0.734375 0.296875,-1.625 1.09375,-1.625 1.015625,0 1.078125,0.703125 1.078125,1.125 V 0 H 4.75 v -2.671875 c 0,-0.734375 0.296875,-1.625 1.109375,-1.625 1.015625,0 1.0625,0.703125 1.0625,1.125 V 0 H 7.78125 Z m 0,0"
           id="path15997" />
      </g>
      <g
         id="use6694"
         transform="translate(241.16057,223.228)">
        <path
           style="stroke:none"
           d="m 1.75,-0.5 c 0.328125,0.3125 0.8125,0.625 1.46875,0.625 1.0625,0 2.015625,-1.078125 2.015625,-2.5625 0,-1.296875 -0.6875,-2.53125 -1.734375,-2.53125 -0.65625,0 -1.28125,0.234375 -1.78125,0.65625 V -4.84375 H 0.890625 V 2.109375 H 1.75 Z m 0,-3.125 C 2,-4.015625 2.4375,-4.265625 2.90625,-4.265625 c 0.828125,0 1.484375,0.828125 1.484375,1.828125 0,1.125 -0.78125,1.890625 -1.59375,1.890625 -0.4375,0 -0.71875,-0.21875 -0.9375,-0.515625 C 1.75,-1.21875 1.75,-1.25 1.75,-1.4375 Z m 0,0"
           id="path16053" />
      </g>
      <g
         id="use6696"
         transform="translate(246.7973,223.228)">
        <path
           style="stroke:none"
           d="M 4.75,-4.84375 H 3.890625 v 3.171875 c 0,0.8125 -0.609375,1.1875 -1.3125,1.1875 -0.765625,0 -0.84375,-0.28125 -0.84375,-0.75 V -4.84375 h -0.84375 v 3.65625 c 0,0.78125 0.25,1.3125 1.15625,1.3125 0.578125,0 1.34375,-0.171875 1.875,-0.65625 V 0 H 4.75 Z m 0,0"
           id="path16013" />
      </g>
      <g
         id="use6698"
         transform="translate(252.43402,223.228)">
        <path
           style="stroke:none"
           d="M 1.90625,-4.203125 H 3.453125 V -4.84375 H 1.90625 v -1.390625 h -0.75 V -4.84375 H 0.203125 v 0.640625 H 1.125 v 2.90625 c 0,0.65625 0.15625,1.421875 0.90625,1.421875 0.765625,0 1.3125,-0.28125 1.59375,-0.421875 L 3.453125,-0.9375 C 3.15625,-0.703125 2.8125,-0.578125 2.46875,-0.578125 c -0.40625,0 -0.5625,-0.328125 -0.5625,-0.90625 z m 0,0"
           id="path15981" />
      </g>
      <g
         id="use6700"
         transform="translate(256.37329,223.228)">
        <path
           style="stroke:none"
           d="m 4.359375,-3.15625 c 0,-1.109375 -0.796875,-1.875 -1.8125,-1.875 -0.703125,0 -1.1875,0.171875 -1.703125,0.46875 l 0.0625,0.71875 c 0.5625,-0.40625 1.109375,-0.546875 1.640625,-0.546875 0.515625,0 0.953125,0.4375 0.953125,1.25 v 0.46875 c -1.640625,0.015625 -3.015625,0.484375 -3.015625,1.4375 0,0.46875 0.296875,1.359375 1.234375,1.359375 0.15625,0 1.1875,-0.03125 1.8125,-0.515625 V 0 H 4.359375 Z M 3.5,-1.4375 c 0,0.203125 0,0.484375 -0.375,0.6875 -0.3125,0.1875 -0.71875,0.203125 -0.84375,0.203125 -0.53125,0 -1.015625,-0.25 -1.015625,-0.703125 0,-0.765625 1.765625,-0.84375 2.234375,-0.859375 z m 0,0"
           id="path15993" />
      </g>
      <g
         id="use6702"
         transform="translate(261.61621,223.228)">
        <path
           style="stroke:none"
           d="M 1.90625,-4.203125 H 3.453125 V -4.84375 H 1.90625 v -1.390625 h -0.75 V -4.84375 H 0.203125 v 0.640625 H 1.125 v 2.90625 c 0,0.65625 0.15625,1.421875 0.90625,1.421875 0.765625,0 1.3125,-0.28125 1.59375,-0.421875 L 3.453125,-0.9375 C 3.15625,-0.703125 2.8125,-0.578125 2.46875,-0.578125 c -0.40625,0 -0.5625,-0.328125 -0.5625,-0.90625 z m 0,0"
           id="path15985" />
      </g>
      <g
         id="use6704"
         transform="translate(265.55548,223.228)">
        <path
           style="stroke:none"
           d="M 1.78125,-7.421875 H 0.8125 v 0.96875 H 1.78125 Z M 1.703125,-4.84375 h -0.8125 V 0 h 0.8125 z m 0,0"
           id="path15989" />
      </g>
      <g
         id="use6706"
         transform="translate(268.16168,223.228)">
        <path
           style="stroke:none"
           d="m 5.109375,-2.40625 c 0,-1.453125 -1.078125,-2.625 -2.390625,-2.625 -1.328125,0 -2.390625,1.203125 -2.390625,2.625 0,1.453125 1.109375,2.53125 2.390625,2.53125 1.3125,0 2.390625,-1.109375 2.390625,-2.53125 z M 2.71875,-0.578125 c -0.75,0 -1.546875,-0.609375 -1.546875,-1.9375 0,-1.3125 0.828125,-1.84375 1.546875,-1.84375 0.765625,0 1.546875,0.5625 1.546875,1.84375 0,1.296875 -0.75,1.9375 -1.546875,1.9375 z m 0,0"
           id="path16005" />
      </g>
      <g
         id="use6708"
         transform="translate(273.61621,223.228)">
        <path
           style="stroke:none"
           d="m 4.75,-3.25 c 0,-0.71875 -0.171875,-1.71875 -1.5,-1.71875 -0.984375,0 -1.515625,0.75 -1.578125,0.828125 V -4.90625 H 0.890625 V 0 h 0.84375 v -2.671875 c 0,-0.71875 0.265625,-1.625 1.09375,-1.625 1.046875,0 1.0625,0.78125 1.0625,1.125 V 0 H 4.75 Z m 0,0"
           id="path16009" />
      </g>
    </g>
    <path
       style="fill:none;stroke:#000000;stroke-width:0.140582;stroke-linecap:butt;stroke-linejoin:miter;stroke-miterlimit:10;stroke-opacity:1"
       d="M 11.791871,39.506978 V 31.594282"
       id="path6712" />
    <path
       style="fill:none;stroke:#000000;stroke-width:0.140582;stroke-linecap:round;stroke-linejoin:round;stroke-miterlimit:10;stroke-opacity:1"
       d="m 10.948511,32.25574 c 0.50574,-0.133671 0.74552,-0.431327 0.84336,-0.731739 0.0992,0.300412 0.33762,0.598068 0.84336,0.731739"
       id="path6714" />
  </g>
</svg>
