<?xml version="1.0" encoding="UTF-8" standalone="no"?>
<!-- Created with Inkscape (http://www.inkscape.org/) -->

<svg
   width="138.97931mm"
   height="45.633762mm"
   viewBox="0 0 138.97931 45.633762"
   version="1.1"
   id="svg12288"
   inkscape:version="1.1.2 (0a00cf5339, 2022-02-04)"
   sodipodi:docname="recursive-proof-3.svg"
   xmlns:inkscape="http://www.inkscape.org/namespaces/inkscape"
   xmlns:sodipodi="http://sodipodi.sourceforge.net/DTD/sodipodi-0.dtd"
   xmlns="http://www.w3.org/2000/svg"
   xmlns:svg="http://www.w3.org/2000/svg">
  <sodipodi:namedview
     id="namedview12290"
     pagecolor="#ffffff"
     bordercolor="#666666"
     borderopacity="1.0"
     inkscape:pageshadow="2"
     inkscape:pageopacity="0.0"
     inkscape:pagecheckerboard="0"
     inkscape:document-units="mm"
     showgrid="false"
     inkscape:zoom="0.69664703"
     inkscape:cx="396.90114"
     inkscape:cy="561.25984"
     inkscape:window-width="1920"
     inkscape:window-height="1007"
     inkscape:window-x="0"
     inkscape:window-y="0"
     inkscape:window-maximized="1"
     inkscape:current-layer="layer1" />
  <defs
     id="defs12285">
    <clipPath
       id="clip1">
      <path
         d="M 131,106 H 512.51172 V 261 H 131 Z m 0,0"
         id="path511" />
    </clipPath>
    <clipPath
       id="clip2">
      <path
         d="M 131,106 H 512.51172 V 261 H 131 Z m 0,0"
         id="path514" />
    </clipPath>
    <clipPath
       id="clip3">
      <path
         d="m 150,229 h 283 v 31.57422 H 150 Z m 0,0"
         id="path517" />
    </clipPath>
    <clipPath
       id="clip4">
      <path
         d="m 150,228 h 283 v 32.57422 H 150 Z m 0,0"
         id="path520" />
    </clipPath>
    <clipPath
       id="clip5">
      <path
         d="m 181,224 h 283 v 36.57422 H 181 Z m 0,0"
         id="path523" />
    </clipPath>
    <clipPath
       id="clip6">
      <path
         d="m 180,224 h 284 v 36.57422 H 180 Z m 0,0"
         id="path526" />
    </clipPath>
    <clipPath
       id="clip7">
      <path
         d="m 211,164 h 283 v 96.57422 H 211 Z m 0,0"
         id="path529" />
    </clipPath>
    <clipPath
       id="clip1-3">
      <path
         d="m 372,102 h 32.38672 v 38 H 372 Z m 0,0"
         id="path6601" />
    </clipPath>
    <clipPath
       id="clip2-6">
      <path
         d="m 293,99.828125 h 55 V 205 h -55 z m 0,0"
         id="path6604" />
    </clipPath>
    <clipPath
       id="clip3-7">
      <path
         d="M 216.23437,211 H 284 v 18.18359 h -67.76563 z m 0,0"
         id="path6607" />
    </clipPath>
  </defs>
  <g
     inkscape:label="Layer 1"
     inkscape:groupmode="layer"
     id="layer1">
    <path
       style="fill:none;stroke:#000000;stroke-width:0.140582;stroke-linecap:butt;stroke-linejoin:miter;stroke-miterlimit:10;stroke-opacity:1"
       d="m 1.744606,45.563471 h 26.651257 v -5.9862 H 1.744606 Z m 0,0"
       id="path8150" />
    <g
       style="fill:#000000;fill-opacity:1"
       id="g8174"
       transform="matrix(0.35277777,0,0,0.35277777,-40.041645,-198.07919)">
      <g
         id="use8152"
         transform="translate(122.087,684.88397)">
        <path
           style="stroke:none"
           d="M 6.34375,-1.25 C 5.703125,-0.8125 5.328125,-0.59375 4.25,-0.59375 c -1.5625,0 -2.546875,-1.625 -2.546875,-3.203125 0,-1.484375 0.90625,-3.1875 2.578125,-3.1875 0.765625,0 1.265625,0.171875 1.859375,0.5625 L 6.296875,-7.3125 c -0.46875,-0.234375 -1.3125,-0.375 -2.015625,-0.375 -2.015625,0 -3.5625,1.703125 -3.5625,3.984375 0,1.734375 1.296875,3.828125 3.5625,3.828125 1.015625,0 1.421875,-0.171875 2.125,-0.609375 z m 0,0"
           id="path19590" />
      </g>
      <g
         id="use8154"
         transform="translate(129.05682,684.88397)">
        <path
           style="stroke:none"
           d="m 5.109375,-2.40625 c 0,-1.453125 -1.078125,-2.625 -2.390625,-2.625 -1.328125,0 -2.390625,1.203125 -2.390625,2.625 0,1.453125 1.109375,2.53125 2.390625,2.53125 1.3125,0 2.390625,-1.109375 2.390625,-2.53125 z M 2.71875,-0.578125 c -0.75,0 -1.546875,-0.609375 -1.546875,-1.9375 0,-1.3125 0.828125,-1.84375 1.546875,-1.84375 0.765625,0 1.546875,0.5625 1.546875,1.84375 0,1.296875 -0.75,1.9375 -1.546875,1.9375 z m 0,0"
           id="path19534" />
      </g>
      <g
         id="use8156"
         transform="translate(134.51137,684.88397)">
        <path
           style="stroke:none"
           d="m 7.78125,-3.25 c 0,-0.734375 -0.171875,-1.71875 -1.5,-1.71875 -0.65625,0 -1.21875,0.3125 -1.625,0.90625 C 4.375,-4.890625 3.609375,-4.96875 3.265625,-4.96875 c -0.796875,0 -1.296875,0.453125 -1.59375,0.84375 V -4.90625 H 0.890625 V 0 h 0.84375 v -2.671875 c 0,-0.734375 0.296875,-1.625 1.09375,-1.625 1.015625,0 1.078125,0.703125 1.078125,1.125 V 0 H 4.75 v -2.671875 c 0,-0.734375 0.296875,-1.625 1.109375,-1.625 1.015625,0 1.0625,0.703125 1.0625,1.125 V 0 H 7.78125 Z m 0,0"
           id="path19506" />
      </g>
      <g
         id="use8158"
         transform="translate(143.17757,684.88397)">
        <path
           style="stroke:none"
           d="m 1.75,-0.5 c 0.328125,0.3125 0.8125,0.625 1.46875,0.625 1.0625,0 2.015625,-1.078125 2.015625,-2.5625 0,-1.296875 -0.6875,-2.53125 -1.734375,-2.53125 -0.65625,0 -1.28125,0.234375 -1.78125,0.65625 V -4.84375 H 0.890625 V 2.109375 H 1.75 Z m 0,-3.125 C 2,-4.015625 2.4375,-4.265625 2.90625,-4.265625 c 0.828125,0 1.484375,0.828125 1.484375,1.828125 0,1.125 -0.78125,1.890625 -1.59375,1.890625 -0.4375,0 -0.71875,-0.21875 -0.9375,-0.515625 C 1.75,-1.21875 1.75,-1.25 1.75,-1.4375 Z m 0,0"
           id="path19478" />
      </g>
      <g
         id="use8160"
         transform="translate(148.8143,684.88397)">
        <path
           style="stroke:none"
           d="M 4.75,-4.84375 H 3.890625 v 3.171875 c 0,0.8125 -0.609375,1.1875 -1.3125,1.1875 -0.765625,0 -0.84375,-0.28125 -0.84375,-0.75 V -4.84375 h -0.84375 v 3.65625 c 0,0.78125 0.25,1.3125 1.15625,1.3125 0.578125,0 1.34375,-0.171875 1.875,-0.65625 V 0 H 4.75 Z m 0,0"
           id="path19438" />
      </g>
      <g
         id="use8162"
         transform="translate(154.45103,684.88397)">
        <path
           style="stroke:none"
           d="M 1.90625,-4.203125 H 3.453125 V -4.84375 H 1.90625 v -1.390625 h -0.75 V -4.84375 H 0.203125 v 0.640625 H 1.125 v 2.90625 c 0,0.65625 0.15625,1.421875 0.90625,1.421875 0.765625,0 1.3125,-0.28125 1.59375,-0.421875 L 3.453125,-0.9375 C 3.15625,-0.703125 2.8125,-0.578125 2.46875,-0.578125 c -0.40625,0 -0.5625,-0.328125 -0.5625,-0.90625 z m 0,0"
           id="path19382" />
      </g>
      <g
         id="use8164"
         transform="translate(158.3903,684.88397)">
        <path
           style="stroke:none"
           d="m 4.359375,-3.15625 c 0,-1.109375 -0.796875,-1.875 -1.8125,-1.875 -0.703125,0 -1.1875,0.171875 -1.703125,0.46875 l 0.0625,0.71875 c 0.5625,-0.40625 1.109375,-0.546875 1.640625,-0.546875 0.515625,0 0.953125,0.4375 0.953125,1.25 v 0.46875 c -1.640625,0.015625 -3.015625,0.484375 -3.015625,1.4375 0,0.46875 0.296875,1.359375 1.234375,1.359375 0.15625,0 1.1875,-0.03125 1.8125,-0.515625 V 0 H 4.359375 Z M 3.5,-1.4375 c 0,0.203125 0,0.484375 -0.375,0.6875 -0.3125,0.1875 -0.71875,0.203125 -0.84375,0.203125 -0.53125,0 -1.015625,-0.25 -1.015625,-0.703125 0,-0.765625 1.765625,-0.84375 2.234375,-0.859375 z m 0,0"
           id="path19354" />
      </g>
      <g
         id="use8166"
         transform="translate(163.63321,684.88397)">
        <path
           style="stroke:none"
           d="M 1.90625,-4.203125 H 3.453125 V -4.84375 H 1.90625 v -1.390625 h -0.75 V -4.84375 H 0.203125 v 0.640625 H 1.125 v 2.90625 c 0,0.65625 0.15625,1.421875 0.90625,1.421875 0.765625,0 1.3125,-0.28125 1.59375,-0.421875 L 3.453125,-0.9375 C 3.15625,-0.703125 2.8125,-0.578125 2.46875,-0.578125 c -0.40625,0 -0.5625,-0.328125 -0.5625,-0.90625 z m 0,0"
           id="path19386" />
      </g>
      <g
         id="use8168"
         transform="translate(167.57249,684.88397)">
        <path
           style="stroke:none"
           d="M 1.78125,-7.421875 H 0.8125 v 0.96875 H 1.78125 Z M 1.703125,-4.84375 h -0.8125 V 0 h 0.8125 z m 0,0"
           id="path19314" />
      </g>
      <g
         id="use8170"
         transform="translate(170.17868,684.88397)">
        <path
           style="stroke:none"
           d="m 5.109375,-2.40625 c 0,-1.453125 -1.078125,-2.625 -2.390625,-2.625 -1.328125,0 -2.390625,1.203125 -2.390625,2.625 0,1.453125 1.109375,2.53125 2.390625,2.53125 1.3125,0 2.390625,-1.109375 2.390625,-2.53125 z M 2.71875,-0.578125 c -0.75,0 -1.546875,-0.609375 -1.546875,-1.9375 0,-1.3125 0.828125,-1.84375 1.546875,-1.84375 0.765625,0 1.546875,0.5625 1.546875,1.84375 0,1.296875 -0.75,1.9375 -1.546875,1.9375 z m 0,0"
           id="path19538" />
      </g>
      <g
         id="use8172"
         transform="translate(175.63322,684.88397)">
        <path
           style="stroke:none"
           d="m 4.75,-3.25 c 0,-0.71875 -0.171875,-1.71875 -1.5,-1.71875 -0.984375,0 -1.515625,0.75 -1.578125,0.828125 V -4.90625 H 0.890625 V 0 h 0.84375 v -2.671875 c 0,-0.71875 0.265625,-1.625 1.09375,-1.625 1.046875,0 1.0625,0.78125 1.0625,1.125 V 0 H 4.75 Z m 0,0"
           id="path19286" />
      </g>
    </g>
    <g
       style="fill:#000000;fill-opacity:1"
       id="g8178"
       transform="matrix(0.35277777,0,0,0.35277777,-40.041645,-198.07919)">
      <g
         id="use8176"
         transform="translate(184.90269,684.88397)">
        <path
           style="stroke:none"
           d="M 3.265625,-7.390625 H 3.046875 C 2.40625,-6.734375 1.5,-6.703125 0.96875,-6.671875 v 0.625 c 0.359375,0 0.890625,-0.03125 1.4375,-0.25 V -0.625 h -1.375 V 0 H 4.625 V -0.625 H 3.265625 Z m 0,0"
           id="path19274" />
      </g>
    </g>
    <path
       style="fill:none;stroke:#000000;stroke-width:0.140582;stroke-linecap:butt;stroke-linejoin:miter;stroke-miterlimit:10;stroke-opacity:1"
       d="m 31.745876,45.563471 h 26.651256 v -5.9862 H 31.745876 Z m 0,0"
       id="path8180" />
    <g
       style="fill:#000000;fill-opacity:1"
       id="g8204"
       transform="matrix(0.35277777,0,0,0.35277777,-40.041645,-198.07919)">
      <g
         id="use8182"
         transform="translate(207.127,684.88397)">
        <path
           style="stroke:none"
           d="M 6.34375,-1.25 C 5.703125,-0.8125 5.328125,-0.59375 4.25,-0.59375 c -1.5625,0 -2.546875,-1.625 -2.546875,-3.203125 0,-1.484375 0.90625,-3.1875 2.578125,-3.1875 0.765625,0 1.265625,0.171875 1.859375,0.5625 L 6.296875,-7.3125 c -0.46875,-0.234375 -1.3125,-0.375 -2.015625,-0.375 -2.015625,0 -3.5625,1.703125 -3.5625,3.984375 0,1.734375 1.296875,3.828125 3.5625,3.828125 1.015625,0 1.421875,-0.171875 2.125,-0.609375 z m 0,0"
           id="path19594" />
      </g>
      <g
         id="use8184"
         transform="translate(214.09682,684.88397)">
        <path
           style="stroke:none"
           d="m 5.109375,-2.40625 c 0,-1.453125 -1.078125,-2.625 -2.390625,-2.625 -1.328125,0 -2.390625,1.203125 -2.390625,2.625 0,1.453125 1.109375,2.53125 2.390625,2.53125 1.3125,0 2.390625,-1.109375 2.390625,-2.53125 z M 2.71875,-0.578125 c -0.75,0 -1.546875,-0.609375 -1.546875,-1.9375 0,-1.3125 0.828125,-1.84375 1.546875,-1.84375 0.765625,0 1.546875,0.5625 1.546875,1.84375 0,1.296875 -0.75,1.9375 -1.546875,1.9375 z m 0,0"
           id="path19542" />
      </g>
      <g
         id="use8186"
         transform="translate(219.55138,684.88397)">
        <path
           style="stroke:none"
           d="m 7.78125,-3.25 c 0,-0.734375 -0.171875,-1.71875 -1.5,-1.71875 -0.65625,0 -1.21875,0.3125 -1.625,0.90625 C 4.375,-4.890625 3.609375,-4.96875 3.265625,-4.96875 c -0.796875,0 -1.296875,0.453125 -1.59375,0.84375 V -4.90625 H 0.890625 V 0 h 0.84375 v -2.671875 c 0,-0.734375 0.296875,-1.625 1.09375,-1.625 1.015625,0 1.078125,0.703125 1.078125,1.125 V 0 H 4.75 v -2.671875 c 0,-0.734375 0.296875,-1.625 1.109375,-1.625 1.015625,0 1.0625,0.703125 1.0625,1.125 V 0 H 7.78125 Z m 0,0"
           id="path19510" />
      </g>
      <g
         id="use8188"
         transform="translate(228.21756,684.88397)">
        <path
           style="stroke:none"
           d="m 1.75,-0.5 c 0.328125,0.3125 0.8125,0.625 1.46875,0.625 1.0625,0 2.015625,-1.078125 2.015625,-2.5625 0,-1.296875 -0.6875,-2.53125 -1.734375,-2.53125 -0.65625,0 -1.28125,0.234375 -1.78125,0.65625 V -4.84375 H 0.890625 V 2.109375 H 1.75 Z m 0,-3.125 C 2,-4.015625 2.4375,-4.265625 2.90625,-4.265625 c 0.828125,0 1.484375,0.828125 1.484375,1.828125 0,1.125 -0.78125,1.890625 -1.59375,1.890625 -0.4375,0 -0.71875,-0.21875 -0.9375,-0.515625 C 1.75,-1.21875 1.75,-1.25 1.75,-1.4375 Z m 0,0"
           id="path19482" />
      </g>
      <g
         id="use8190"
         transform="translate(233.85429,684.88397)">
        <path
           style="stroke:none"
           d="M 4.75,-4.84375 H 3.890625 v 3.171875 c 0,0.8125 -0.609375,1.1875 -1.3125,1.1875 -0.765625,0 -0.84375,-0.28125 -0.84375,-0.75 V -4.84375 h -0.84375 v 3.65625 c 0,0.78125 0.25,1.3125 1.15625,1.3125 0.578125,0 1.34375,-0.171875 1.875,-0.65625 V 0 H 4.75 Z m 0,0"
           id="path19442" />
      </g>
      <g
         id="use8192"
         transform="translate(239.49103,684.88397)">
        <path
           style="stroke:none"
           d="M 1.90625,-4.203125 H 3.453125 V -4.84375 H 1.90625 v -1.390625 h -0.75 V -4.84375 H 0.203125 v 0.640625 H 1.125 v 2.90625 c 0,0.65625 0.15625,1.421875 0.90625,1.421875 0.765625,0 1.3125,-0.28125 1.59375,-0.421875 L 3.453125,-0.9375 C 3.15625,-0.703125 2.8125,-0.578125 2.46875,-0.578125 c -0.40625,0 -0.5625,-0.328125 -0.5625,-0.90625 z m 0,0"
           id="path19390" />
      </g>
      <g
         id="use8194"
         transform="translate(243.4303,684.88397)">
        <path
           style="stroke:none"
           d="m 4.359375,-3.15625 c 0,-1.109375 -0.796875,-1.875 -1.8125,-1.875 -0.703125,0 -1.1875,0.171875 -1.703125,0.46875 l 0.0625,0.71875 c 0.5625,-0.40625 1.109375,-0.546875 1.640625,-0.546875 0.515625,0 0.953125,0.4375 0.953125,1.25 v 0.46875 c -1.640625,0.015625 -3.015625,0.484375 -3.015625,1.4375 0,0.46875 0.296875,1.359375 1.234375,1.359375 0.15625,0 1.1875,-0.03125 1.8125,-0.515625 V 0 H 4.359375 Z M 3.5,-1.4375 c 0,0.203125 0,0.484375 -0.375,0.6875 -0.3125,0.1875 -0.71875,0.203125 -0.84375,0.203125 -0.53125,0 -1.015625,-0.25 -1.015625,-0.703125 0,-0.765625 1.765625,-0.84375 2.234375,-0.859375 z m 0,0"
           id="path19358" />
      </g>
      <g
         id="use8196"
         transform="translate(248.67322,684.88397)">
        <path
           style="stroke:none"
           d="M 1.90625,-4.203125 H 3.453125 V -4.84375 H 1.90625 v -1.390625 h -0.75 V -4.84375 H 0.203125 v 0.640625 H 1.125 v 2.90625 c 0,0.65625 0.15625,1.421875 0.90625,1.421875 0.765625,0 1.3125,-0.28125 1.59375,-0.421875 L 3.453125,-0.9375 C 3.15625,-0.703125 2.8125,-0.578125 2.46875,-0.578125 c -0.40625,0 -0.5625,-0.328125 -0.5625,-0.90625 z m 0,0"
           id="path19394" />
      </g>
      <g
         id="use8198"
         transform="translate(252.61249,684.88397)">
        <path
           style="stroke:none"
           d="M 1.78125,-7.421875 H 0.8125 v 0.96875 H 1.78125 Z M 1.703125,-4.84375 h -0.8125 V 0 h 0.8125 z m 0,0"
           id="path19318" />
      </g>
      <g
         id="use8200"
         transform="translate(255.21867,684.88397)">
        <path
           style="stroke:none"
           d="m 5.109375,-2.40625 c 0,-1.453125 -1.078125,-2.625 -2.390625,-2.625 -1.328125,0 -2.390625,1.203125 -2.390625,2.625 0,1.453125 1.109375,2.53125 2.390625,2.53125 1.3125,0 2.390625,-1.109375 2.390625,-2.53125 z M 2.71875,-0.578125 c -0.75,0 -1.546875,-0.609375 -1.546875,-1.9375 0,-1.3125 0.828125,-1.84375 1.546875,-1.84375 0.765625,0 1.546875,0.5625 1.546875,1.84375 0,1.296875 -0.75,1.9375 -1.546875,1.9375 z m 0,0"
           id="path19546" />
      </g>
      <g
         id="use8202"
         transform="translate(260.67322,684.88397)">
        <path
           style="stroke:none"
           d="m 4.75,-3.25 c 0,-0.71875 -0.171875,-1.71875 -1.5,-1.71875 -0.984375,0 -1.515625,0.75 -1.578125,0.828125 V -4.90625 H 0.890625 V 0 h 0.84375 v -2.671875 c 0,-0.71875 0.265625,-1.625 1.09375,-1.625 1.046875,0 1.0625,0.78125 1.0625,1.125 V 0 H 4.75 Z m 0,0"
           id="path19290" />
      </g>
    </g>
    <g
       style="fill:#000000;fill-opacity:1"
       id="g8208"
       transform="matrix(0.35277777,0,0,0.35277777,-40.041645,-198.07919)">
      <g
         id="use8206"
         transform="translate(269.94269,684.88397)">
        <path
           style="stroke:none"
           d="m 1.890625,-2.046875 -1.34375,1.34375 V 0 h 4.34375 V -0.78125 H 2.90625 c -0.125,0 -0.25,0.015625 -0.390625,0.015625 h -1.1875 c 0.34375,-0.296875 1.1875,-1.125 1.515625,-1.4375 0.203125,-0.203125 0.765625,-0.65625 0.96875,-0.84375 0.5,-0.5 1.078125,-1.078125 1.078125,-2 0,-1.25 -0.875,-2.34375 -2.3125,-2.34375 -1.25,0 -1.859375,0.84375 -2.125,1.78125 0.140625,0.1875 0.1875,0.25 0.21875,0.28125 C 0.6875,-5.296875 0.796875,-5.15625 0.90625,-5 1.125,-5.84375 1.421875,-6.703125 2.421875,-6.703125 3.453125,-6.703125 4,-5.875 4,-5.03125 c 0,0.9375 -0.625,1.546875 -1.265625,2.203125 z m 0,0"
           id="path19262" />
      </g>
    </g>
    <path
       style="fill:none;stroke:#000000;stroke-width:0.140582;stroke-linecap:butt;stroke-linejoin:miter;stroke-miterlimit:10;stroke-opacity:1"
       d="m 61.745768,45.563471 h 26.65125 v -5.9862 h -26.65125 z m 0,0"
       id="path8210" />
    <g
       style="fill:#000000;fill-opacity:1"
       id="g8234"
       transform="matrix(0.35277777,0,0,0.35277777,-40.041645,-198.07919)">
      <g
         id="use8212"
         transform="translate(292.16599,684.88397)">
        <path
           style="stroke:none"
           d="M 6.34375,-1.25 C 5.703125,-0.8125 5.328125,-0.59375 4.25,-0.59375 c -1.5625,0 -2.546875,-1.625 -2.546875,-3.203125 0,-1.484375 0.90625,-3.1875 2.578125,-3.1875 0.765625,0 1.265625,0.171875 1.859375,0.5625 L 6.296875,-7.3125 c -0.46875,-0.234375 -1.3125,-0.375 -2.015625,-0.375 -2.015625,0 -3.5625,1.703125 -3.5625,3.984375 0,1.734375 1.296875,3.828125 3.5625,3.828125 1.015625,0 1.421875,-0.171875 2.125,-0.609375 z m 0,0"
           id="path19598" />
      </g>
      <g
         id="use8214"
         transform="translate(299.13583,684.88397)">
        <path
           style="stroke:none"
           d="m 5.109375,-2.40625 c 0,-1.453125 -1.078125,-2.625 -2.390625,-2.625 -1.328125,0 -2.390625,1.203125 -2.390625,2.625 0,1.453125 1.109375,2.53125 2.390625,2.53125 1.3125,0 2.390625,-1.109375 2.390625,-2.53125 z M 2.71875,-0.578125 c -0.75,0 -1.546875,-0.609375 -1.546875,-1.9375 0,-1.3125 0.828125,-1.84375 1.546875,-1.84375 0.765625,0 1.546875,0.5625 1.546875,1.84375 0,1.296875 -0.75,1.9375 -1.546875,1.9375 z m 0,0"
           id="path19550" />
      </g>
      <g
         id="use8216"
         transform="translate(304.59036,684.88397)">
        <path
           style="stroke:none"
           d="m 7.78125,-3.25 c 0,-0.734375 -0.171875,-1.71875 -1.5,-1.71875 -0.65625,0 -1.21875,0.3125 -1.625,0.90625 C 4.375,-4.890625 3.609375,-4.96875 3.265625,-4.96875 c -0.796875,0 -1.296875,0.453125 -1.59375,0.84375 V -4.90625 H 0.890625 V 0 h 0.84375 v -2.671875 c 0,-0.734375 0.296875,-1.625 1.09375,-1.625 1.015625,0 1.078125,0.703125 1.078125,1.125 V 0 H 4.75 v -2.671875 c 0,-0.734375 0.296875,-1.625 1.109375,-1.625 1.015625,0 1.0625,0.703125 1.0625,1.125 V 0 H 7.78125 Z m 0,0"
           id="path19514" />
      </g>
      <g
         id="use8218"
         transform="translate(313.25656,684.88397)">
        <path
           style="stroke:none"
           d="m 1.75,-0.5 c 0.328125,0.3125 0.8125,0.625 1.46875,0.625 1.0625,0 2.015625,-1.078125 2.015625,-2.5625 0,-1.296875 -0.6875,-2.53125 -1.734375,-2.53125 -0.65625,0 -1.28125,0.234375 -1.78125,0.65625 V -4.84375 H 0.890625 V 2.109375 H 1.75 Z m 0,-3.125 C 2,-4.015625 2.4375,-4.265625 2.90625,-4.265625 c 0.828125,0 1.484375,0.828125 1.484375,1.828125 0,1.125 -0.78125,1.890625 -1.59375,1.890625 -0.4375,0 -0.71875,-0.21875 -0.9375,-0.515625 C 1.75,-1.21875 1.75,-1.25 1.75,-1.4375 Z m 0,0"
           id="path19486" />
      </g>
      <g
         id="use8220"
         transform="translate(318.89328,684.88397)">
        <path
           style="stroke:none"
           d="M 4.75,-4.84375 H 3.890625 v 3.171875 c 0,0.8125 -0.609375,1.1875 -1.3125,1.1875 -0.765625,0 -0.84375,-0.28125 -0.84375,-0.75 V -4.84375 h -0.84375 v 3.65625 c 0,0.78125 0.25,1.3125 1.15625,1.3125 0.578125,0 1.34375,-0.171875 1.875,-0.65625 V 0 H 4.75 Z m 0,0"
           id="path19446" />
      </g>
      <g
         id="use8222"
         transform="translate(324.53003,684.88397)">
        <path
           style="stroke:none"
           d="M 1.90625,-4.203125 H 3.453125 V -4.84375 H 1.90625 v -1.390625 h -0.75 V -4.84375 H 0.203125 v 0.640625 H 1.125 v 2.90625 c 0,0.65625 0.15625,1.421875 0.90625,1.421875 0.765625,0 1.3125,-0.28125 1.59375,-0.421875 L 3.453125,-0.9375 C 3.15625,-0.703125 2.8125,-0.578125 2.46875,-0.578125 c -0.40625,0 -0.5625,-0.328125 -0.5625,-0.90625 z m 0,0"
           id="path19398" />
      </g>
      <g
         id="use8224"
         transform="translate(328.4693,684.88397)">
        <path
           style="stroke:none"
           d="m 4.359375,-3.15625 c 0,-1.109375 -0.796875,-1.875 -1.8125,-1.875 -0.703125,0 -1.1875,0.171875 -1.703125,0.46875 l 0.0625,0.71875 c 0.5625,-0.40625 1.109375,-0.546875 1.640625,-0.546875 0.515625,0 0.953125,0.4375 0.953125,1.25 v 0.46875 c -1.640625,0.015625 -3.015625,0.484375 -3.015625,1.4375 0,0.46875 0.296875,1.359375 1.234375,1.359375 0.15625,0 1.1875,-0.03125 1.8125,-0.515625 V 0 H 4.359375 Z M 3.5,-1.4375 c 0,0.203125 0,0.484375 -0.375,0.6875 -0.3125,0.1875 -0.71875,0.203125 -0.84375,0.203125 -0.53125,0 -1.015625,-0.25 -1.015625,-0.703125 0,-0.765625 1.765625,-0.84375 2.234375,-0.859375 z m 0,0"
           id="path19362" />
      </g>
      <g
         id="use8226"
         transform="translate(333.71222,684.88397)">
        <path
           style="stroke:none"
           d="M 1.90625,-4.203125 H 3.453125 V -4.84375 H 1.90625 v -1.390625 h -0.75 V -4.84375 H 0.203125 v 0.640625 H 1.125 v 2.90625 c 0,0.65625 0.15625,1.421875 0.90625,1.421875 0.765625,0 1.3125,-0.28125 1.59375,-0.421875 L 3.453125,-0.9375 C 3.15625,-0.703125 2.8125,-0.578125 2.46875,-0.578125 c -0.40625,0 -0.5625,-0.328125 -0.5625,-0.90625 z m 0,0"
           id="path19402" />
      </g>
      <g
         id="use8228"
         transform="translate(337.65149,684.88397)">
        <path
           style="stroke:none"
           d="M 1.78125,-7.421875 H 0.8125 v 0.96875 H 1.78125 Z M 1.703125,-4.84375 h -0.8125 V 0 h 0.8125 z m 0,0"
           id="path19322" />
      </g>
      <g
         id="use8230"
         transform="translate(340.25769,684.88397)">
        <path
           style="stroke:none"
           d="m 5.109375,-2.40625 c 0,-1.453125 -1.078125,-2.625 -2.390625,-2.625 -1.328125,0 -2.390625,1.203125 -2.390625,2.625 0,1.453125 1.109375,2.53125 2.390625,2.53125 1.3125,0 2.390625,-1.109375 2.390625,-2.53125 z M 2.71875,-0.578125 c -0.75,0 -1.546875,-0.609375 -1.546875,-1.9375 0,-1.3125 0.828125,-1.84375 1.546875,-1.84375 0.765625,0 1.546875,0.5625 1.546875,1.84375 0,1.296875 -0.75,1.9375 -1.546875,1.9375 z m 0,0"
           id="path19554" />
      </g>
      <g
         id="use8232"
         transform="translate(345.71222,684.88397)">
        <path
           style="stroke:none"
           d="m 4.75,-3.25 c 0,-0.71875 -0.171875,-1.71875 -1.5,-1.71875 -0.984375,0 -1.515625,0.75 -1.578125,0.828125 V -4.90625 H 0.890625 V 0 h 0.84375 v -2.671875 c 0,-0.71875 0.265625,-1.625 1.09375,-1.625 1.046875,0 1.0625,0.78125 1.0625,1.125 V 0 H 4.75 Z m 0,0"
           id="path19294" />
      </g>
    </g>
    <g
       style="fill:#000000;fill-opacity:1"
       id="g8238"
       transform="matrix(0.35277777,0,0,0.35277777,-40.041645,-198.07919)">
      <g
         id="use8236"
         transform="translate(354.98169,684.88397)">
        <path
           style="stroke:none"
           d="m 1,-5.609375 c 0.3125,-0.765625 1.03125,-1.15625 1.6875,-1.15625 0.578125,0 1.109375,0.328125 1.109375,1.03125 0,0.65625 -0.453125,1.3125 -1.109375,1.453125 -0.0625,0.015625 -0.09375,0.015625 -0.859375,0.078125 V -3.53125 H 2.59375 c 1.1875,0 1.421875,1.015625 1.421875,1.5625 0,0.84375 -0.5,1.546875 -1.34375,1.546875 -0.75,0 -1.609375,-0.390625 -2.09375,-1.125 l -0.125,0.65625 C 1.25,0.125 2.25,0.234375 2.6875,0.234375 c 1.34375,0 2.296875,-1.046875 2.296875,-2.203125 0,-0.984375 -0.765625,-1.65625 -1.5,-1.890625 0.828125,-0.453125 1.203125,-1.1875 1.203125,-1.875 0,-0.9375 -0.90625,-1.65625 -1.984375,-1.65625 -0.84375,0 -1.640625,0.4375 -2.09375,1.203125 z m 0,0"
           id="path19250" />
      </g>
    </g>
    <path
       style="fill:none;stroke:#000000;stroke-width:0.140582;stroke-linecap:butt;stroke-linejoin:miter;stroke-miterlimit:10;stroke-opacity:1"
       d="m 91.747038,45.563471 h 26.649882 v -5.9862 H 91.747038 Z m 0,0"
       id="path8240" />
    <g
       style="fill:#000000;fill-opacity:1"
       id="g8264"
       transform="matrix(0.35277777,0,0,0.35277777,-40.041645,-198.07919)">
      <g
         id="use8242"
         transform="translate(377.20499,684.88397)">
        <path
           style="stroke:none"
           d="M 6.34375,-1.25 C 5.703125,-0.8125 5.328125,-0.59375 4.25,-0.59375 c -1.5625,0 -2.546875,-1.625 -2.546875,-3.203125 0,-1.484375 0.90625,-3.1875 2.578125,-3.1875 0.765625,0 1.265625,0.171875 1.859375,0.5625 L 6.296875,-7.3125 c -0.46875,-0.234375 -1.3125,-0.375 -2.015625,-0.375 -2.015625,0 -3.5625,1.703125 -3.5625,3.984375 0,1.734375 1.296875,3.828125 3.5625,3.828125 1.015625,0 1.421875,-0.171875 2.125,-0.609375 z m 0,0"
           id="path19602" />
      </g>
      <g
         id="use8244"
         transform="translate(384.17484,684.88397)">
        <path
           style="stroke:none"
           d="m 5.109375,-2.40625 c 0,-1.453125 -1.078125,-2.625 -2.390625,-2.625 -1.328125,0 -2.390625,1.203125 -2.390625,2.625 0,1.453125 1.109375,2.53125 2.390625,2.53125 1.3125,0 2.390625,-1.109375 2.390625,-2.53125 z M 2.71875,-0.578125 c -0.75,0 -1.546875,-0.609375 -1.546875,-1.9375 0,-1.3125 0.828125,-1.84375 1.546875,-1.84375 0.765625,0 1.546875,0.5625 1.546875,1.84375 0,1.296875 -0.75,1.9375 -1.546875,1.9375 z m 0,0"
           id="path19558" />
      </g>
      <g
         id="use8246"
         transform="translate(389.62936,684.88397)">
        <path
           style="stroke:none"
           d="m 7.78125,-3.25 c 0,-0.734375 -0.171875,-1.71875 -1.5,-1.71875 -0.65625,0 -1.21875,0.3125 -1.625,0.90625 C 4.375,-4.890625 3.609375,-4.96875 3.265625,-4.96875 c -0.796875,0 -1.296875,0.453125 -1.59375,0.84375 V -4.90625 H 0.890625 V 0 h 0.84375 v -2.671875 c 0,-0.734375 0.296875,-1.625 1.09375,-1.625 1.015625,0 1.078125,0.703125 1.078125,1.125 V 0 H 4.75 v -2.671875 c 0,-0.734375 0.296875,-1.625 1.109375,-1.625 1.015625,0 1.0625,0.703125 1.0625,1.125 V 0 H 7.78125 Z m 0,0"
           id="path19518" />
      </g>
      <g
         id="use8248"
         transform="translate(398.29556,684.88397)">
        <path
           style="stroke:none"
           d="m 1.75,-0.5 c 0.328125,0.3125 0.8125,0.625 1.46875,0.625 1.0625,0 2.015625,-1.078125 2.015625,-2.5625 0,-1.296875 -0.6875,-2.53125 -1.734375,-2.53125 -0.65625,0 -1.28125,0.234375 -1.78125,0.65625 V -4.84375 H 0.890625 V 2.109375 H 1.75 Z m 0,-3.125 C 2,-4.015625 2.4375,-4.265625 2.90625,-4.265625 c 0.828125,0 1.484375,0.828125 1.484375,1.828125 0,1.125 -0.78125,1.890625 -1.59375,1.890625 -0.4375,0 -0.71875,-0.21875 -0.9375,-0.515625 C 1.75,-1.21875 1.75,-1.25 1.75,-1.4375 Z m 0,0"
           id="path19490" />
      </g>
      <g
         id="use8250"
         transform="translate(403.93228,684.88397)">
        <path
           style="stroke:none"
           d="M 4.75,-4.84375 H 3.890625 v 3.171875 c 0,0.8125 -0.609375,1.1875 -1.3125,1.1875 -0.765625,0 -0.84375,-0.28125 -0.84375,-0.75 V -4.84375 h -0.84375 v 3.65625 c 0,0.78125 0.25,1.3125 1.15625,1.3125 0.578125,0 1.34375,-0.171875 1.875,-0.65625 V 0 H 4.75 Z m 0,0"
           id="path19450" />
      </g>
      <g
         id="use8252"
         transform="translate(409.56903,684.88397)">
        <path
           style="stroke:none"
           d="M 1.90625,-4.203125 H 3.453125 V -4.84375 H 1.90625 v -1.390625 h -0.75 V -4.84375 H 0.203125 v 0.640625 H 1.125 v 2.90625 c 0,0.65625 0.15625,1.421875 0.90625,1.421875 0.765625,0 1.3125,-0.28125 1.59375,-0.421875 L 3.453125,-0.9375 C 3.15625,-0.703125 2.8125,-0.578125 2.46875,-0.578125 c -0.40625,0 -0.5625,-0.328125 -0.5625,-0.90625 z m 0,0"
           id="path19406" />
      </g>
      <g
         id="use8254"
         transform="translate(413.5083,684.88397)">
        <path
           style="stroke:none"
           d="m 4.359375,-3.15625 c 0,-1.109375 -0.796875,-1.875 -1.8125,-1.875 -0.703125,0 -1.1875,0.171875 -1.703125,0.46875 l 0.0625,0.71875 c 0.5625,-0.40625 1.109375,-0.546875 1.640625,-0.546875 0.515625,0 0.953125,0.4375 0.953125,1.25 v 0.46875 c -1.640625,0.015625 -3.015625,0.484375 -3.015625,1.4375 0,0.46875 0.296875,1.359375 1.234375,1.359375 0.15625,0 1.1875,-0.03125 1.8125,-0.515625 V 0 H 4.359375 Z M 3.5,-1.4375 c 0,0.203125 0,0.484375 -0.375,0.6875 -0.3125,0.1875 -0.71875,0.203125 -0.84375,0.203125 -0.53125,0 -1.015625,-0.25 -1.015625,-0.703125 0,-0.765625 1.765625,-0.84375 2.234375,-0.859375 z m 0,0"
           id="path19366" />
      </g>
      <g
         id="use8256"
         transform="translate(418.75122,684.88397)">
        <path
           style="stroke:none"
           d="M 1.90625,-4.203125 H 3.453125 V -4.84375 H 1.90625 v -1.390625 h -0.75 V -4.84375 H 0.203125 v 0.640625 H 1.125 v 2.90625 c 0,0.65625 0.15625,1.421875 0.90625,1.421875 0.765625,0 1.3125,-0.28125 1.59375,-0.421875 L 3.453125,-0.9375 C 3.15625,-0.703125 2.8125,-0.578125 2.46875,-0.578125 c -0.40625,0 -0.5625,-0.328125 -0.5625,-0.90625 z m 0,0"
           id="path19410" />
      </g>
      <g
         id="use8258"
         transform="translate(422.69049,684.88397)">
        <path
           style="stroke:none"
           d="M 1.78125,-7.421875 H 0.8125 v 0.96875 H 1.78125 Z M 1.703125,-4.84375 h -0.8125 V 0 h 0.8125 z m 0,0"
           id="path19326" />
      </g>
      <g
         id="use8260"
         transform="translate(425.29666,684.88397)">
        <path
           style="stroke:none"
           d="m 5.109375,-2.40625 c 0,-1.453125 -1.078125,-2.625 -2.390625,-2.625 -1.328125,0 -2.390625,1.203125 -2.390625,2.625 0,1.453125 1.109375,2.53125 2.390625,2.53125 1.3125,0 2.390625,-1.109375 2.390625,-2.53125 z M 2.71875,-0.578125 c -0.75,0 -1.546875,-0.609375 -1.546875,-1.9375 0,-1.3125 0.828125,-1.84375 1.546875,-1.84375 0.765625,0 1.546875,0.5625 1.546875,1.84375 0,1.296875 -0.75,1.9375 -1.546875,1.9375 z m 0,0"
           id="path19562" />
      </g>
      <g
         id="use8262"
         transform="translate(430.75122,684.88397)">
        <path
           style="stroke:none"
           d="m 4.75,-3.25 c 0,-0.71875 -0.171875,-1.71875 -1.5,-1.71875 -0.984375,0 -1.515625,0.75 -1.578125,0.828125 V -4.90625 H 0.890625 V 0 h 0.84375 v -2.671875 c 0,-0.71875 0.265625,-1.625 1.09375,-1.625 1.046875,0 1.0625,0.78125 1.0625,1.125 V 0 H 4.75 Z m 0,0"
           id="path19298" />
      </g>
    </g>
    <g
       style="fill:#000000;fill-opacity:1"
       id="g8268"
       transform="matrix(0.35277777,0,0,0.35277777,-40.041645,-198.07919)">
      <g
         id="use8266"
         transform="translate(440.02069,684.88397)">
        <path
           style="stroke:none"
           d="M 4.0625,-1.859375 H 5.140625 V -2.53125 H 4.0625 v -4.625 h -1 l -2.75,4.625 v 0.671875 H 3.203125 V 0 H 4.0625 Z M 1.15625,-2.53125 c 0.5625,-0.9375 2.109375,-3.515625 2.109375,-4.140625 v 4.140625 z m 0,0"
           id="path19238" />
      </g>
    </g>
    <path
       style="fill:none;stroke:#000000;stroke-width:0.140582;stroke-linecap:butt;stroke-linejoin:miter;stroke-miterlimit:10;stroke-dasharray:1.05439, 1.05439;stroke-opacity:1"
       d="m 5.565906,25.777601 h 49.009927 v -6.41477 H 5.565906 Z m 0,0"
       id="path8270" />
    <g
       style="fill:#000000;fill-opacity:1"
       id="g8290"
       transform="matrix(0.35277777,0,0,0.35277777,-40.041645,-198.07919)">
      <g
         id="use8272"
         transform="translate(132.918,628.19098)">
        <path
           style="stroke:none"
           d="m 4.5625,-3.5625 c 1.125,-0.3125 1.859375,-1.09375 1.859375,-1.984375 0,-1.078125 -1.1875,-2.015625 -2.75,-2.015625 h -2.625 V 0 h 0.9375 v -3.453125 h 1.71875 L 5.765625,0 h 0.96875 z M 1.984375,-4.125 V -6.953125 H 3.5625 c 1.265625,0 1.984375,0.640625 1.984375,1.40625 0,0.78125 -0.703125,1.421875 -1.984375,1.421875 z m 0,0"
           id="path19226" />
      </g>
      <g
         id="use8274"
         transform="translate(139.9631,628.19098)">
        <path
           style="stroke:none"
           d="m 4.515625,-2.390625 c 0,-0.375 -0.015625,-1.1875 -0.4375,-1.84375 C 3.625,-4.90625 2.96875,-5.03125 2.578125,-5.03125 c -1.21875,0 -2.203125,1.15625 -2.203125,2.5625 0,1.4375 1.046875,2.59375 2.359375,2.59375 0.6875,0 1.3125,-0.265625 1.734375,-0.578125 L 4.40625,-1.15625 C 3.71875,-0.59375 3,-0.546875 2.75,-0.546875 c -0.875,0 -1.578125,-0.765625 -1.609375,-1.84375 z m -3.3125,-0.59375 c 0.171875,-0.828125 0.75,-1.375 1.375,-1.375 0.5625,0 1.171875,0.375 1.3125,1.375 z m 0,0"
           id="path19202" />
      </g>
      <g
         id="use8276"
         transform="translate(144.8111,628.19098)">
        <path
           style="stroke:none"
           d="M 4.46875,-4.5625 C 3.828125,-4.921875 3.453125,-5.03125 2.796875,-5.03125 c -1.515625,0 -2.40625,1.328125 -2.40625,2.609375 0,1.359375 1,2.546875 2.359375,2.546875 0.59375,0 1.1875,-0.15625 1.78125,-0.5625 L 4.453125,-1.171875 c -0.546875,0.4375 -1.140625,0.59375 -1.6875,0.59375 -0.90625,0 -1.515625,-0.78125 -1.515625,-1.859375 0,-0.84375 0.390625,-1.890625 1.546875,-1.890625 0.578125,0 0.9375,0.078125 1.546875,0.484375 z m 0,0"
           id="path19190" />
      </g>
      <g
         id="use8278"
         transform="translate(149.6591,628.19098)">
        <path
           style="stroke:none"
           d="M 4.75,-4.84375 H 3.890625 v 3.171875 c 0,0.8125 -0.609375,1.1875 -1.3125,1.1875 -0.765625,0 -0.84375,-0.28125 -0.84375,-0.75 V -4.84375 h -0.84375 v 3.65625 c 0,0.78125 0.25,1.3125 1.15625,1.3125 0.578125,0 1.34375,-0.171875 1.875,-0.65625 V 0 H 4.75 Z m 0,0"
           id="path19454" />
      </g>
      <g
         id="use8280"
         transform="translate(155.29584,628.19098)">
        <path
           style="stroke:none"
           d="m 1.71875,-2.328125 c 0,-1.09375 0.78125,-1.875 1.84375,-1.90625 V -4.96875 C 2.59375,-4.953125 2,-4.421875 1.65625,-3.921875 V -4.90625 H 0.890625 V 0 H 1.71875 Z m 0,0"
           id="path19178" />
      </g>
      <g
         id="use8282"
         transform="translate(159.02348,628.19098)">
        <path
           style="stroke:none"
           d="M 3.734375,-4.671875 C 3.171875,-4.9375 2.71875,-5.03125 2.171875,-5.03125 c -0.28125,0 -1.8125,0 -1.8125,1.4375 0,0.53125 0.3125,0.875 0.59375,1.078125 0.328125,0.25 0.578125,0.296875 1.171875,0.40625 0.390625,0.078125 1.03125,0.21875 1.03125,0.796875 0,0.75 -0.859375,0.75 -1.03125,0.75 -0.875,0 -1.5,-0.40625 -1.6875,-0.53125 l -0.125,0.734375 C 0.65625,-0.1875 1.25,0.125 2.140625,0.125 c 0.1875,0 0.796875,0 1.265625,-0.359375 0.328125,-0.25 0.515625,-0.6875 0.515625,-1.15625 C 3.921875,-2 3.515625,-2.359375 3.5,-2.40625 3.078125,-2.78125 2.78125,-2.84375 2.234375,-2.9375 c -0.59375,-0.125 -1.09375,-0.234375 -1.09375,-0.765625 0,-0.6875 0.78125,-0.6875 0.921875,-0.6875 0.34375,0 0.921875,0.046875 1.546875,0.421875 z m 0,0"
           id="path19166" />
      </g>
      <g
         id="use8284"
         transform="translate(163.20494,628.19098)">
        <path
           style="stroke:none"
           d="M 1.78125,-7.421875 H 0.8125 v 0.96875 H 1.78125 Z M 1.703125,-4.84375 h -0.8125 V 0 h 0.8125 z m 0,0"
           id="path19330" />
      </g>
      <g
         id="use8286"
         transform="translate(165.81111,628.19098)">
        <path
           style="stroke:none"
           d="m 4.859375,-4.84375 h -0.8125 L 3.1875,-2.578125 c -0.234375,0.609375 -0.5625,1.484375 -0.65625,2 H 2.515625 C 2.453125,-0.96875 2.171875,-1.71875 2.0625,-2.015625 L 1,-4.84375 H 0.15625 L 2.03125,0 h 0.953125 z m 0,0"
           id="path19154" />
      </g>
      <g
         id="use8288"
         transform="translate(170.84131,628.19098)">
        <path
           style="stroke:none"
           d="m 4.515625,-2.390625 c 0,-0.375 -0.015625,-1.1875 -0.4375,-1.84375 C 3.625,-4.90625 2.96875,-5.03125 2.578125,-5.03125 c -1.21875,0 -2.203125,1.15625 -2.203125,2.5625 0,1.4375 1.046875,2.59375 2.359375,2.59375 0.6875,0 1.3125,-0.265625 1.734375,-0.578125 L 4.40625,-1.15625 C 3.71875,-0.59375 3,-0.546875 2.75,-0.546875 c -0.875,0 -1.578125,-0.765625 -1.609375,-1.84375 z m -3.3125,-0.59375 c 0.171875,-0.828125 0.75,-1.375 1.375,-1.375 0.5625,0 1.171875,0.375 1.3125,1.375 z m 0,0"
           id="path19206" />
      </g>
    </g>
    <g
       style="fill:#000000;fill-opacity:1"
       id="g8314"
       transform="matrix(0.35277777,0,0,0.35277777,-40.041645,-198.07919)">
      <g
         id="use8292"
         transform="translate(179.32204,628.19098)">
        <path
           style="stroke:none"
           d="M 6.34375,-1.25 C 5.703125,-0.8125 5.328125,-0.59375 4.25,-0.59375 c -1.5625,0 -2.546875,-1.625 -2.546875,-3.203125 0,-1.484375 0.90625,-3.1875 2.578125,-3.1875 0.765625,0 1.265625,0.171875 1.859375,0.5625 L 6.296875,-7.3125 c -0.46875,-0.234375 -1.3125,-0.375 -2.015625,-0.375 -2.015625,0 -3.5625,1.703125 -3.5625,3.984375 0,1.734375 1.296875,3.828125 3.5625,3.828125 1.015625,0 1.421875,-0.171875 2.125,-0.609375 z m 0,0"
           id="path19606" />
      </g>
      <g
         id="use8294"
         transform="translate(186.29187,628.19098)">
        <path
           style="stroke:none"
           d="m 5.109375,-2.40625 c 0,-1.453125 -1.078125,-2.625 -2.390625,-2.625 -1.328125,0 -2.390625,1.203125 -2.390625,2.625 0,1.453125 1.109375,2.53125 2.390625,2.53125 1.3125,0 2.390625,-1.109375 2.390625,-2.53125 z M 2.71875,-0.578125 c -0.75,0 -1.546875,-0.609375 -1.546875,-1.9375 0,-1.3125 0.828125,-1.84375 1.546875,-1.84375 0.765625,0 1.546875,0.5625 1.546875,1.84375 0,1.296875 -0.75,1.9375 -1.546875,1.9375 z m 0,0"
           id="path19566" />
      </g>
      <g
         id="use8296"
         transform="translate(191.74641,628.19098)">
        <path
           style="stroke:none"
           d="m 7.78125,-3.25 c 0,-0.734375 -0.171875,-1.71875 -1.5,-1.71875 -0.65625,0 -1.21875,0.3125 -1.625,0.90625 C 4.375,-4.890625 3.609375,-4.96875 3.265625,-4.96875 c -0.796875,0 -1.296875,0.453125 -1.59375,0.84375 V -4.90625 H 0.890625 V 0 h 0.84375 v -2.671875 c 0,-0.734375 0.296875,-1.625 1.09375,-1.625 1.015625,0 1.078125,0.703125 1.078125,1.125 V 0 H 4.75 v -2.671875 c 0,-0.734375 0.296875,-1.625 1.109375,-1.625 1.015625,0 1.0625,0.703125 1.0625,1.125 V 0 H 7.78125 Z m 0,0"
           id="path19522" />
      </g>
      <g
         id="use8298"
         transform="translate(200.4126,628.19098)">
        <path
           style="stroke:none"
           d="m 1.75,-0.5 c 0.328125,0.3125 0.8125,0.625 1.46875,0.625 1.0625,0 2.015625,-1.078125 2.015625,-2.5625 0,-1.296875 -0.6875,-2.53125 -1.734375,-2.53125 -0.65625,0 -1.28125,0.234375 -1.78125,0.65625 V -4.84375 H 0.890625 V 2.109375 H 1.75 Z m 0,-3.125 C 2,-4.015625 2.4375,-4.265625 2.90625,-4.265625 c 0.828125,0 1.484375,0.828125 1.484375,1.828125 0,1.125 -0.78125,1.890625 -1.59375,1.890625 -0.4375,0 -0.71875,-0.21875 -0.9375,-0.515625 C 1.75,-1.21875 1.75,-1.25 1.75,-1.4375 Z m 0,0"
           id="path19494" />
      </g>
      <g
         id="use8300"
         transform="translate(206.04933,628.19098)">
        <path
           style="stroke:none"
           d="M 4.75,-4.84375 H 3.890625 v 3.171875 c 0,0.8125 -0.609375,1.1875 -1.3125,1.1875 -0.765625,0 -0.84375,-0.28125 -0.84375,-0.75 V -4.84375 h -0.84375 v 3.65625 c 0,0.78125 0.25,1.3125 1.15625,1.3125 0.578125,0 1.34375,-0.171875 1.875,-0.65625 V 0 H 4.75 Z m 0,0"
           id="path19458" />
      </g>
      <g
         id="use8302"
         transform="translate(211.68607,628.19098)">
        <path
           style="stroke:none"
           d="M 1.90625,-4.203125 H 3.453125 V -4.84375 H 1.90625 v -1.390625 h -0.75 V -4.84375 H 0.203125 v 0.640625 H 1.125 v 2.90625 c 0,0.65625 0.15625,1.421875 0.90625,1.421875 0.765625,0 1.3125,-0.28125 1.59375,-0.421875 L 3.453125,-0.9375 C 3.15625,-0.703125 2.8125,-0.578125 2.46875,-0.578125 c -0.40625,0 -0.5625,-0.328125 -0.5625,-0.90625 z m 0,0"
           id="path19414" />
      </g>
      <g
         id="use8304"
         transform="translate(215.62534,628.19098)">
        <path
           style="stroke:none"
           d="m 4.359375,-3.15625 c 0,-1.109375 -0.796875,-1.875 -1.8125,-1.875 -0.703125,0 -1.1875,0.171875 -1.703125,0.46875 l 0.0625,0.71875 c 0.5625,-0.40625 1.109375,-0.546875 1.640625,-0.546875 0.515625,0 0.953125,0.4375 0.953125,1.25 v 0.46875 c -1.640625,0.015625 -3.015625,0.484375 -3.015625,1.4375 0,0.46875 0.296875,1.359375 1.234375,1.359375 0.15625,0 1.1875,-0.03125 1.8125,-0.515625 V 0 H 4.359375 Z M 3.5,-1.4375 c 0,0.203125 0,0.484375 -0.375,0.6875 -0.3125,0.1875 -0.71875,0.203125 -0.84375,0.203125 -0.53125,0 -1.015625,-0.25 -1.015625,-0.703125 0,-0.765625 1.765625,-0.84375 2.234375,-0.859375 z m 0,0"
           id="path19370" />
      </g>
      <g
         id="use8306"
         transform="translate(220.86826,628.19098)">
        <path
           style="stroke:none"
           d="M 1.90625,-4.203125 H 3.453125 V -4.84375 H 1.90625 v -1.390625 h -0.75 V -4.84375 H 0.203125 v 0.640625 H 1.125 v 2.90625 c 0,0.65625 0.15625,1.421875 0.90625,1.421875 0.765625,0 1.3125,-0.28125 1.59375,-0.421875 L 3.453125,-0.9375 C 3.15625,-0.703125 2.8125,-0.578125 2.46875,-0.578125 c -0.40625,0 -0.5625,-0.328125 -0.5625,-0.90625 z m 0,0"
           id="path19418" />
      </g>
      <g
         id="use8308"
         transform="translate(224.80753,628.19098)">
        <path
           style="stroke:none"
           d="M 1.78125,-7.421875 H 0.8125 v 0.96875 H 1.78125 Z M 1.703125,-4.84375 h -0.8125 V 0 h 0.8125 z m 0,0"
           id="path19334" />
      </g>
      <g
         id="use8310"
         transform="translate(227.41371,628.19098)">
        <path
           style="stroke:none"
           d="m 5.109375,-2.40625 c 0,-1.453125 -1.078125,-2.625 -2.390625,-2.625 -1.328125,0 -2.390625,1.203125 -2.390625,2.625 0,1.453125 1.109375,2.53125 2.390625,2.53125 1.3125,0 2.390625,-1.109375 2.390625,-2.53125 z M 2.71875,-0.578125 c -0.75,0 -1.546875,-0.609375 -1.546875,-1.9375 0,-1.3125 0.828125,-1.84375 1.546875,-1.84375 0.765625,0 1.546875,0.5625 1.546875,1.84375 0,1.296875 -0.75,1.9375 -1.546875,1.9375 z m 0,0"
           id="path19570" />
      </g>
      <g
         id="use8312"
         transform="translate(232.86827,628.19098)">
        <path
           style="stroke:none"
           d="m 4.75,-3.25 c 0,-0.71875 -0.171875,-1.71875 -1.5,-1.71875 -0.984375,0 -1.515625,0.75 -1.578125,0.828125 V -4.90625 H 0.890625 V 0 h 0.84375 v -2.671875 c 0,-0.71875 0.265625,-1.625 1.09375,-1.625 1.046875,0 1.0625,0.78125 1.0625,1.125 V 0 H 4.75 Z m 0,0"
           id="path19302" />
      </g>
    </g>
    <g
       style="fill:#000000;fill-opacity:1"
       id="g8326"
       transform="matrix(0.35277777,0,0,0.35277777,-40.041645,-198.07919)">
      <g
         id="use8316"
         transform="translate(242.14864,628.19098)">
        <path
           style="stroke:none"
           d="M 2.953125,-8.171875 C 2.609375,-7.859375 1.875,-7.1875 1.375,-5.84375 c -0.4375,1.171875 -0.515625,2.328125 -0.515625,3.125 0,3.515625 1.578125,4.96875 2.09375,5.4375 H 3.625 C 3.09375,2.203125 1.71875,0.796875 1.71875,-2.71875 c 0,-0.625 0.03125,-1.890625 0.46875,-3.1875 0.453125,-1.265625 1.078125,-1.90625 1.4375,-2.265625 z m 0,0"
           id="path19142" />
      </g>
      <g
         id="use8318"
         transform="translate(246.39119,628.19098)">
        <path
           style="stroke:none"
           d="M 3.265625,-7.390625 H 3.046875 C 2.40625,-6.734375 1.5,-6.703125 0.96875,-6.671875 v 0.625 c 0.359375,0 0.890625,-0.03125 1.4375,-0.25 V -0.625 h -1.375 V 0 H 4.625 V -0.625 H 3.265625 Z m 0,0"
           id="path19278" />
      </g>
      <g
         id="use8320"
         transform="translate(251.84573,628.19098)">
        <path
           style="stroke:none"
           d="M 1.96875,-0.015625 V -0.90625 H 1.0625 V 0 H 1.328125 L 1.0625,1.359375 H 1.5 Z m 0,0"
           id="path19122" />
      </g>
      <g
         id="use8322"
         transform="translate(254.87628,628.19098)">
        <path
           style="stroke:none"
           d="m 1.890625,-2.046875 -1.34375,1.34375 V 0 h 4.34375 V -0.78125 H 2.90625 c -0.125,0 -0.25,0.015625 -0.390625,0.015625 h -1.1875 c 0.34375,-0.296875 1.1875,-1.125 1.515625,-1.4375 0.203125,-0.203125 0.765625,-0.65625 0.96875,-0.84375 0.5,-0.5 1.078125,-1.078125 1.078125,-2 0,-1.25 -0.875,-2.34375 -2.3125,-2.34375 -1.25,0 -1.859375,0.84375 -2.125,1.78125 0.140625,0.1875 0.1875,0.25 0.21875,0.28125 C 0.6875,-5.296875 0.796875,-5.15625 0.90625,-5 1.125,-5.84375 1.421875,-6.703125 2.421875,-6.703125 3.453125,-6.703125 4,-5.875 4,-5.03125 c 0,0.9375 -0.625,1.546875 -1.265625,2.203125 z m 0,0"
           id="path19266" />
      </g>
      <g
         id="use8324"
         transform="translate(260.33084,628.19098)">
        <path
           style="stroke:none"
           d="M 1.28125,2.71875 C 1.625,2.40625 2.359375,1.734375 2.859375,0.390625 3.296875,-0.78125 3.375,-1.9375 3.375,-2.71875 3.375,-6.25 1.796875,-7.703125 1.28125,-8.171875 H 0.609375 c 0.53125,0.515625 1.90625,1.921875 1.90625,5.453125 0,0.609375 -0.03125,1.875 -0.46875,3.171875 C 1.59375,1.71875 0.96875,2.359375 0.609375,2.71875 Z m 0,0"
           id="path19110" />
      </g>
    </g>
    <path
       style="fill:none;stroke:#000000;stroke-width:0.140582;stroke-linecap:butt;stroke-linejoin:miter;stroke-miterlimit:10;stroke-dasharray:1.05439, 1.05439;stroke-opacity:1"
       d="m 65.567068,25.777601 h 49.009922 v -6.41477 H 65.567068 Z m 0,0"
       id="path8328" />
    <g
       style="fill:#000000;fill-opacity:1"
       id="g8348"
       transform="matrix(0.35277777,0,0,0.35277777,-40.041645,-198.07919)">
      <g
         id="use8330"
         transform="translate(302.996,628.19098)">
        <path
           style="stroke:none"
           d="m 4.5625,-3.5625 c 1.125,-0.3125 1.859375,-1.09375 1.859375,-1.984375 0,-1.078125 -1.1875,-2.015625 -2.75,-2.015625 h -2.625 V 0 h 0.9375 v -3.453125 h 1.71875 L 5.765625,0 h 0.96875 z M 1.984375,-4.125 V -6.953125 H 3.5625 c 1.265625,0 1.984375,0.640625 1.984375,1.40625 0,0.78125 -0.703125,1.421875 -1.984375,1.421875 z m 0,0"
           id="path19230" />
      </g>
      <g
         id="use8332"
         transform="translate(310.04111,628.19098)">
        <path
           style="stroke:none"
           d="m 4.515625,-2.390625 c 0,-0.375 -0.015625,-1.1875 -0.4375,-1.84375 C 3.625,-4.90625 2.96875,-5.03125 2.578125,-5.03125 c -1.21875,0 -2.203125,1.15625 -2.203125,2.5625 0,1.4375 1.046875,2.59375 2.359375,2.59375 0.6875,0 1.3125,-0.265625 1.734375,-0.578125 L 4.40625,-1.15625 C 3.71875,-0.59375 3,-0.546875 2.75,-0.546875 c -0.875,0 -1.578125,-0.765625 -1.609375,-1.84375 z m -3.3125,-0.59375 c 0.171875,-0.828125 0.75,-1.375 1.375,-1.375 0.5625,0 1.171875,0.375 1.3125,1.375 z m 0,0"
           id="path19210" />
      </g>
      <g
         id="use8334"
         transform="translate(314.8891,628.19098)">
        <path
           style="stroke:none"
           d="M 4.46875,-4.5625 C 3.828125,-4.921875 3.453125,-5.03125 2.796875,-5.03125 c -1.515625,0 -2.40625,1.328125 -2.40625,2.609375 0,1.359375 1,2.546875 2.359375,2.546875 0.59375,0 1.1875,-0.15625 1.78125,-0.5625 L 4.453125,-1.171875 c -0.546875,0.4375 -1.140625,0.59375 -1.6875,0.59375 -0.90625,0 -1.515625,-0.78125 -1.515625,-1.859375 0,-0.84375 0.390625,-1.890625 1.546875,-1.890625 0.578125,0 0.9375,0.078125 1.546875,0.484375 z m 0,0"
           id="path19194" />
      </g>
      <g
         id="use8336"
         transform="translate(319.73709,628.19098)">
        <path
           style="stroke:none"
           d="M 4.75,-4.84375 H 3.890625 v 3.171875 c 0,0.8125 -0.609375,1.1875 -1.3125,1.1875 -0.765625,0 -0.84375,-0.28125 -0.84375,-0.75 V -4.84375 h -0.84375 v 3.65625 c 0,0.78125 0.25,1.3125 1.15625,1.3125 0.578125,0 1.34375,-0.171875 1.875,-0.65625 V 0 H 4.75 Z m 0,0"
           id="path19462" />
      </g>
      <g
         id="use8338"
         transform="translate(325.37384,628.19098)">
        <path
           style="stroke:none"
           d="m 1.71875,-2.328125 c 0,-1.09375 0.78125,-1.875 1.84375,-1.90625 V -4.96875 C 2.59375,-4.953125 2,-4.421875 1.65625,-3.921875 V -4.90625 H 0.890625 V 0 H 1.71875 Z m 0,0"
           id="path19182" />
      </g>
      <g
         id="use8340"
         transform="translate(329.10147,628.19098)">
        <path
           style="stroke:none"
           d="M 3.734375,-4.671875 C 3.171875,-4.9375 2.71875,-5.03125 2.171875,-5.03125 c -0.28125,0 -1.8125,0 -1.8125,1.4375 0,0.53125 0.3125,0.875 0.59375,1.078125 0.328125,0.25 0.578125,0.296875 1.171875,0.40625 0.390625,0.078125 1.03125,0.21875 1.03125,0.796875 0,0.75 -0.859375,0.75 -1.03125,0.75 -0.875,0 -1.5,-0.40625 -1.6875,-0.53125 l -0.125,0.734375 C 0.65625,-0.1875 1.25,0.125 2.140625,0.125 c 0.1875,0 0.796875,0 1.265625,-0.359375 0.328125,-0.25 0.515625,-0.6875 0.515625,-1.15625 C 3.921875,-2 3.515625,-2.359375 3.5,-2.40625 3.078125,-2.78125 2.78125,-2.84375 2.234375,-2.9375 c -0.59375,-0.125 -1.09375,-0.234375 -1.09375,-0.765625 0,-0.6875 0.78125,-0.6875 0.921875,-0.6875 0.34375,0 0.921875,0.046875 1.546875,0.421875 z m 0,0"
           id="path19170" />
      </g>
      <g
         id="use8342"
         transform="translate(333.28293,628.19098)">
        <path
           style="stroke:none"
           d="M 1.78125,-7.421875 H 0.8125 v 0.96875 H 1.78125 Z M 1.703125,-4.84375 h -0.8125 V 0 h 0.8125 z m 0,0"
           id="path19338" />
      </g>
      <g
         id="use8344"
         transform="translate(335.88913,628.19098)">
        <path
           style="stroke:none"
           d="m 4.859375,-4.84375 h -0.8125 L 3.1875,-2.578125 c -0.234375,0.609375 -0.5625,1.484375 -0.65625,2 H 2.515625 C 2.453125,-0.96875 2.171875,-1.71875 2.0625,-2.015625 L 1,-4.84375 H 0.15625 L 2.03125,0 h 0.953125 z m 0,0"
           id="path19158" />
      </g>
      <g
         id="use8346"
         transform="translate(340.91931,628.19098)">
        <path
           style="stroke:none"
           d="m 4.515625,-2.390625 c 0,-0.375 -0.015625,-1.1875 -0.4375,-1.84375 C 3.625,-4.90625 2.96875,-5.03125 2.578125,-5.03125 c -1.21875,0 -2.203125,1.15625 -2.203125,2.5625 0,1.4375 1.046875,2.59375 2.359375,2.59375 0.6875,0 1.3125,-0.265625 1.734375,-0.578125 L 4.40625,-1.15625 C 3.71875,-0.59375 3,-0.546875 2.75,-0.546875 c -0.875,0 -1.578125,-0.765625 -1.609375,-1.84375 z m -3.3125,-0.59375 c 0.171875,-0.828125 0.75,-1.375 1.375,-1.375 0.5625,0 1.171875,0.375 1.3125,1.375 z m 0,0"
           id="path19214" />
      </g>
    </g>
    <g
       style="fill:#000000;fill-opacity:1"
       id="g8352"
       transform="matrix(0.35277777,0,0,0.35277777,-40.041645,-198.07919)">
      <g
         id="use8350"
         transform="translate(349.41095,628.19098)">
        <path
           style="stroke:none"
           d="M 6.34375,-1.25 C 5.703125,-0.8125 5.328125,-0.59375 4.25,-0.59375 c -1.5625,0 -2.546875,-1.625 -2.546875,-3.203125 0,-1.484375 0.90625,-3.1875 2.578125,-3.1875 0.765625,0 1.265625,0.171875 1.859375,0.5625 L 6.296875,-7.3125 c -0.46875,-0.234375 -1.3125,-0.375 -2.015625,-0.375 -2.015625,0 -3.5625,1.703125 -3.5625,3.984375 0,1.734375 1.296875,3.828125 3.5625,3.828125 1.015625,0 1.421875,-0.171875 2.125,-0.609375 z m 0,0"
           id="path19610" />
      </g>
    </g>
    <g
       style="fill:#000000;fill-opacity:1"
       id="g8358"
       transform="matrix(0.35277777,0,0,0.35277777,-40.041645,-198.07919)">
      <g
         id="use8354"
         transform="translate(356.36987,628.19098)">
        <path
           style="stroke:none"
           d="m 5.109375,-2.40625 c 0,-1.453125 -1.078125,-2.625 -2.390625,-2.625 -1.328125,0 -2.390625,1.203125 -2.390625,2.625 0,1.453125 1.109375,2.53125 2.390625,2.53125 1.3125,0 2.390625,-1.109375 2.390625,-2.53125 z M 2.71875,-0.578125 c -0.75,0 -1.546875,-0.609375 -1.546875,-1.9375 0,-1.3125 0.828125,-1.84375 1.546875,-1.84375 0.765625,0 1.546875,0.5625 1.546875,1.84375 0,1.296875 -0.75,1.9375 -1.546875,1.9375 z m 0,0"
           id="path19574" />
      </g>
      <g
         id="use8356"
         transform="translate(361.8244,628.19098)">
        <path
           style="stroke:none"
           d="m 7.78125,-3.25 c 0,-0.734375 -0.171875,-1.71875 -1.5,-1.71875 -0.65625,0 -1.21875,0.3125 -1.625,0.90625 C 4.375,-4.890625 3.609375,-4.96875 3.265625,-4.96875 c -0.796875,0 -1.296875,0.453125 -1.59375,0.84375 V -4.90625 H 0.890625 V 0 h 0.84375 v -2.671875 c 0,-0.734375 0.296875,-1.625 1.09375,-1.625 1.015625,0 1.078125,0.703125 1.078125,1.125 V 0 H 4.75 v -2.671875 c 0,-0.734375 0.296875,-1.625 1.109375,-1.625 1.015625,0 1.0625,0.703125 1.0625,1.125 V 0 H 7.78125 Z m 0,0"
           id="path19526" />
      </g>
    </g>
    <g
       style="fill:#000000;fill-opacity:1"
       id="g8364"
       transform="matrix(0.35277777,0,0,0.35277777,-40.041645,-198.07919)">
      <g
         id="use8360"
         transform="translate(370.50153,628.19098)">
        <path
           style="stroke:none"
           d="m 1.75,-0.5 c 0.328125,0.3125 0.8125,0.625 1.46875,0.625 1.0625,0 2.015625,-1.078125 2.015625,-2.5625 0,-1.296875 -0.6875,-2.53125 -1.734375,-2.53125 -0.65625,0 -1.28125,0.234375 -1.78125,0.65625 V -4.84375 H 0.890625 V 2.109375 H 1.75 Z m 0,-3.125 C 2,-4.015625 2.4375,-4.265625 2.90625,-4.265625 c 0.828125,0 1.484375,0.828125 1.484375,1.828125 0,1.125 -0.78125,1.890625 -1.59375,1.890625 -0.4375,0 -0.71875,-0.21875 -0.9375,-0.515625 C 1.75,-1.21875 1.75,-1.25 1.75,-1.4375 Z m 0,0"
           id="path19498" />
      </g>
      <g
         id="use8362"
         transform="translate(376.13824,628.19098)">
        <path
           style="stroke:none"
           d="M 4.75,-4.84375 H 3.890625 v 3.171875 c 0,0.8125 -0.609375,1.1875 -1.3125,1.1875 -0.765625,0 -0.84375,-0.28125 -0.84375,-0.75 V -4.84375 h -0.84375 v 3.65625 c 0,0.78125 0.25,1.3125 1.15625,1.3125 0.578125,0 1.34375,-0.171875 1.875,-0.65625 V 0 H 4.75 Z m 0,0"
           id="path19466" />
      </g>
    </g>
    <g
       style="fill:#000000;fill-opacity:1"
       id="g8378"
       transform="matrix(0.35277777,0,0,0.35277777,-40.041645,-198.07919)">
      <g
         id="use8366"
         transform="translate(381.76407,628.19098)">
        <path
           style="stroke:none"
           d="M 1.90625,-4.203125 H 3.453125 V -4.84375 H 1.90625 v -1.390625 h -0.75 V -4.84375 H 0.203125 v 0.640625 H 1.125 v 2.90625 c 0,0.65625 0.15625,1.421875 0.90625,1.421875 0.765625,0 1.3125,-0.28125 1.59375,-0.421875 L 3.453125,-0.9375 C 3.15625,-0.703125 2.8125,-0.578125 2.46875,-0.578125 c -0.40625,0 -0.5625,-0.328125 -0.5625,-0.90625 z m 0,0"
           id="path19422" />
      </g>
      <g
         id="use8368"
         transform="translate(385.70334,628.19098)">
        <path
           style="stroke:none"
           d="m 4.359375,-3.15625 c 0,-1.109375 -0.796875,-1.875 -1.8125,-1.875 -0.703125,0 -1.1875,0.171875 -1.703125,0.46875 l 0.0625,0.71875 c 0.5625,-0.40625 1.109375,-0.546875 1.640625,-0.546875 0.515625,0 0.953125,0.4375 0.953125,1.25 v 0.46875 c -1.640625,0.015625 -3.015625,0.484375 -3.015625,1.4375 0,0.46875 0.296875,1.359375 1.234375,1.359375 0.15625,0 1.1875,-0.03125 1.8125,-0.515625 V 0 H 4.359375 Z M 3.5,-1.4375 c 0,0.203125 0,0.484375 -0.375,0.6875 -0.3125,0.1875 -0.71875,0.203125 -0.84375,0.203125 -0.53125,0 -1.015625,-0.25 -1.015625,-0.703125 0,-0.765625 1.765625,-0.84375 2.234375,-0.859375 z m 0,0"
           id="path19374" />
      </g>
      <g
         id="use8370"
         transform="translate(390.94626,628.19098)">
        <path
           style="stroke:none"
           d="M 1.90625,-4.203125 H 3.453125 V -4.84375 H 1.90625 v -1.390625 h -0.75 V -4.84375 H 0.203125 v 0.640625 H 1.125 v 2.90625 c 0,0.65625 0.15625,1.421875 0.90625,1.421875 0.765625,0 1.3125,-0.28125 1.59375,-0.421875 L 3.453125,-0.9375 C 3.15625,-0.703125 2.8125,-0.578125 2.46875,-0.578125 c -0.40625,0 -0.5625,-0.328125 -0.5625,-0.90625 z m 0,0"
           id="path19426" />
      </g>
      <g
         id="use8372"
         transform="translate(394.88553,628.19098)">
        <path
           style="stroke:none"
           d="M 1.78125,-7.421875 H 0.8125 v 0.96875 H 1.78125 Z M 1.703125,-4.84375 h -0.8125 V 0 h 0.8125 z m 0,0"
           id="path19342" />
      </g>
      <g
         id="use8374"
         transform="translate(397.49173,628.19098)">
        <path
           style="stroke:none"
           d="m 5.109375,-2.40625 c 0,-1.453125 -1.078125,-2.625 -2.390625,-2.625 -1.328125,0 -2.390625,1.203125 -2.390625,2.625 0,1.453125 1.109375,2.53125 2.390625,2.53125 1.3125,0 2.390625,-1.109375 2.390625,-2.53125 z M 2.71875,-0.578125 c -0.75,0 -1.546875,-0.609375 -1.546875,-1.9375 0,-1.3125 0.828125,-1.84375 1.546875,-1.84375 0.765625,0 1.546875,0.5625 1.546875,1.84375 0,1.296875 -0.75,1.9375 -1.546875,1.9375 z m 0,0"
           id="path19578" />
      </g>
      <g
         id="use8376"
         transform="translate(402.94626,628.19098)">
        <path
           style="stroke:none"
           d="m 4.75,-3.25 c 0,-0.71875 -0.171875,-1.71875 -1.5,-1.71875 -0.984375,0 -1.515625,0.75 -1.578125,0.828125 V -4.90625 H 0.890625 V 0 h 0.84375 v -2.671875 c 0,-0.71875 0.265625,-1.625 1.09375,-1.625 1.046875,0 1.0625,0.78125 1.0625,1.125 V 0 H 4.75 Z m 0,0"
           id="path19306" />
      </g>
    </g>
    <g
       style="fill:#000000;fill-opacity:1"
       id="g8390"
       transform="matrix(0.35277777,0,0,0.35277777,-40.041645,-198.07919)">
      <g
         id="use8380"
         transform="translate(412.22662,628.19098)">
        <path
           style="stroke:none"
           d="M 2.953125,-8.171875 C 2.609375,-7.859375 1.875,-7.1875 1.375,-5.84375 c -0.4375,1.171875 -0.515625,2.328125 -0.515625,3.125 0,3.515625 1.578125,4.96875 2.09375,5.4375 H 3.625 C 3.09375,2.203125 1.71875,0.796875 1.71875,-2.71875 c 0,-0.625 0.03125,-1.890625 0.46875,-3.1875 0.453125,-1.265625 1.078125,-1.90625 1.4375,-2.265625 z m 0,0"
           id="path19146" />
      </g>
      <g
         id="use8382"
         transform="translate(416.46918,628.19098)">
        <path
           style="stroke:none"
           d="m 1,-5.609375 c 0.3125,-0.765625 1.03125,-1.15625 1.6875,-1.15625 0.578125,0 1.109375,0.328125 1.109375,1.03125 0,0.65625 -0.453125,1.3125 -1.109375,1.453125 -0.0625,0.015625 -0.09375,0.015625 -0.859375,0.078125 V -3.53125 H 2.59375 c 1.1875,0 1.421875,1.015625 1.421875,1.5625 0,0.84375 -0.5,1.546875 -1.34375,1.546875 -0.75,0 -1.609375,-0.390625 -2.09375,-1.125 l -0.125,0.65625 C 1.25,0.125 2.25,0.234375 2.6875,0.234375 c 1.34375,0 2.296875,-1.046875 2.296875,-2.203125 0,-0.984375 -0.765625,-1.65625 -1.5,-1.890625 0.828125,-0.453125 1.203125,-1.1875 1.203125,-1.875 0,-0.9375 -0.90625,-1.65625 -1.984375,-1.65625 -0.84375,0 -1.640625,0.4375 -2.09375,1.203125 z m 0,0"
           id="path19254" />
      </g>
      <g
         id="use8384"
         transform="translate(421.92374,628.19098)">
        <path
           style="stroke:none"
           d="M 1.96875,-0.015625 V -0.90625 H 1.0625 V 0 H 1.328125 L 1.0625,1.359375 H 1.5 Z m 0,0"
           id="path19126" />
      </g>
      <g
         id="use8386"
         transform="translate(424.95428,628.19098)">
        <path
           style="stroke:none"
           d="M 4.0625,-1.859375 H 5.140625 V -2.53125 H 4.0625 v -4.625 h -1 l -2.75,4.625 v 0.671875 H 3.203125 V 0 H 4.0625 Z M 1.15625,-2.53125 c 0.5625,-0.9375 2.109375,-3.515625 2.109375,-4.140625 v 4.140625 z m 0,0"
           id="path19242" />
      </g>
      <g
         id="use8388"
         transform="translate(430.40884,628.19098)">
        <path
           style="stroke:none"
           d="M 1.28125,2.71875 C 1.625,2.40625 2.359375,1.734375 2.859375,0.390625 3.296875,-0.78125 3.375,-1.9375 3.375,-2.71875 3.375,-6.25 1.796875,-7.703125 1.28125,-8.171875 H 0.609375 c 0.53125,0.515625 1.90625,1.921875 1.90625,5.453125 0,0.609375 -0.03125,1.875 -0.46875,3.171875 C 1.59375,1.71875 0.96875,2.359375 0.609375,2.71875 Z m 0,0"
           id="path19114" />
      </g>
    </g>
    <path
       style="fill:none;stroke:#000000;stroke-width:0.140582;stroke-linecap:butt;stroke-linejoin:miter;stroke-miterlimit:10;stroke-opacity:1"
       d="m 15.070236,39.506991 v -9.4368"
       id="path8392" />
    <path
       style="fill:none;stroke:#000000;stroke-width:0.140582;stroke-linecap:butt;stroke-linejoin:miter;stroke-miterlimit:10;stroke-opacity:1"
       d="M 15.070236,30.070191 H 30.071557"
       id="path8394" />
    <path
       style="fill:none;stroke:#000000;stroke-width:0.140582;stroke-linecap:butt;stroke-linejoin:miter;stroke-miterlimit:10;stroke-opacity:1"
       d="m 30.071557,30.070191 v -4.08175"
       id="path8396" />
    <path
       style="fill:none;stroke:#000000;stroke-width:0.140582;stroke-linecap:round;stroke-linejoin:round;stroke-miterlimit:10;stroke-opacity:1"
       d="m 29.22682,26.648521 c 0.507118,-0.13367 0.745518,-0.43133 0.844737,-0.73037 0.09784,0.29904 0.336243,0.5967 0.843361,0.73037"
       id="path8398" />
    <path
       style="fill:none;stroke:#000000;stroke-width:0.140582;stroke-linecap:butt;stroke-linejoin:miter;stroke-miterlimit:10;stroke-opacity:1"
       d="m 45.071502,39.506991 v -9.4368"
       id="path8400" />
    <path
       style="fill:none;stroke:#000000;stroke-width:0.140582;stroke-linecap:butt;stroke-linejoin:miter;stroke-miterlimit:10;stroke-opacity:1"
       d="M 45.071502,30.070191 H 30.071557"
       id="path8402" />
    <path
       style="fill:none;stroke:#000000;stroke-width:0.140582;stroke-linecap:butt;stroke-linejoin:miter;stroke-miterlimit:10;stroke-opacity:1"
       d="m 75.071398,39.506991 v -9.4368"
       id="path8404" />
    <path
       style="fill:none;stroke:#000000;stroke-width:0.140582;stroke-linecap:butt;stroke-linejoin:miter;stroke-miterlimit:10;stroke-opacity:1"
       d="m 75.071398,30.070191 h 14.99994"
       id="path8406" />
    <path
       style="fill:none;stroke:#000000;stroke-width:0.140582;stroke-linecap:butt;stroke-linejoin:miter;stroke-miterlimit:10;stroke-opacity:1"
       d="m 90.071338,30.070191 v -4.08175"
       id="path8408" />
    <path
       style="fill:none;stroke:#000000;stroke-width:0.140582;stroke-linecap:round;stroke-linejoin:round;stroke-miterlimit:10;stroke-opacity:1"
       d="m 89.227978,26.648521 c 0.50574,-0.13367 0.74552,-0.43133 0.84336,-0.73037 0.0992,0.29904 0.33762,0.5967 0.84336,0.73037"
       id="path8410" />
    <path
       style="fill:none;stroke:#000000;stroke-width:0.140582;stroke-linecap:butt;stroke-linejoin:miter;stroke-miterlimit:10;stroke-opacity:1"
       d="m 105.07129,39.506991 v -9.4368"
       id="path8412" />
    <path
       style="fill:none;stroke:#000000;stroke-width:0.140582;stroke-linecap:butt;stroke-linejoin:miter;stroke-miterlimit:10;stroke-opacity:1"
       d="M 105.07129,30.070191 H 90.071338"
       id="path8414" />
    <path
       style="fill:none;stroke:#000000;stroke-width:0.140582;stroke-linecap:butt;stroke-linejoin:miter;stroke-miterlimit:10;stroke-dasharray:1.05439, 1.05439;stroke-opacity:1"
       d="M 32.572699,10.777651 H 87.568828 V 4.362881 H 32.572699 Z m 0,0"
       id="path8416" />
    <g
       style="fill:#000000;fill-opacity:1"
       id="g8436"
       transform="matrix(0.35277777,0,0,0.35277777,-40.041645,-198.07919)">
      <g
         id="use8418"
         transform="translate(209.472,585.672)">
        <path
           style="stroke:none"
           d="m 4.5625,-3.5625 c 1.125,-0.3125 1.859375,-1.09375 1.859375,-1.984375 0,-1.078125 -1.1875,-2.015625 -2.75,-2.015625 h -2.625 V 0 h 0.9375 v -3.453125 h 1.71875 L 5.765625,0 h 0.96875 z M 1.984375,-4.125 V -6.953125 H 3.5625 c 1.265625,0 1.984375,0.640625 1.984375,1.40625 0,0.78125 -0.703125,1.421875 -1.984375,1.421875 z m 0,0"
           id="path19234" />
      </g>
      <g
         id="use8420"
         transform="translate(216.51709,585.672)">
        <path
           style="stroke:none"
           d="m 4.515625,-2.390625 c 0,-0.375 -0.015625,-1.1875 -0.4375,-1.84375 C 3.625,-4.90625 2.96875,-5.03125 2.578125,-5.03125 c -1.21875,0 -2.203125,1.15625 -2.203125,2.5625 0,1.4375 1.046875,2.59375 2.359375,2.59375 0.6875,0 1.3125,-0.265625 1.734375,-0.578125 L 4.40625,-1.15625 C 3.71875,-0.59375 3,-0.546875 2.75,-0.546875 c -0.875,0 -1.578125,-0.765625 -1.609375,-1.84375 z m -3.3125,-0.59375 c 0.171875,-0.828125 0.75,-1.375 1.375,-1.375 0.5625,0 1.171875,0.375 1.3125,1.375 z m 0,0"
           id="path19218" />
      </g>
      <g
         id="use8422"
         transform="translate(221.3651,585.672)">
        <path
           style="stroke:none"
           d="M 4.46875,-4.5625 C 3.828125,-4.921875 3.453125,-5.03125 2.796875,-5.03125 c -1.515625,0 -2.40625,1.328125 -2.40625,2.609375 0,1.359375 1,2.546875 2.359375,2.546875 0.59375,0 1.1875,-0.15625 1.78125,-0.5625 L 4.453125,-1.171875 c -0.546875,0.4375 -1.140625,0.59375 -1.6875,0.59375 -0.90625,0 -1.515625,-0.78125 -1.515625,-1.859375 0,-0.84375 0.390625,-1.890625 1.546875,-1.890625 0.578125,0 0.9375,0.078125 1.546875,0.484375 z m 0,0"
           id="path19198" />
      </g>
      <g
         id="use8424"
         transform="translate(226.2131,585.672)">
        <path
           style="stroke:none"
           d="M 4.75,-4.84375 H 3.890625 v 3.171875 c 0,0.8125 -0.609375,1.1875 -1.3125,1.1875 -0.765625,0 -0.84375,-0.28125 -0.84375,-0.75 V -4.84375 h -0.84375 v 3.65625 c 0,0.78125 0.25,1.3125 1.15625,1.3125 0.578125,0 1.34375,-0.171875 1.875,-0.65625 V 0 H 4.75 Z m 0,0"
           id="path19470" />
      </g>
      <g
         id="use8426"
         transform="translate(231.84984,585.672)">
        <path
           style="stroke:none"
           d="m 1.71875,-2.328125 c 0,-1.09375 0.78125,-1.875 1.84375,-1.90625 V -4.96875 C 2.59375,-4.953125 2,-4.421875 1.65625,-3.921875 V -4.90625 H 0.890625 V 0 H 1.71875 Z m 0,0"
           id="path19186" />
      </g>
      <g
         id="use8428"
         transform="translate(235.57747,585.672)">
        <path
           style="stroke:none"
           d="M 3.734375,-4.671875 C 3.171875,-4.9375 2.71875,-5.03125 2.171875,-5.03125 c -0.28125,0 -1.8125,0 -1.8125,1.4375 0,0.53125 0.3125,0.875 0.59375,1.078125 0.328125,0.25 0.578125,0.296875 1.171875,0.40625 0.390625,0.078125 1.03125,0.21875 1.03125,0.796875 0,0.75 -0.859375,0.75 -1.03125,0.75 -0.875,0 -1.5,-0.40625 -1.6875,-0.53125 l -0.125,0.734375 C 0.65625,-0.1875 1.25,0.125 2.140625,0.125 c 0.1875,0 0.796875,0 1.265625,-0.359375 0.328125,-0.25 0.515625,-0.6875 0.515625,-1.15625 C 3.921875,-2 3.515625,-2.359375 3.5,-2.40625 3.078125,-2.78125 2.78125,-2.84375 2.234375,-2.9375 c -0.59375,-0.125 -1.09375,-0.234375 -1.09375,-0.765625 0,-0.6875 0.78125,-0.6875 0.921875,-0.6875 0.34375,0 0.921875,0.046875 1.546875,0.421875 z m 0,0"
           id="path19174" />
      </g>
      <g
         id="use8430"
         transform="translate(239.75893,585.672)">
        <path
           style="stroke:none"
           d="M 1.78125,-7.421875 H 0.8125 v 0.96875 H 1.78125 Z M 1.703125,-4.84375 h -0.8125 V 0 h 0.8125 z m 0,0"
           id="path19346" />
      </g>
      <g
         id="use8432"
         transform="translate(242.36511,585.672)">
        <path
           style="stroke:none"
           d="m 4.859375,-4.84375 h -0.8125 L 3.1875,-2.578125 c -0.234375,0.609375 -0.5625,1.484375 -0.65625,2 H 2.515625 C 2.453125,-0.96875 2.171875,-1.71875 2.0625,-2.015625 L 1,-4.84375 H 0.15625 L 2.03125,0 h 0.953125 z m 0,0"
           id="path19162" />
      </g>
      <g
         id="use8434"
         transform="translate(247.39531,585.672)">
        <path
           style="stroke:none"
           d="m 4.515625,-2.390625 c 0,-0.375 -0.015625,-1.1875 -0.4375,-1.84375 C 3.625,-4.90625 2.96875,-5.03125 2.578125,-5.03125 c -1.21875,0 -2.203125,1.15625 -2.203125,2.5625 0,1.4375 1.046875,2.59375 2.359375,2.59375 0.6875,0 1.3125,-0.265625 1.734375,-0.578125 L 4.40625,-1.15625 C 3.71875,-0.59375 3,-0.546875 2.75,-0.546875 c -0.875,0 -1.578125,-0.765625 -1.609375,-1.84375 z m -3.3125,-0.59375 c 0.171875,-0.828125 0.75,-1.375 1.375,-1.375 0.5625,0 1.171875,0.375 1.3125,1.375 z m 0,0"
           id="path19222" />
      </g>
    </g>
    <g
       style="fill:#000000;fill-opacity:1"
       id="g8444"
       transform="matrix(0.35277777,0,0,0.35277777,-40.041645,-198.07919)">
      <g
         id="use8438"
         transform="translate(255.87604,585.672)">
        <path
           style="stroke:none"
           d="M 6.34375,-1.25 C 5.703125,-0.8125 5.328125,-0.59375 4.25,-0.59375 c -1.5625,0 -2.546875,-1.625 -2.546875,-3.203125 0,-1.484375 0.90625,-3.1875 2.578125,-3.1875 0.765625,0 1.265625,0.171875 1.859375,0.5625 L 6.296875,-7.3125 c -0.46875,-0.234375 -1.3125,-0.375 -2.015625,-0.375 -2.015625,0 -3.5625,1.703125 -3.5625,3.984375 0,1.734375 1.296875,3.828125 3.5625,3.828125 1.015625,0 1.421875,-0.171875 2.125,-0.609375 z m 0,0"
           id="path19614" />
      </g>
      <g
         id="use8440"
         transform="translate(262.84586,585.672)">
        <path
           style="stroke:none"
           d="m 5.109375,-2.40625 c 0,-1.453125 -1.078125,-2.625 -2.390625,-2.625 -1.328125,0 -2.390625,1.203125 -2.390625,2.625 0,1.453125 1.109375,2.53125 2.390625,2.53125 1.3125,0 2.390625,-1.109375 2.390625,-2.53125 z M 2.71875,-0.578125 c -0.75,0 -1.546875,-0.609375 -1.546875,-1.9375 0,-1.3125 0.828125,-1.84375 1.546875,-1.84375 0.765625,0 1.546875,0.5625 1.546875,1.84375 0,1.296875 -0.75,1.9375 -1.546875,1.9375 z m 0,0"
           id="path19582" />
      </g>
      <g
         id="use8442"
         transform="translate(268.30042,585.672)">
        <path
           style="stroke:none"
           d="m 7.78125,-3.25 c 0,-0.734375 -0.171875,-1.71875 -1.5,-1.71875 -0.65625,0 -1.21875,0.3125 -1.625,0.90625 C 4.375,-4.890625 3.609375,-4.96875 3.265625,-4.96875 c -0.796875,0 -1.296875,0.453125 -1.59375,0.84375 V -4.90625 H 0.890625 V 0 h 0.84375 v -2.671875 c 0,-0.734375 0.296875,-1.625 1.09375,-1.625 1.015625,0 1.078125,0.703125 1.078125,1.125 V 0 H 4.75 v -2.671875 c 0,-0.734375 0.296875,-1.625 1.109375,-1.625 1.015625,0 1.0625,0.703125 1.0625,1.125 V 0 H 7.78125 Z m 0,0"
           id="path19530" />
      </g>
    </g>
    <g
       style="fill:#000000;fill-opacity:1"
       id="g8448"
       transform="matrix(0.35277777,0,0,0.35277777,-40.041645,-198.07919)">
      <g
         id="use8446"
         transform="translate(276.97751,585.672)">
        <path
           style="stroke:none"
           d="m 1.75,-0.5 c 0.328125,0.3125 0.8125,0.625 1.46875,0.625 1.0625,0 2.015625,-1.078125 2.015625,-2.5625 0,-1.296875 -0.6875,-2.53125 -1.734375,-2.53125 -0.65625,0 -1.28125,0.234375 -1.78125,0.65625 V -4.84375 H 0.890625 V 2.109375 H 1.75 Z m 0,-3.125 C 2,-4.015625 2.4375,-4.265625 2.90625,-4.265625 c 0.828125,0 1.484375,0.828125 1.484375,1.828125 0,1.125 -0.78125,1.890625 -1.59375,1.890625 -0.4375,0 -0.71875,-0.21875 -0.9375,-0.515625 C 1.75,-1.21875 1.75,-1.25 1.75,-1.4375 Z m 0,0"
           id="path19502" />
      </g>
    </g>
    <g
       style="fill:#000000;fill-opacity:1"
       id="g8464"
       transform="matrix(0.35277777,0,0,0.35277777,-40.041645,-198.07919)">
      <g
         id="use8450"
         transform="translate(282.60333,585.672)">
        <path
           style="stroke:none"
           d="M 4.75,-4.84375 H 3.890625 v 3.171875 c 0,0.8125 -0.609375,1.1875 -1.3125,1.1875 -0.765625,0 -0.84375,-0.28125 -0.84375,-0.75 V -4.84375 h -0.84375 v 3.65625 c 0,0.78125 0.25,1.3125 1.15625,1.3125 0.578125,0 1.34375,-0.171875 1.875,-0.65625 V 0 H 4.75 Z m 0,0"
           id="path19474" />
      </g>
      <g
         id="use8452"
         transform="translate(288.24005,585.672)">
        <path
           style="stroke:none"
           d="M 1.90625,-4.203125 H 3.453125 V -4.84375 H 1.90625 v -1.390625 h -0.75 V -4.84375 H 0.203125 v 0.640625 H 1.125 v 2.90625 c 0,0.65625 0.15625,1.421875 0.90625,1.421875 0.765625,0 1.3125,-0.28125 1.59375,-0.421875 L 3.453125,-0.9375 C 3.15625,-0.703125 2.8125,-0.578125 2.46875,-0.578125 c -0.40625,0 -0.5625,-0.328125 -0.5625,-0.90625 z m 0,0"
           id="path19430" />
      </g>
      <g
         id="use8454"
         transform="translate(292.17935,585.672)">
        <path
           style="stroke:none"
           d="m 4.359375,-3.15625 c 0,-1.109375 -0.796875,-1.875 -1.8125,-1.875 -0.703125,0 -1.1875,0.171875 -1.703125,0.46875 l 0.0625,0.71875 c 0.5625,-0.40625 1.109375,-0.546875 1.640625,-0.546875 0.515625,0 0.953125,0.4375 0.953125,1.25 v 0.46875 c -1.640625,0.015625 -3.015625,0.484375 -3.015625,1.4375 0,0.46875 0.296875,1.359375 1.234375,1.359375 0.15625,0 1.1875,-0.03125 1.8125,-0.515625 V 0 H 4.359375 Z M 3.5,-1.4375 c 0,0.203125 0,0.484375 -0.375,0.6875 -0.3125,0.1875 -0.71875,0.203125 -0.84375,0.203125 -0.53125,0 -1.015625,-0.25 -1.015625,-0.703125 0,-0.765625 1.765625,-0.84375 2.234375,-0.859375 z m 0,0"
           id="path19378" />
      </g>
      <g
         id="use8456"
         transform="translate(297.42224,585.672)">
        <path
           style="stroke:none"
           d="M 1.90625,-4.203125 H 3.453125 V -4.84375 H 1.90625 v -1.390625 h -0.75 V -4.84375 H 0.203125 v 0.640625 H 1.125 v 2.90625 c 0,0.65625 0.15625,1.421875 0.90625,1.421875 0.765625,0 1.3125,-0.28125 1.59375,-0.421875 L 3.453125,-0.9375 C 3.15625,-0.703125 2.8125,-0.578125 2.46875,-0.578125 c -0.40625,0 -0.5625,-0.328125 -0.5625,-0.90625 z m 0,0"
           id="path19434" />
      </g>
      <g
         id="use8458"
         transform="translate(301.36154,585.672)">
        <path
           style="stroke:none"
           d="M 1.78125,-7.421875 H 0.8125 v 0.96875 H 1.78125 Z M 1.703125,-4.84375 h -0.8125 V 0 h 0.8125 z m 0,0"
           id="path19350" />
      </g>
      <g
         id="use8460"
         transform="translate(303.96771,585.672)">
        <path
           style="stroke:none"
           d="m 5.109375,-2.40625 c 0,-1.453125 -1.078125,-2.625 -2.390625,-2.625 -1.328125,0 -2.390625,1.203125 -2.390625,2.625 0,1.453125 1.109375,2.53125 2.390625,2.53125 1.3125,0 2.390625,-1.109375 2.390625,-2.53125 z M 2.71875,-0.578125 c -0.75,0 -1.546875,-0.609375 -1.546875,-1.9375 0,-1.3125 0.828125,-1.84375 1.546875,-1.84375 0.765625,0 1.546875,0.5625 1.546875,1.84375 0,1.296875 -0.75,1.9375 -1.546875,1.9375 z m 0,0"
           id="path19586" />
      </g>
      <g
         id="use8462"
         transform="translate(309.42227,585.672)">
        <path
           style="stroke:none"
           d="m 4.75,-3.25 c 0,-0.71875 -0.171875,-1.71875 -1.5,-1.71875 -0.984375,0 -1.515625,0.75 -1.578125,0.828125 V -4.90625 H 0.890625 V 0 h 0.84375 v -2.671875 c 0,-0.71875 0.265625,-1.625 1.09375,-1.625 1.046875,0 1.0625,0.78125 1.0625,1.125 V 0 H 4.75 Z m 0,0"
           id="path19310" />
      </g>
    </g>
    <g
       style="fill:#000000;fill-opacity:1"
       id="g8484"
       transform="matrix(0.35277777,0,0,0.35277777,-40.041645,-198.07919)">
      <g
         id="use8466"
         transform="translate(318.70264,585.672)">
        <path
           style="stroke:none"
           d="M 2.953125,-8.171875 C 2.609375,-7.859375 1.875,-7.1875 1.375,-5.84375 c -0.4375,1.171875 -0.515625,2.328125 -0.515625,3.125 0,3.515625 1.578125,4.96875 2.09375,5.4375 H 3.625 C 3.09375,2.203125 1.71875,0.796875 1.71875,-2.71875 c 0,-0.625 0.03125,-1.890625 0.46875,-3.1875 0.453125,-1.265625 1.078125,-1.90625 1.4375,-2.265625 z m 0,0"
           id="path19150" />
      </g>
      <g
         id="use8468"
         transform="translate(322.94519,585.672)">
        <path
           style="stroke:none"
           d="M 3.265625,-7.390625 H 3.046875 C 2.40625,-6.734375 1.5,-6.703125 0.96875,-6.671875 v 0.625 c 0.359375,0 0.890625,-0.03125 1.4375,-0.25 V -0.625 h -1.375 V 0 H 4.625 V -0.625 H 3.265625 Z m 0,0"
           id="path19282" />
      </g>
      <g
         id="use8470"
         transform="translate(328.39975,585.672)">
        <path
           style="stroke:none"
           d="M 1.96875,-0.015625 V -0.90625 H 1.0625 V 0 H 1.328125 L 1.0625,1.359375 H 1.5 Z m 0,0"
           id="path19130" />
      </g>
      <g
         id="use8472"
         transform="translate(331.4303,585.672)">
        <path
           style="stroke:none"
           d="m 1.890625,-2.046875 -1.34375,1.34375 V 0 h 4.34375 V -0.78125 H 2.90625 c -0.125,0 -0.25,0.015625 -0.390625,0.015625 h -1.1875 c 0.34375,-0.296875 1.1875,-1.125 1.515625,-1.4375 0.203125,-0.203125 0.765625,-0.65625 0.96875,-0.84375 0.5,-0.5 1.078125,-1.078125 1.078125,-2 0,-1.25 -0.875,-2.34375 -2.3125,-2.34375 -1.25,0 -1.859375,0.84375 -2.125,1.78125 0.140625,0.1875 0.1875,0.25 0.21875,0.28125 C 0.6875,-5.296875 0.796875,-5.15625 0.90625,-5 1.125,-5.84375 1.421875,-6.703125 2.421875,-6.703125 3.453125,-6.703125 4,-5.875 4,-5.03125 c 0,0.9375 -0.625,1.546875 -1.265625,2.203125 z m 0,0"
           id="path19270" />
      </g>
      <g
         id="use8474"
         transform="translate(336.88483,585.672)">
        <path
           style="stroke:none"
           d="M 1.96875,-0.015625 V -0.90625 H 1.0625 V 0 H 1.328125 L 1.0625,1.359375 H 1.5 Z m 0,0"
           id="path19134" />
      </g>
      <g
         id="use8476"
         transform="translate(339.91537,585.672)">
        <path
           style="stroke:none"
           d="m 1,-5.609375 c 0.3125,-0.765625 1.03125,-1.15625 1.6875,-1.15625 0.578125,0 1.109375,0.328125 1.109375,1.03125 0,0.65625 -0.453125,1.3125 -1.109375,1.453125 -0.0625,0.015625 -0.09375,0.015625 -0.859375,0.078125 V -3.53125 H 2.59375 c 1.1875,0 1.421875,1.015625 1.421875,1.5625 0,0.84375 -0.5,1.546875 -1.34375,1.546875 -0.75,0 -1.609375,-0.390625 -2.09375,-1.125 l -0.125,0.65625 C 1.25,0.125 2.25,0.234375 2.6875,0.234375 c 1.34375,0 2.296875,-1.046875 2.296875,-2.203125 0,-0.984375 -0.765625,-1.65625 -1.5,-1.890625 0.828125,-0.453125 1.203125,-1.1875 1.203125,-1.875 0,-0.9375 -0.90625,-1.65625 -1.984375,-1.65625 -0.84375,0 -1.640625,0.4375 -2.09375,1.203125 z m 0,0"
           id="path19258" />
      </g>
      <g
         id="use8478"
         transform="translate(345.36993,585.672)">
        <path
           style="stroke:none"
           d="M 1.96875,-0.015625 V -0.90625 H 1.0625 V 0 H 1.328125 L 1.0625,1.359375 H 1.5 Z m 0,0"
           id="path19138" />
      </g>
      <g
         id="use8480"
         transform="translate(348.40048,585.672)">
        <path
           style="stroke:none"
           d="M 4.0625,-1.859375 H 5.140625 V -2.53125 H 4.0625 v -4.625 h -1 l -2.75,4.625 v 0.671875 H 3.203125 V 0 H 4.0625 Z M 1.15625,-2.53125 c 0.5625,-0.9375 2.109375,-3.515625 2.109375,-4.140625 v 4.140625 z m 0,0"
           id="path19246" />
      </g>
      <g
         id="use8482"
         transform="translate(353.85504,585.672)">
        <path
           style="stroke:none"
           d="M 1.28125,2.71875 C 1.625,2.40625 2.359375,1.734375 2.859375,0.390625 3.296875,-0.78125 3.375,-1.9375 3.375,-2.71875 3.375,-6.25 1.796875,-7.703125 1.28125,-8.171875 H 0.609375 c 0.53125,0.515625 1.90625,1.921875 1.90625,5.453125 0,0.609375 -0.03125,1.875 -0.46875,3.171875 C 1.59375,1.71875 0.96875,2.359375 0.609375,2.71875 Z m 0,0"
           id="path19118" />
      </g>
    </g>
    <path
       style="fill:none;stroke:#000000;stroke-width:0.140582;stroke-linecap:butt;stroke-linejoin:miter;stroke-miterlimit:10;stroke-dasharray:1.05439, 1.05439;stroke-opacity:1"
       d="m 30.071557,19.292551 v -4.22231"
       id="path8486" />
    <path
       style="fill:none;stroke:#000000;stroke-width:0.140582;stroke-linecap:butt;stroke-linejoin:miter;stroke-miterlimit:10;stroke-dasharray:1.05439, 1.05439;stroke-opacity:1"
       d="M 30.071557,15.070241 H 60.071451"
       id="path8488" />
    <path
       style="fill:none;stroke:#000000;stroke-width:0.140582;stroke-linecap:butt;stroke-linejoin:miter;stroke-miterlimit:10;stroke-dasharray:1.05439, 1.05439;stroke-opacity:1"
       d="m 60.071451,15.070241 v -4.08175"
       id="path8490" />
    <path
       style="fill:none;stroke:#000000;stroke-width:0.140582;stroke-linecap:round;stroke-linejoin:round;stroke-miterlimit:10;stroke-opacity:1"
       d="m 59.228089,11.648571 c 0.505739,-0.13367 0.744143,-0.43132 0.843362,-0.73036 0.09784,0.29904 0.337617,0.59669 0.843357,0.73036"
       id="path8492" />
    <path
       style="fill:none;stroke:#000000;stroke-width:0.140582;stroke-linecap:butt;stroke-linejoin:miter;stroke-miterlimit:10;stroke-dasharray:1.05439, 1.05439;stroke-opacity:1"
       d="m 90.071338,19.292551 v -4.22231"
       id="path8494" />
    <path
       style="fill:none;stroke:#000000;stroke-width:0.140582;stroke-linecap:butt;stroke-linejoin:miter;stroke-miterlimit:10;stroke-dasharray:1.05439, 1.05439;stroke-opacity:1"
       d="M 90.071338,15.070241 H 60.071451"
       id="path8496" />
    <path
       style="fill:none;stroke:#ffffff;stroke-width:0.140582;stroke-linecap:butt;stroke-linejoin:miter;stroke-miterlimit:10;stroke-opacity:1"
       d="m 11.383984,7.569581 c 0,-2.10564 -1.707392,-3.81303 -3.813034,-3.81303 -2.105642,0 -3.81303,1.70739 -3.81303,3.81303 0,2.10702 1.707388,3.81303 3.81303,3.81303 2.105642,0 3.813034,-1.70601 3.813034,-3.81303 z m 0,0"
       id="path8498" />
    <g
       style="fill:#000000;fill-opacity:1"
       id="g8502"
       transform="matrix(0.35277777,0,0,0.35277777,-40.041645,-198.07919)">
      <g
         id="use8500"
         transform="translate(130.705,586.672)">
        <path
           style="stroke:none"
           d="M 3.296875,-3.453125 H 5.15625 c 1.546875,0 3.0625,-1.125 3.0625,-2.34375 0,-0.84375 -0.71875,-1.65625 -2.140625,-1.65625 h -3.53125 c -0.21875,0 -0.328125,0 -0.328125,0.21875 0,0.125 0.09375,0.125 0.3125,0.125 0.140625,0 0.34375,0.015625 0.46875,0.015625 0.171875,0.03125 0.234375,0.0625 0.234375,0.171875 0,0.046875 0,0.078125 -0.03125,0.21875 l -1.46875,5.859375 c -0.109375,0.421875 -0.125,0.5 -1,0.5 -0.171875,0 -0.296875,0 -0.296875,0.21875 C 0.4375,0 0.5625,0 0.59375,0 c 0.3125,0 1.078125,-0.03125 1.390625,-0.03125 0.234375,0 0.46875,0.015625 0.703125,0.015625 C 2.921875,-0.015625 3.15625,0 3.390625,0 c 0.078125,0 0.21875,0 0.21875,-0.21875 0,-0.125 -0.09375,-0.125 -0.3125,-0.125 -0.390625,0 -0.703125,0 -0.703125,-0.1875 0,-0.0625 0.03125,-0.125 0.03125,-0.1875 z m 0.796875,-3.25 c 0.09375,-0.375 0.109375,-0.40625 0.578125,-0.40625 H 5.71875 c 0.90625,0 1.484375,0.296875 1.484375,1.046875 0,0.421875 -0.21875,1.359375 -0.640625,1.75 -0.546875,0.5 -1.203125,0.578125 -1.671875,0.578125 H 3.34375 Z m 0,0"
           id="path19106" />
      </g>
    </g>
    <path
       style="fill:none;stroke:#000000;stroke-width:0.140582;stroke-linecap:butt;stroke-linejoin:miter;stroke-miterlimit:10;stroke-opacity:1"
       d="m 138.90902,7.569581 c 0,-2.11805 -1.71704,-3.83646 -3.83646,-3.83646 -2.11943,0 -3.83784,1.71841 -3.83784,3.83646 0,2.11942 1.71841,3.83783 3.83784,3.83783 2.11942,0 3.83646,-1.71841 3.83646,-3.83783 z m 0,0"
       id="path8504" />
    <g
       style="fill:#000000;fill-opacity:1"
       id="g8508"
       transform="matrix(0.35277777,0,0,0.35277777,-40.041645,-198.07919)">
      <g
         id="use8506"
         transform="translate(491.987,586.672)">
        <path
           style="stroke:none"
           d="M 6.84375,-6.203125 C 7.390625,-7.0625 7.84375,-7.09375 8.25,-7.109375 8.375,-7.125 8.390625,-7.3125 8.390625,-7.3125 c 0,-0.09375 -0.0625,-0.140625 -0.140625,-0.140625 -0.28125,0 -0.609375,0.03125 -0.90625,0.03125 -0.359375,0 -0.71875,-0.03125 -1.078125,-0.03125 -0.0625,0 -0.203125,0 -0.203125,0.21875 0,0.109375 0.09375,0.125 0.171875,0.125 0.296875,0.015625 0.5,0.125 0.5,0.359375 0,0.15625 -0.15625,0.40625 -0.15625,0.40625 l -3.34375,5.328125 -0.75,-5.765625 c 0,-0.1875 0.25,-0.328125 0.75,-0.328125 0.15625,0 0.28125,0 0.28125,-0.21875 0,-0.09375 -0.09375,-0.125 -0.15625,-0.125 -0.4375,0 -0.90625,0.03125 -1.359375,0.03125 -0.1875,0 -0.390625,0 -0.59375,0 -0.203125,0 -0.40625,-0.03125 -0.59375,-0.03125 -0.078125,0 -0.203125,0 -0.203125,0.21875 0,0.125 0.09375,0.125 0.28125,0.125 0.609375,0 0.609375,0.09375 0.640625,0.375 l 0.875,6.71875 c 0.03125,0.21875 0.0625,0.25 0.21875,0.25 0.171875,0 0.203125,-0.046875 0.296875,-0.1875 z m 0,0"
           id="path19102" />
      </g>
    </g>
    <path
       style="fill:none;stroke:#000000;stroke-width:0.140582;stroke-linecap:butt;stroke-linejoin:miter;stroke-miterlimit:10;stroke-opacity:1"
       d="M 87.639108,7.569581 H 131.02388"
       id="path8510" />
    <path
       style="fill:none;stroke:#000000;stroke-width:0.140582;stroke-linecap:round;stroke-linejoin:round;stroke-miterlimit:10;stroke-opacity:1"
       d="m 130.3638,6.726221 c 0.13367,0.50712 0.43133,0.74552 0.73036,0.84336 -0.29903,0.0992 -0.59669,0.33762 -0.73036,0.84474"
       id="path8512" />
    <path
       style="fill:none;stroke:#000000;stroke-width:0.140582;stroke-linecap:butt;stroke-linejoin:miter;stroke-miterlimit:10;stroke-opacity:1"
       d="M 3.585665,35.071091 H 116.55723 c 1.94166,0 3.51538,-1.57372 3.51538,-3.51538 V 3.584291 c 0,-1.94028 -1.57372,-3.514 -3.51538,-3.514 H 3.585665 c -1.941657,0 -3.515374,1.57372 -3.515374,3.514 v 27.97142 c 0,1.94166 1.573717,3.51538 3.515374,3.51538 z m 0,0"
       id="path8514" />
  </g>
</svg>
