<?xml version="1.0" encoding="UTF-8" standalone="no"?>
<!-- Created with Inkscape (http://www.inkscape.org/) -->

<svg
   width="137.98161mm"
   height="42.648922mm"
   viewBox="0 0 137.98161 42.648922"
   version="1.1"
   id="svg12288"
   inkscape:version="1.1.2 (0a00cf5339, 2022-02-04)"
   sodipodi:docname="recursive-proof-2.svg"
   xmlns:inkscape="http://www.inkscape.org/namespaces/inkscape"
   xmlns:sodipodi="http://sodipodi.sourceforge.net/DTD/sodipodi-0.dtd"
   xmlns="http://www.w3.org/2000/svg"
   xmlns:svg="http://www.w3.org/2000/svg">
  <sodipodi:namedview
     id="namedview12290"
     pagecolor="#ffffff"
     bordercolor="#666666"
     borderopacity="1.0"
     inkscape:pageshadow="2"
     inkscape:pageopacity="0.0"
     inkscape:pagecheckerboard="0"
     inkscape:document-units="mm"
     showgrid="false"
     inkscape:zoom="0.69664703"
     inkscape:cx="396.90114"
     inkscape:cy="561.25984"
     inkscape:window-width="1920"
     inkscape:window-height="1007"
     inkscape:window-x="0"
     inkscape:window-y="0"
     inkscape:window-maximized="1"
     inkscape:current-layer="layer1" />
  <defs
     id="defs12285">
    <clipPath
       id="clip1">
      <path
         d="M 131,106 H 512.51172 V 261 H 131 Z m 0,0"
         id="path511" />
    </clipPath>
    <clipPath
       id="clip2">
      <path
         d="M 131,106 H 512.51172 V 261 H 131 Z m 0,0"
         id="path514" />
    </clipPath>
    <clipPath
       id="clip3">
      <path
         d="m 150,229 h 283 v 31.57422 H 150 Z m 0,0"
         id="path517" />
    </clipPath>
    <clipPath
       id="clip4">
      <path
         d="m 150,228 h 283 v 32.57422 H 150 Z m 0,0"
         id="path520" />
    </clipPath>
    <clipPath
       id="clip5">
      <path
         d="m 181,224 h 283 v 36.57422 H 181 Z m 0,0"
         id="path523" />
    </clipPath>
    <clipPath
       id="clip6">
      <path
         d="m 180,224 h 284 v 36.57422 H 180 Z m 0,0"
         id="path526" />
    </clipPath>
    <clipPath
       id="clip7">
      <path
         d="m 211,164 h 283 v 96.57422 H 211 Z m 0,0"
         id="path529" />
    </clipPath>
    <clipPath
       id="clip1-3">
      <path
         d="m 372,102 h 32.38672 v 38 H 372 Z m 0,0"
         id="path6601" />
    </clipPath>
    <clipPath
       id="clip2-6">
      <path
         d="m 293,99.828125 h 55 V 205 h -55 z m 0,0"
         id="path6604" />
    </clipPath>
    <clipPath
       id="clip3-7">
      <path
         d="M 216.23437,211 H 284 v 18.18359 h -67.76563 z m 0,0"
         id="path6607" />
    </clipPath>
  </defs>
  <g
     inkscape:label="Layer 1"
     inkscape:groupmode="layer"
     id="layer1">
    <path
       style="fill:none;stroke:#000000;stroke-width:0.140582;stroke-linecap:butt;stroke-linejoin:miter;stroke-miterlimit:10;stroke-opacity:1"
       d="m 17.208951,24.584211 c 0,-2.10564 -1.706012,-3.81303 -3.81303,-3.81303 -2.105642,0 -3.813034,1.70739 -3.813034,3.81303 0,2.10702 1.707392,3.81303 3.813034,3.81303 2.107018,0 3.81303,-1.70601 3.81303,-3.81303 z m 0,0"
       id="path7156" />
    <g
       style="fill:#000000;fill-opacity:1"
       id="g7160"
       transform="matrix(0.35277777,0,0,0.35277777,-41.715961,-111.34272)">
      <g
         id="use7158"
         transform="translate(151.964,389.03299)">
        <path
           style="stroke:none"
           d="M 3.296875,-3.453125 H 5.15625 c 1.546875,0 3.0625,-1.125 3.0625,-2.34375 0,-0.84375 -0.71875,-1.65625 -2.140625,-1.65625 h -3.53125 c -0.21875,0 -0.328125,0 -0.328125,0.21875 0,0.125 0.09375,0.125 0.3125,0.125 0.140625,0 0.34375,0.015625 0.46875,0.015625 0.171875,0.03125 0.234375,0.0625 0.234375,0.171875 0,0.046875 0,0.078125 -0.03125,0.21875 l -1.46875,5.859375 c -0.109375,0.421875 -0.125,0.5 -1,0.5 -0.171875,0 -0.296875,0 -0.296875,0.21875 C 0.4375,0 0.5625,0 0.59375,0 c 0.3125,0 1.078125,-0.03125 1.390625,-0.03125 0.234375,0 0.46875,0.015625 0.703125,0.015625 C 2.921875,-0.015625 3.15625,0 3.390625,0 c 0.078125,0 0.21875,0 0.21875,-0.21875 0,-0.125 -0.09375,-0.125 -0.3125,-0.125 -0.390625,0 -0.703125,0 -0.703125,-0.1875 0,-0.0625 0.03125,-0.125 0.03125,-0.1875 z m 0.796875,-3.25 c 0.09375,-0.375 0.109375,-0.40625 0.578125,-0.40625 H 5.71875 c 0.90625,0 1.484375,0.296875 1.484375,1.046875 0,0.421875 -0.21875,1.359375 -0.640625,1.75 -0.546875,0.5 -1.203125,0.578125 -1.671875,0.578125 H 3.34375 Z m 0,0"
           id="path17460" />
      </g>
    </g>
    <path
       style="fill:none;stroke:#000000;stroke-width:0.140582;stroke-linecap:butt;stroke-linejoin:miter;stroke-miterlimit:10;stroke-opacity:1"
       d="m 32.2337,24.584211 c 0,-2.11805 -1.718412,-3.83646 -3.836458,-3.83646 -2.119422,0 -3.837834,1.71841 -3.837834,3.83646 0,2.11942 1.718412,3.83783 3.837834,3.83783 2.118046,0 3.836458,-1.71841 3.836458,-3.83783 z m 0,0"
       id="path7162" />
    <g
       style="fill:#000000;fill-opacity:1"
       id="g7166"
       transform="matrix(0.35277777,0,0,0.35277777,-41.715961,-111.34272)">
      <g
         id="use7164"
         transform="translate(194.35001,389.03299)">
        <path
           style="stroke:none"
           d="M 6.84375,-6.203125 C 7.390625,-7.0625 7.84375,-7.09375 8.25,-7.109375 8.375,-7.125 8.390625,-7.3125 8.390625,-7.3125 c 0,-0.09375 -0.0625,-0.140625 -0.140625,-0.140625 -0.28125,0 -0.609375,0.03125 -0.90625,0.03125 -0.359375,0 -0.71875,-0.03125 -1.078125,-0.03125 -0.0625,0 -0.203125,0 -0.203125,0.21875 0,0.109375 0.09375,0.125 0.171875,0.125 0.296875,0.015625 0.5,0.125 0.5,0.359375 0,0.15625 -0.15625,0.40625 -0.15625,0.40625 l -3.34375,5.328125 -0.75,-5.765625 c 0,-0.1875 0.25,-0.328125 0.75,-0.328125 0.15625,0 0.28125,0 0.28125,-0.21875 0,-0.09375 -0.09375,-0.125 -0.15625,-0.125 -0.4375,0 -0.90625,0.03125 -1.359375,0.03125 -0.1875,0 -0.390625,0 -0.59375,0 -0.203125,0 -0.40625,-0.03125 -0.59375,-0.03125 -0.078125,0 -0.203125,0 -0.203125,0.21875 0,0.125 0.09375,0.125 0.28125,0.125 0.609375,0 0.609375,0.09375 0.640625,0.375 l 0.875,6.71875 c 0.03125,0.21875 0.0625,0.25 0.21875,0.25 0.171875,0 0.203125,-0.046875 0.296875,-0.1875 z m 0,0"
           id="path17232" />
      </g>
    </g>
    <path
       style="fill:none;stroke:#000000;stroke-width:0.140582;stroke-linecap:butt;stroke-linejoin:miter;stroke-miterlimit:10;stroke-opacity:1"
       d="m 47.210221,24.584211 c 0,-2.10564 -1.707392,-3.81303 -3.813034,-3.81303 -2.107018,0 -3.81303,1.70739 -3.81303,3.81303 0,2.10702 1.706012,3.81303 3.81303,3.81303 2.105642,0 3.813034,-1.70601 3.813034,-3.81303 z m 0,0"
       id="path7168" />
    <g
       style="fill:#000000;fill-opacity:1"
       id="g7172"
       transform="matrix(0.35277777,0,0,0.35277777,-41.715961,-111.34272)">
      <g
         id="use7170"
         transform="translate(237.004,389.03299)">
        <path
           style="stroke:none"
           d="M 3.296875,-3.453125 H 5.15625 c 1.546875,0 3.0625,-1.125 3.0625,-2.34375 0,-0.84375 -0.71875,-1.65625 -2.140625,-1.65625 h -3.53125 c -0.21875,0 -0.328125,0 -0.328125,0.21875 0,0.125 0.09375,0.125 0.3125,0.125 0.140625,0 0.34375,0.015625 0.46875,0.015625 0.171875,0.03125 0.234375,0.0625 0.234375,0.171875 0,0.046875 0,0.078125 -0.03125,0.21875 l -1.46875,5.859375 c -0.109375,0.421875 -0.125,0.5 -1,0.5 -0.171875,0 -0.296875,0 -0.296875,0.21875 C 0.4375,0 0.5625,0 0.59375,0 c 0.3125,0 1.078125,-0.03125 1.390625,-0.03125 0.234375,0 0.46875,0.015625 0.703125,0.015625 C 2.921875,-0.015625 3.15625,0 3.390625,0 c 0.078125,0 0.21875,0 0.21875,-0.21875 0,-0.125 -0.09375,-0.125 -0.3125,-0.125 -0.390625,0 -0.703125,0 -0.703125,-0.1875 0,-0.0625 0.03125,-0.125 0.03125,-0.1875 z m 0.796875,-3.25 c 0.09375,-0.375 0.109375,-0.40625 0.578125,-0.40625 H 5.71875 c 0.90625,0 1.484375,0.296875 1.484375,1.046875 0,0.421875 -0.21875,1.359375 -0.640625,1.75 -0.546875,0.5 -1.203125,0.578125 -1.671875,0.578125 H 3.34375 Z m 0,0"
           id="path17464" />
      </g>
    </g>
    <path
       style="fill:none;stroke:#000000;stroke-width:0.140582;stroke-linecap:butt;stroke-linejoin:miter;stroke-miterlimit:10;stroke-opacity:1"
       d="m 62.233598,24.584211 c 0,-2.11805 -1.71704,-3.83646 -3.83646,-3.83646 -2.11943,0 -3.83784,1.71841 -3.83784,3.83646 0,2.11942 1.71841,3.83783 3.83784,3.83783 2.11942,0 3.83646,-1.71841 3.83646,-3.83783 z m 0,0"
       id="path7174" />
    <g
       style="fill:#000000;fill-opacity:1"
       id="g7178"
       transform="matrix(0.35277777,0,0,0.35277777,-41.715961,-111.34272)">
      <g
         id="use7176"
         transform="translate(279.38901,389.03299)">
        <path
           style="stroke:none"
           d="M 6.84375,-6.203125 C 7.390625,-7.0625 7.84375,-7.09375 8.25,-7.109375 8.375,-7.125 8.390625,-7.3125 8.390625,-7.3125 c 0,-0.09375 -0.0625,-0.140625 -0.140625,-0.140625 -0.28125,0 -0.609375,0.03125 -0.90625,0.03125 -0.359375,0 -0.71875,-0.03125 -1.078125,-0.03125 -0.0625,0 -0.203125,0 -0.203125,0.21875 0,0.109375 0.09375,0.125 0.171875,0.125 0.296875,0.015625 0.5,0.125 0.5,0.359375 0,0.15625 -0.15625,0.40625 -0.15625,0.40625 l -3.34375,5.328125 -0.75,-5.765625 c 0,-0.1875 0.25,-0.328125 0.75,-0.328125 0.15625,0 0.28125,0 0.28125,-0.21875 0,-0.09375 -0.09375,-0.125 -0.15625,-0.125 -0.4375,0 -0.90625,0.03125 -1.359375,0.03125 -0.1875,0 -0.390625,0 -0.59375,0 -0.203125,0 -0.40625,-0.03125 -0.59375,-0.03125 -0.078125,0 -0.203125,0 -0.203125,0.21875 0,0.125 0.09375,0.125 0.28125,0.125 0.609375,0 0.609375,0.09375 0.640625,0.375 l 0.875,6.71875 c 0.03125,0.21875 0.0625,0.25 0.21875,0.25 0.171875,0 0.203125,-0.046875 0.296875,-0.1875 z m 0,0"
           id="path17236" />
      </g>
    </g>
    <path
       style="fill:none;stroke:#000000;stroke-width:0.140582;stroke-linecap:butt;stroke-linejoin:miter;stroke-miterlimit:10;stroke-opacity:1"
       d="m 77.210108,24.584211 c 0,-2.10564 -1.70739,-3.81303 -3.81303,-3.81303 -2.10564,0 -3.81303,1.70739 -3.81303,3.81303 0,2.10702 1.70739,3.81303 3.81303,3.81303 2.10564,0 3.81303,-1.70601 3.81303,-3.81303 z m 0,0"
       id="path7180" />
    <g
       style="fill:#000000;fill-opacity:1"
       id="g7184"
       transform="matrix(0.35277777,0,0,0.35277777,-41.715961,-111.34272)">
      <g
         id="use7182"
         transform="translate(322.043,389.03299)">
        <path
           style="stroke:none"
           d="M 3.296875,-3.453125 H 5.15625 c 1.546875,0 3.0625,-1.125 3.0625,-2.34375 0,-0.84375 -0.71875,-1.65625 -2.140625,-1.65625 h -3.53125 c -0.21875,0 -0.328125,0 -0.328125,0.21875 0,0.125 0.09375,0.125 0.3125,0.125 0.140625,0 0.34375,0.015625 0.46875,0.015625 0.171875,0.03125 0.234375,0.0625 0.234375,0.171875 0,0.046875 0,0.078125 -0.03125,0.21875 l -1.46875,5.859375 c -0.109375,0.421875 -0.125,0.5 -1,0.5 -0.171875,0 -0.296875,0 -0.296875,0.21875 C 0.4375,0 0.5625,0 0.59375,0 c 0.3125,0 1.078125,-0.03125 1.390625,-0.03125 0.234375,0 0.46875,0.015625 0.703125,0.015625 C 2.921875,-0.015625 3.15625,0 3.390625,0 c 0.078125,0 0.21875,0 0.21875,-0.21875 0,-0.125 -0.09375,-0.125 -0.3125,-0.125 -0.390625,0 -0.703125,0 -0.703125,-0.1875 0,-0.0625 0.03125,-0.125 0.03125,-0.1875 z m 0.796875,-3.25 c 0.09375,-0.375 0.109375,-0.40625 0.578125,-0.40625 H 5.71875 c 0.90625,0 1.484375,0.296875 1.484375,1.046875 0,0.421875 -0.21875,1.359375 -0.640625,1.75 -0.546875,0.5 -1.203125,0.578125 -1.671875,0.578125 H 3.34375 Z m 0,0"
           id="path17468" />
      </g>
    </g>
    <path
       style="fill:none;stroke:#000000;stroke-width:0.140582;stroke-linecap:butt;stroke-linejoin:miter;stroke-miterlimit:10;stroke-opacity:1"
       d="m 92.234858,24.584211 c 0,-2.11805 -1.71841,-3.83646 -3.83783,-3.83646 -2.11942,0 -3.83646,1.71841 -3.83646,3.83646 0,2.11942 1.71704,3.83783 3.83646,3.83783 2.11942,0 3.83783,-1.71841 3.83783,-3.83783 z m 0,0"
       id="path7186" />
    <g
       style="fill:#000000;fill-opacity:1"
       id="g7190"
       transform="matrix(0.35277777,0,0,0.35277777,-41.715961,-111.34272)">
      <g
         id="use7188"
         transform="translate(364.42801,389.03299)">
        <path
           style="stroke:none"
           d="M 6.84375,-6.203125 C 7.390625,-7.0625 7.84375,-7.09375 8.25,-7.109375 8.375,-7.125 8.390625,-7.3125 8.390625,-7.3125 c 0,-0.09375 -0.0625,-0.140625 -0.140625,-0.140625 -0.28125,0 -0.609375,0.03125 -0.90625,0.03125 -0.359375,0 -0.71875,-0.03125 -1.078125,-0.03125 -0.0625,0 -0.203125,0 -0.203125,0.21875 0,0.109375 0.09375,0.125 0.171875,0.125 0.296875,0.015625 0.5,0.125 0.5,0.359375 0,0.15625 -0.15625,0.40625 -0.15625,0.40625 l -3.34375,5.328125 -0.75,-5.765625 c 0,-0.1875 0.25,-0.328125 0.75,-0.328125 0.15625,0 0.28125,0 0.28125,-0.21875 0,-0.09375 -0.09375,-0.125 -0.15625,-0.125 -0.4375,0 -0.90625,0.03125 -1.359375,0.03125 -0.1875,0 -0.390625,0 -0.59375,0 -0.203125,0 -0.40625,-0.03125 -0.59375,-0.03125 -0.078125,0 -0.203125,0 -0.203125,0.21875 0,0.125 0.09375,0.125 0.28125,0.125 0.609375,0 0.609375,0.09375 0.640625,0.375 l 0.875,6.71875 c 0.03125,0.21875 0.0625,0.25 0.21875,0.25 0.171875,0 0.203125,-0.046875 0.296875,-0.1875 z m 0,0"
           id="path17240" />
      </g>
    </g>
    <path
       style="fill:none;stroke:#000000;stroke-width:0.140582;stroke-linecap:butt;stroke-linejoin:miter;stroke-miterlimit:10;stroke-opacity:1"
       d="m 107.21,24.584211 c 0,-2.10564 -1.70601,-3.81303 -3.81303,-3.81303 -2.10564,0 -3.813032,1.70739 -3.813032,3.81303 0,2.10702 1.707392,3.81303 3.813032,3.81303 2.10702,0 3.81303,-1.70601 3.81303,-3.81303 z m 0,0"
       id="path7192" />
    <g
       style="fill:#000000;fill-opacity:1"
       id="g7196"
       transform="matrix(0.35277777,0,0,0.35277777,-41.715961,-111.34272)">
      <g
         id="use7194"
         transform="translate(407.082,389.03299)">
        <path
           style="stroke:none"
           d="M 3.296875,-3.453125 H 5.15625 c 1.546875,0 3.0625,-1.125 3.0625,-2.34375 0,-0.84375 -0.71875,-1.65625 -2.140625,-1.65625 h -3.53125 c -0.21875,0 -0.328125,0 -0.328125,0.21875 0,0.125 0.09375,0.125 0.3125,0.125 0.140625,0 0.34375,0.015625 0.46875,0.015625 0.171875,0.03125 0.234375,0.0625 0.234375,0.171875 0,0.046875 0,0.078125 -0.03125,0.21875 l -1.46875,5.859375 c -0.109375,0.421875 -0.125,0.5 -1,0.5 -0.171875,0 -0.296875,0 -0.296875,0.21875 C 0.4375,0 0.5625,0 0.59375,0 c 0.3125,0 1.078125,-0.03125 1.390625,-0.03125 0.234375,0 0.46875,0.015625 0.703125,0.015625 C 2.921875,-0.015625 3.15625,0 3.390625,0 c 0.078125,0 0.21875,0 0.21875,-0.21875 0,-0.125 -0.09375,-0.125 -0.3125,-0.125 -0.390625,0 -0.703125,0 -0.703125,-0.1875 0,-0.0625 0.03125,-0.125 0.03125,-0.1875 z m 0.796875,-3.25 c 0.09375,-0.375 0.109375,-0.40625 0.578125,-0.40625 H 5.71875 c 0.90625,0 1.484375,0.296875 1.484375,1.046875 0,0.421875 -0.21875,1.359375 -0.640625,1.75 -0.546875,0.5 -1.203125,0.578125 -1.671875,0.578125 H 3.34375 Z m 0,0"
           id="path17472" />
      </g>
    </g>
    <path
       style="fill:none;stroke:#000000;stroke-width:0.140582;stroke-linecap:butt;stroke-linejoin:miter;stroke-miterlimit:10;stroke-opacity:1"
       d="m 122.23475,24.584211 c 0,-2.11805 -1.71841,-3.83646 -3.83645,-3.83646 -2.11943,0 -3.83784,1.71841 -3.83784,3.83646 0,2.11942 1.71841,3.83783 3.83784,3.83783 2.11804,0 3.83645,-1.71841 3.83645,-3.83783 z m 0,0"
       id="path7198" />
    <g
       style="fill:#000000;fill-opacity:1"
       id="g7202"
       transform="matrix(0.35277777,0,0,0.35277777,-41.715961,-111.34272)">
      <g
         id="use7200"
         transform="translate(449.46799,389.03299)">
        <path
           style="stroke:none"
           d="M 6.84375,-6.203125 C 7.390625,-7.0625 7.84375,-7.09375 8.25,-7.109375 8.375,-7.125 8.390625,-7.3125 8.390625,-7.3125 c 0,-0.09375 -0.0625,-0.140625 -0.140625,-0.140625 -0.28125,0 -0.609375,0.03125 -0.90625,0.03125 -0.359375,0 -0.71875,-0.03125 -1.078125,-0.03125 -0.0625,0 -0.203125,0 -0.203125,0.21875 0,0.109375 0.09375,0.125 0.171875,0.125 0.296875,0.015625 0.5,0.125 0.5,0.359375 0,0.15625 -0.15625,0.40625 -0.15625,0.40625 l -3.34375,5.328125 -0.75,-5.765625 c 0,-0.1875 0.25,-0.328125 0.75,-0.328125 0.15625,0 0.28125,0 0.28125,-0.21875 0,-0.09375 -0.09375,-0.125 -0.15625,-0.125 -0.4375,0 -0.90625,0.03125 -1.359375,0.03125 -0.1875,0 -0.390625,0 -0.59375,0 -0.203125,0 -0.40625,-0.03125 -0.59375,-0.03125 -0.078125,0 -0.203125,0 -0.203125,0.21875 0,0.125 0.09375,0.125 0.28125,0.125 0.609375,0 0.609375,0.09375 0.640625,0.375 l 0.875,6.71875 c 0.03125,0.21875 0.0625,0.25 0.21875,0.25 0.171875,0 0.203125,-0.046875 0.296875,-0.1875 z m 0,0"
           id="path17244" />
      </g>
    </g>
    <path
       style="fill:none;stroke:#000000;stroke-width:0.140582;stroke-linecap:butt;stroke-linejoin:miter;stroke-miterlimit:10;stroke-opacity:1"
       d="m 122.87416,4.584741 c 0,-2.47358 -2.00366,-4.47725 -4.47586,-4.47725 -2.47358,0 -4.47725,2.00367 -4.47725,4.47725 0,2.4722 2.00367,4.47725 4.47725,4.47725 2.4722,0 4.47586,-2.00505 4.47586,-4.47725 z m 0,0"
       id="path7204" />
    <g
       style="fill:#000000;fill-opacity:1"
       id="g7208"
       transform="matrix(0.35277777,0,0,0.35277777,-41.715961,-111.34272)">
      <g
         id="use7206"
         transform="translate(447.23599,332.44699)">
        <path
           style="stroke:none"
           d="M 3.296875,-3.453125 H 5.15625 c 1.546875,0 3.0625,-1.125 3.0625,-2.34375 0,-0.84375 -0.71875,-1.65625 -2.140625,-1.65625 h -3.53125 c -0.21875,0 -0.328125,0 -0.328125,0.21875 0,0.125 0.09375,0.125 0.3125,0.125 0.140625,0 0.34375,0.015625 0.46875,0.015625 0.171875,0.03125 0.234375,0.0625 0.234375,0.171875 0,0.046875 0,0.078125 -0.03125,0.21875 l -1.46875,5.859375 c -0.109375,0.421875 -0.125,0.5 -1,0.5 -0.171875,0 -0.296875,0 -0.296875,0.21875 C 0.4375,0 0.5625,0 0.59375,0 c 0.3125,0 1.078125,-0.03125 1.390625,-0.03125 0.234375,0 0.46875,0.015625 0.703125,0.015625 C 2.921875,-0.015625 3.15625,0 3.390625,0 c 0.078125,0 0.21875,0 0.21875,-0.21875 0,-0.125 -0.09375,-0.125 -0.3125,-0.125 -0.390625,0 -0.703125,0 -0.703125,-0.1875 0,-0.0625 0.03125,-0.125 0.03125,-0.1875 z m 0.796875,-3.25 c 0.09375,-0.375 0.109375,-0.40625 0.578125,-0.40625 H 5.71875 c 0.90625,0 1.484375,0.296875 1.484375,1.046875 0,0.421875 -0.21875,1.359375 -0.640625,1.75 -0.546875,0.5 -1.203125,0.578125 -1.671875,0.578125 H 3.34375 Z m 0,0"
           id="path17476" />
      </g>
    </g>
    <g
       style="fill:#000000;fill-opacity:1"
       id="g7212"
       transform="matrix(0.35277777,0,0,0.35277777,-41.715961,-111.34272)">
      <g
         id="use7210"
         transform="translate(455.755,328.48801)">
        <path
           style="stroke:none"
           d="m 3.9375,-2.28125 c 0.125,-0.046875 0.15625,-0.0625 0.15625,-0.140625 0,-0.046875 -0.046875,-0.109375 -0.109375,-0.109375 -0.015625,0 -0.234375,0.046875 -0.34375,0.0625 l -1.21875,0.25 -0.1875,-1.46875 c -0.015625,-0.125 -0.03125,-0.203125 -0.125,-0.203125 -0.09375,0 -0.09375,0.0625 -0.125,0.203125 L 1.8125,-2.21875 0.34375,-2.515625 0.234375,-2.53125 c -0.0625,0 -0.109375,0.0625 -0.109375,0.109375 0,0.078125 0.0625,0.109375 0.140625,0.140625 l 1.375,0.625 L 1,-0.53125 c -0.046875,0.09375 -0.15625,0.296875 -0.15625,0.3125 0,0.046875 0.03125,0.109375 0.109375,0.109375 0.015625,0 0.046875,0 0.09375,-0.03125 0.0625,-0.0625 0.21875,-0.234375 0.28125,-0.3125 l 0.78125,-0.84375 0.875,0.9375 c 0.03125,0.046875 0.125,0.140625 0.15625,0.171875 0.09375,0.078125 0.09375,0.078125 0.125,0.078125 0.078125,0 0.109375,-0.0625 0.109375,-0.109375 0,-0.046875 -0.6875,-1.265625 -0.78125,-1.4375 z m 0,0"
           id="path17200" />
      </g>
    </g>
    <path
       style="fill:none;stroke:#000000;stroke-width:0.140582;stroke-linecap:butt;stroke-linejoin:miter;stroke-miterlimit:10;stroke-opacity:1"
       d="m 137.91132,4.584741 c 0,-2.49287 -2.02021,-4.51445 -4.51308,-4.51445 -2.49287,0 -4.51445,2.02158 -4.51445,4.51445 0,2.49287 2.02158,4.51308 4.51445,4.51308 2.49287,0 4.51308,-2.02021 4.51308,-4.51308 z m 0,0"
       id="path7214" />
    <g
       style="fill:#000000;fill-opacity:1"
       id="g7218"
       transform="matrix(0.35277777,0,0,0.35277777,-41.715961,-111.34272)">
      <g
         id="use7216"
         transform="translate(489.621,332.44699)">
        <path
           style="stroke:none"
           d="M 6.84375,-6.203125 C 7.390625,-7.0625 7.84375,-7.09375 8.25,-7.109375 8.375,-7.125 8.390625,-7.3125 8.390625,-7.3125 c 0,-0.09375 -0.0625,-0.140625 -0.140625,-0.140625 -0.28125,0 -0.609375,0.03125 -0.90625,0.03125 -0.359375,0 -0.71875,-0.03125 -1.078125,-0.03125 -0.0625,0 -0.203125,0 -0.203125,0.21875 0,0.109375 0.09375,0.125 0.171875,0.125 0.296875,0.015625 0.5,0.125 0.5,0.359375 0,0.15625 -0.15625,0.40625 -0.15625,0.40625 l -3.34375,5.328125 -0.75,-5.765625 c 0,-0.1875 0.25,-0.328125 0.75,-0.328125 0.15625,0 0.28125,0 0.28125,-0.21875 0,-0.09375 -0.09375,-0.125 -0.15625,-0.125 -0.4375,0 -0.90625,0.03125 -1.359375,0.03125 -0.1875,0 -0.390625,0 -0.59375,0 -0.203125,0 -0.40625,-0.03125 -0.59375,-0.03125 -0.078125,0 -0.203125,0 -0.203125,0.21875 0,0.125 0.09375,0.125 0.28125,0.125 0.609375,0 0.609375,0.09375 0.640625,0.375 l 0.875,6.71875 c 0.03125,0.21875 0.0625,0.25 0.21875,0.25 0.171875,0 0.203125,-0.046875 0.296875,-0.1875 z m 0,0"
           id="path17248" />
      </g>
    </g>
    <g
       style="fill:#000000;fill-opacity:1"
       id="g7222"
       transform="matrix(0.35277777,0,0,0.35277777,-41.715961,-111.34272)">
      <g
         id="use7220"
         transform="translate(498.409,328.48801)">
        <path
           style="stroke:none"
           d="m 3.9375,-2.28125 c 0.125,-0.046875 0.15625,-0.0625 0.15625,-0.140625 0,-0.046875 -0.046875,-0.109375 -0.109375,-0.109375 -0.015625,0 -0.234375,0.046875 -0.34375,0.0625 l -1.21875,0.25 -0.1875,-1.46875 c -0.015625,-0.125 -0.03125,-0.203125 -0.125,-0.203125 -0.09375,0 -0.09375,0.0625 -0.125,0.203125 L 1.8125,-2.21875 0.34375,-2.515625 0.234375,-2.53125 c -0.0625,0 -0.109375,0.0625 -0.109375,0.109375 0,0.078125 0.0625,0.109375 0.140625,0.140625 l 1.375,0.625 L 1,-0.53125 c -0.046875,0.09375 -0.15625,0.296875 -0.15625,0.3125 0,0.046875 0.03125,0.109375 0.109375,0.109375 0.015625,0 0.046875,0 0.09375,-0.03125 0.0625,-0.0625 0.21875,-0.234375 0.28125,-0.3125 l 0.78125,-0.84375 0.875,0.9375 c 0.03125,0.046875 0.125,0.140625 0.15625,0.171875 0.09375,0.078125 0.09375,0.078125 0.125,0.078125 0.078125,0 0.109375,-0.0625 0.109375,-0.109375 0,-0.046875 -0.6875,-1.265625 -0.78125,-1.4375 z m 0,0"
           id="path17204" />
      </g>
    </g>
    <path
       style="fill:none;stroke:#000000;stroke-width:0.140582;stroke-linecap:butt;stroke-linejoin:miter;stroke-miterlimit:10;stroke-opacity:1"
       d="m 17.279232,24.584211 h 7.069335"
       id="path7224" />
    <path
       style="fill:none;stroke:#000000;stroke-width:0.140582;stroke-linecap:round;stroke-linejoin:round;stroke-miterlimit:10;stroke-opacity:1"
       d="m 23.688488,23.740851 c 0.133667,0.50712 0.429948,0.74552 0.730359,0.84336 -0.300411,0.0992 -0.596692,0.33762 -0.730359,0.84336"
       id="path7226" />
    <g
       style="fill:#000000;fill-opacity:1"
       id="g7230"
       transform="matrix(0.35277777,0,0,0.35277777,-41.715961,-111.34272)">
      <g
         id="use7228"
         transform="translate(171.974,379.83401)">
        <path
           style="stroke:none"
           d="M 2.890625,-4.0625 H 4.125 c -0.359375,1.609375 -0.453125,2.078125 -0.453125,2.8125 0,0.15625 0,0.453125 0.078125,0.828125 C 3.859375,0.046875 3.984375,0.125 4.140625,0.125 c 0.21875,0 0.453125,-0.203125 0.453125,-0.421875 0,-0.0625 0,-0.078125 -0.0625,-0.234375 C 4.203125,-1.3125 4.203125,-2.03125 4.203125,-2.328125 4.203125,-2.90625 4.28125,-3.5 4.40625,-4.0625 h 1.25 c 0.140625,0 0.53125,0 0.53125,-0.375 0,-0.265625 -0.234375,-0.265625 -0.4375,-0.265625 H 2.09375 c -0.234375,0 -0.65625,0 -1.140625,0.515625 -0.375,0.421875 -0.65625,0.921875 -0.65625,0.984375 0,0 0,0.109375 0.125,0.109375 0.09375,0 0.109375,-0.046875 0.171875,-0.140625 C 1.140625,-4.0625 1.765625,-4.0625 1.984375,-4.0625 h 0.625 C 2.25,-2.75 1.671875,-1.421875 1.203125,-0.4375 1.125,-0.265625 1.125,-0.25 1.125,-0.171875 1.125,0.03125 1.296875,0.125 1.4375,0.125 c 0.328125,0 0.421875,-0.3125 0.546875,-0.71875 0.15625,-0.5 0.15625,-0.515625 0.296875,-1.0625 z m 0,0"
           id="path17212" />
      </g>
    </g>
    <g
       style="fill:#000000;fill-opacity:1"
       id="g7234"
       transform="matrix(0.35277777,0,0,0.35277777,-41.715961,-111.34272)">
      <g
         id="use7232"
         transform="translate(178.19299,381.47101)">
        <path
           style="stroke:none"
           d="m 2.5,-5.078125 c 0,-0.21875 -0.015625,-0.21875 -0.234375,-0.21875 -0.328125,0.3125 -0.75,0.5 -1.5,0.5 v 0.265625 c 0.21875,0 0.640625,0 1.109375,-0.203125 v 4.078125 c 0,0.296875 -0.03125,0.390625 -0.78125,0.390625 H 0.8125 V 0 c 0.328125,-0.03125 1.015625,-0.03125 1.375,-0.03125 0.359375,0 1.046875,0 1.375,0.03125 V -0.265625 H 3.28125 c -0.75,0 -0.78125,-0.09375 -0.78125,-0.390625 z m 0,0"
           id="path17456" />
      </g>
    </g>
    <path
       style="fill:none;stroke:#000000;stroke-width:0.140582;stroke-linecap:butt;stroke-linejoin:miter;stroke-miterlimit:10;stroke-opacity:1"
       d="m 28.397242,20.536911 v -5.95174"
       id="path7236" />
    <path
       style="fill:none;stroke:#000000;stroke-width:0.140582;stroke-linecap:round;stroke-linejoin:round;stroke-miterlimit:10;stroke-opacity:1"
       d="m 29.240603,19.875451 c -0.507118,0.13367 -0.745518,0.43133 -0.843361,0.73174 -0.09922,-0.30041 -0.337619,-0.59807 -0.844737,-0.73174"
       id="path7238" />
    <path
       style="fill:none;stroke:#000000;stroke-width:0.140582;stroke-linecap:butt;stroke-linejoin:miter;stroke-miterlimit:10;stroke-opacity:1"
       d="M 28.397242,14.585171 H 118.3983"
       id="path7240" />
    <path
       style="fill:none;stroke:#000000;stroke-width:0.140582;stroke-linecap:butt;stroke-linejoin:miter;stroke-miterlimit:10;stroke-opacity:1"
       d="M 118.3983,14.585171 V 9.272831"
       id="path7242" />
    <path
       style="fill:none;stroke:#000000;stroke-width:0.140582;stroke-linecap:round;stroke-linejoin:round;stroke-miterlimit:10;stroke-opacity:1"
       d="m 117.55356,9.932911 c 0.50712,-0.13367 0.74552,-0.43133 0.84474,-0.73036 0.0978,0.29903 0.33624,0.59669 0.84335,0.73036"
       id="path7244" />
    <path
       style="fill:none;stroke:#000000;stroke-width:0.140582;stroke-linecap:butt;stroke-linejoin:miter;stroke-miterlimit:10;stroke-opacity:1"
       d="m 47.280501,24.584211 h 7.067957"
       id="path7246" />
    <path
       style="fill:none;stroke:#000000;stroke-width:0.140582;stroke-linecap:round;stroke-linejoin:round;stroke-miterlimit:10;stroke-opacity:1"
       d="m 53.688378,23.740851 c 0.133671,0.50712 0.43133,0.74552 0.73036,0.84336 -0.29903,0.0992 -0.596689,0.33762 -0.73036,0.84336"
       id="path7248" />
    <g
       style="fill:#000000;fill-opacity:1"
       id="g7252"
       transform="matrix(0.35277777,0,0,0.35277777,-41.715961,-111.34272)">
      <g
         id="use7250"
         transform="translate(257.01401,379.83401)">
        <path
           style="stroke:none"
           d="M 2.890625,-4.0625 H 4.125 c -0.359375,1.609375 -0.453125,2.078125 -0.453125,2.8125 0,0.15625 0,0.453125 0.078125,0.828125 C 3.859375,0.046875 3.984375,0.125 4.140625,0.125 c 0.21875,0 0.453125,-0.203125 0.453125,-0.421875 0,-0.0625 0,-0.078125 -0.0625,-0.234375 C 4.203125,-1.3125 4.203125,-2.03125 4.203125,-2.328125 4.203125,-2.90625 4.28125,-3.5 4.40625,-4.0625 h 1.25 c 0.140625,0 0.53125,0 0.53125,-0.375 0,-0.265625 -0.234375,-0.265625 -0.4375,-0.265625 H 2.09375 c -0.234375,0 -0.65625,0 -1.140625,0.515625 -0.375,0.421875 -0.65625,0.921875 -0.65625,0.984375 0,0 0,0.109375 0.125,0.109375 0.09375,0 0.109375,-0.046875 0.171875,-0.140625 C 1.140625,-4.0625 1.765625,-4.0625 1.984375,-4.0625 h 0.625 C 2.25,-2.75 1.671875,-1.421875 1.203125,-0.4375 1.125,-0.265625 1.125,-0.25 1.125,-0.171875 1.125,0.03125 1.296875,0.125 1.4375,0.125 c 0.328125,0 0.421875,-0.3125 0.546875,-0.71875 0.15625,-0.5 0.15625,-0.515625 0.296875,-1.0625 z m 0,0"
           id="path17216" />
      </g>
    </g>
    <g
       style="fill:#000000;fill-opacity:1"
       id="g7256"
       transform="matrix(0.35277777,0,0,0.35277777,-41.715961,-111.34272)">
      <g
         id="use7254"
         transform="translate(263.23199,381.47101)">
        <path
           style="stroke:none"
           d="m 2.25,-1.625 c 0.125,-0.125 0.453125,-0.390625 0.59375,-0.5 0.484375,-0.453125 0.953125,-0.890625 0.953125,-1.609375 0,-0.953125 -0.796875,-1.5625 -1.78125,-1.5625 -0.96875,0 -1.59375,0.71875 -1.59375,1.4375 0,0.390625 0.3125,0.4375 0.421875,0.4375 0.171875,0 0.421875,-0.109375 0.421875,-0.421875 0,-0.40625 -0.40625,-0.40625 -0.5,-0.40625 C 1,-4.84375 1.53125,-5.03125 1.921875,-5.03125 c 0.734375,0 1.125,0.625 1.125,1.296875 0,0.828125 -0.578125,1.4375 -1.53125,2.390625 l -1,1.046875 C 0.421875,-0.21875 0.421875,-0.203125 0.421875,0 H 3.5625 l 0.234375,-1.421875 h -0.25 C 3.53125,-1.265625 3.46875,-0.875 3.375,-0.71875 c -0.046875,0.0625 -0.65625,0.0625 -0.78125,0.0625 H 1.171875 Z m 0,0"
           id="path17452" />
      </g>
    </g>
    <path
       style="fill:none;stroke:#000000;stroke-width:0.140582;stroke-linecap:butt;stroke-linejoin:miter;stroke-miterlimit:10;stroke-opacity:1"
       d="m 58.397138,20.536911 v -5.95174"
       id="path7258" />
    <path
       style="fill:none;stroke:#000000;stroke-width:0.140582;stroke-linecap:round;stroke-linejoin:round;stroke-miterlimit:10;stroke-opacity:1"
       d="m 59.240488,19.875451 c -0.50573,0.13367 -0.74551,0.43133 -0.84335,0.73174 -0.0992,-0.30041 -0.33763,-0.59807 -0.84336,-0.73174"
       id="path7260" />
    <path
       style="fill:none;stroke:#000000;stroke-width:0.140582;stroke-linecap:butt;stroke-linejoin:miter;stroke-miterlimit:10;stroke-opacity:1"
       d="m 77.280388,24.584211 h 7.06934"
       id="path7262" />
    <path
       style="fill:none;stroke:#000000;stroke-width:0.140582;stroke-linecap:round;stroke-linejoin:round;stroke-miterlimit:10;stroke-opacity:1"
       d="m 83.688268,23.740851 c 0.13367,0.50712 0.43133,0.74552 0.73174,0.84336 -0.30041,0.0992 -0.59807,0.33762 -0.73174,0.84336"
       id="path7264" />
    <g
       style="fill:#000000;fill-opacity:1"
       id="g7268"
       transform="matrix(0.35277777,0,0,0.35277777,-41.715961,-111.34272)">
      <g
         id="use7266"
         transform="translate(342.05301,379.83401)">
        <path
           style="stroke:none"
           d="M 2.890625,-4.0625 H 4.125 c -0.359375,1.609375 -0.453125,2.078125 -0.453125,2.8125 0,0.15625 0,0.453125 0.078125,0.828125 C 3.859375,0.046875 3.984375,0.125 4.140625,0.125 c 0.21875,0 0.453125,-0.203125 0.453125,-0.421875 0,-0.0625 0,-0.078125 -0.0625,-0.234375 C 4.203125,-1.3125 4.203125,-2.03125 4.203125,-2.328125 4.203125,-2.90625 4.28125,-3.5 4.40625,-4.0625 h 1.25 c 0.140625,0 0.53125,0 0.53125,-0.375 0,-0.265625 -0.234375,-0.265625 -0.4375,-0.265625 H 2.09375 c -0.234375,0 -0.65625,0 -1.140625,0.515625 -0.375,0.421875 -0.65625,0.921875 -0.65625,0.984375 0,0 0,0.109375 0.125,0.109375 0.09375,0 0.109375,-0.046875 0.171875,-0.140625 C 1.140625,-4.0625 1.765625,-4.0625 1.984375,-4.0625 h 0.625 C 2.25,-2.75 1.671875,-1.421875 1.203125,-0.4375 1.125,-0.265625 1.125,-0.25 1.125,-0.171875 1.125,0.03125 1.296875,0.125 1.4375,0.125 c 0.328125,0 0.421875,-0.3125 0.546875,-0.71875 0.15625,-0.5 0.15625,-0.515625 0.296875,-1.0625 z m 0,0"
           id="path17220" />
      </g>
    </g>
    <g
       style="fill:#000000;fill-opacity:1"
       id="g7272"
       transform="matrix(0.35277777,0,0,0.35277777,-41.715961,-111.34272)">
      <g
         id="use7270"
         transform="translate(348.272,381.47101)">
        <path
           style="stroke:none"
           d="m 2.015625,-2.65625 c 0.625,0 1.03125,0.453125 1.03125,1.296875 0,1 -0.5625,1.28125 -0.984375,1.28125 -0.4375,0 -1.046875,-0.15625 -1.328125,-0.578125 0.296875,0 0.5,-0.1875 0.5,-0.4375 0,-0.265625 -0.1875,-0.4375 -0.453125,-0.4375 -0.203125,0 -0.4375,0.125 -0.4375,0.453125 0,0.75 0.8125,1.25 1.734375,1.25 C 3.125,0.171875 3.875,-0.5625 3.875,-1.359375 3.875,-2.03125 3.34375,-2.625 2.53125,-2.8125 c 0.625,-0.21875 1.109375,-0.75 1.109375,-1.390625 0,-0.640625 -0.71875,-1.09375 -1.546875,-1.09375 -0.859375,0 -1.5,0.453125 -1.5,1.0625 0,0.296875 0.1875,0.421875 0.40625,0.421875 0.25,0 0.40625,-0.171875 0.40625,-0.40625 0,-0.296875 -0.265625,-0.40625 -0.4375,-0.40625 0.34375,-0.4375 0.953125,-0.46875 1.09375,-0.46875 0.203125,0 0.8125,0.0625 0.8125,0.890625 0,0.546875 -0.234375,0.890625 -0.34375,1.015625 -0.234375,0.25 -0.421875,0.265625 -0.90625,0.296875 -0.15625,0 -0.21875,0.015625 -0.21875,0.125 0,0.109375 0.078125,0.109375 0.21875,0.109375 z m 0,0"
           id="path17448" />
      </g>
    </g>
    <path
       style="fill:none;stroke:#000000;stroke-width:0.140582;stroke-linecap:butt;stroke-linejoin:miter;stroke-miterlimit:10;stroke-opacity:1"
       d="m 88.397028,20.536911 v -5.95174"
       id="path7274" />
    <path
       style="fill:none;stroke:#000000;stroke-width:0.140582;stroke-linecap:round;stroke-linejoin:round;stroke-miterlimit:10;stroke-opacity:1"
       d="m 89.240378,19.875451 c -0.50573,0.13367 -0.74413,0.43133 -0.84335,0.73174 -0.0978,-0.30041 -0.33762,-0.59807 -0.84336,-0.73174"
       id="path7276" />
    <path
       style="fill:none;stroke:#000000;stroke-width:0.140582;stroke-linecap:butt;stroke-linejoin:miter;stroke-miterlimit:10;stroke-opacity:1"
       d="m 107.28028,24.584211 h 7.06934"
       id="path7278" />
    <path
       style="fill:none;stroke:#000000;stroke-width:0.140582;stroke-linecap:round;stroke-linejoin:round;stroke-miterlimit:10;stroke-opacity:1"
       d="m 113.68954,23.740851 c 0.13367,0.50712 0.43133,0.74552 0.73036,0.84336 -0.29903,0.0992 -0.59669,0.33762 -0.73036,0.84336"
       id="path7280" />
    <g
       style="fill:#000000;fill-opacity:1"
       id="g7284"
       transform="matrix(0.35277777,0,0,0.35277777,-41.715961,-111.34272)">
      <g
         id="use7282"
         transform="translate(427.09201,379.83401)">
        <path
           style="stroke:none"
           d="M 2.890625,-4.0625 H 4.125 c -0.359375,1.609375 -0.453125,2.078125 -0.453125,2.8125 0,0.15625 0,0.453125 0.078125,0.828125 C 3.859375,0.046875 3.984375,0.125 4.140625,0.125 c 0.21875,0 0.453125,-0.203125 0.453125,-0.421875 0,-0.0625 0,-0.078125 -0.0625,-0.234375 C 4.203125,-1.3125 4.203125,-2.03125 4.203125,-2.328125 4.203125,-2.90625 4.28125,-3.5 4.40625,-4.0625 h 1.25 c 0.140625,0 0.53125,0 0.53125,-0.375 0,-0.265625 -0.234375,-0.265625 -0.4375,-0.265625 H 2.09375 c -0.234375,0 -0.65625,0 -1.140625,0.515625 -0.375,0.421875 -0.65625,0.921875 -0.65625,0.984375 0,0 0,0.109375 0.125,0.109375 0.09375,0 0.109375,-0.046875 0.171875,-0.140625 C 1.140625,-4.0625 1.765625,-4.0625 1.984375,-4.0625 h 0.625 C 2.25,-2.75 1.671875,-1.421875 1.203125,-0.4375 1.125,-0.265625 1.125,-0.25 1.125,-0.171875 1.125,0.03125 1.296875,0.125 1.4375,0.125 c 0.328125,0 0.421875,-0.3125 0.546875,-0.71875 0.15625,-0.5 0.15625,-0.515625 0.296875,-1.0625 z m 0,0"
           id="path17224" />
      </g>
    </g>
    <g
       style="fill:#000000;fill-opacity:1"
       id="g7288"
       transform="matrix(0.35277777,0,0,0.35277777,-41.715961,-111.34272)">
      <g
         id="use7286"
         transform="translate(433.311,381.47101)">
        <path
           style="stroke:none"
           d="m 3.140625,-5.15625 c 0,-0.15625 0,-0.21875 -0.171875,-0.21875 -0.09375,0 -0.109375,0 -0.1875,0.109375 L 0.234375,-1.5625 v 0.25 h 2.25 v 0.671875 c 0,0.296875 -0.015625,0.375 -0.640625,0.375 H 1.671875 V 0 c 0.671875,-0.03125 0.6875,-0.03125 1.140625,-0.03125 0.453125,0 0.46875,0 1.140625,0.03125 V -0.265625 H 3.78125 c -0.625,0 -0.640625,-0.078125 -0.640625,-0.375 V -1.3125 h 0.84375 v -0.25 h -0.84375 z m -0.59375,0.640625 V -1.5625 h -2.03125 z m 0,0"
           id="path17444" />
      </g>
    </g>
    <path
       style="fill:none;stroke:#000000;stroke-width:0.140582;stroke-linecap:butt;stroke-linejoin:miter;stroke-miterlimit:10;stroke-opacity:1"
       d="m 118.3983,20.536911 v -5.95174"
       id="path7290" />
    <path
       style="fill:none;stroke:#000000;stroke-width:0.140582;stroke-linecap:round;stroke-linejoin:round;stroke-miterlimit:10;stroke-opacity:1"
       d="m 119.24165,19.875451 c -0.50711,0.13367 -0.74551,0.43133 -0.84335,0.73174 -0.0992,-0.30041 -0.33762,-0.59807 -0.84474,-0.73174"
       id="path7292" />
    <path
       style="fill:none;stroke:#000000;stroke-width:0.140582;stroke-linecap:butt;stroke-linejoin:miter;stroke-miterlimit:10;stroke-opacity:1"
       d="m 118.3983,14.585171 v 0"
       id="path7294" />
    <path
       style="fill:none;stroke:#000000;stroke-width:0.140582;stroke-linecap:butt;stroke-linejoin:miter;stroke-miterlimit:10;stroke-opacity:1"
       d="M 118.3983,14.585171 V 9.272831"
       id="path7296" />
    <path
       style="fill:none;stroke:#000000;stroke-width:0.140582;stroke-linecap:round;stroke-linejoin:round;stroke-miterlimit:10;stroke-opacity:1"
       d="m 117.55356,9.932911 c 0.50712,-0.13367 0.74552,-0.43133 0.84474,-0.73036 0.0978,0.29903 0.33624,0.59669 0.84335,0.73036"
       id="path7298" />
    <path
       style="fill:none;stroke:#000000;stroke-width:0.140582;stroke-linecap:butt;stroke-linejoin:miter;stroke-miterlimit:10;stroke-opacity:1"
       d="m 122.94445,4.584741 h 5.7285"
       id="path7300" />
    <path
       style="fill:none;stroke:#000000;stroke-width:0.140582;stroke-linecap:round;stroke-linejoin:round;stroke-miterlimit:10;stroke-opacity:1"
       d="m 128.01287,3.741381 c 0.13367,0.50574 0.43132,0.74414 0.73036,0.84336 -0.29904,0.0978 -0.59669,0.33762 -0.73036,0.84336"
       id="path7302" />
    <g
       style="fill:#000000;fill-opacity:1"
       id="g7306"
       transform="matrix(0.35277777,0,0,0.35277777,-41.715961,-111.34272)">
      <g
         id="use7304"
         transform="translate(469.39801,324.77802)">
        <path
           style="stroke:none"
           d="M 2.890625,-4.0625 H 4.125 c -0.359375,1.609375 -0.453125,2.078125 -0.453125,2.8125 0,0.15625 0,0.453125 0.078125,0.828125 C 3.859375,0.046875 3.984375,0.125 4.140625,0.125 c 0.21875,0 0.453125,-0.203125 0.453125,-0.421875 0,-0.0625 0,-0.078125 -0.0625,-0.234375 C 4.203125,-1.3125 4.203125,-2.03125 4.203125,-2.328125 4.203125,-2.90625 4.28125,-3.5 4.40625,-4.0625 h 1.25 c 0.140625,0 0.53125,0 0.53125,-0.375 0,-0.265625 -0.234375,-0.265625 -0.4375,-0.265625 H 2.09375 c -0.234375,0 -0.65625,0 -1.140625,0.515625 -0.375,0.421875 -0.65625,0.921875 -0.65625,0.984375 0,0 0,0.109375 0.125,0.109375 0.09375,0 0.109375,-0.046875 0.171875,-0.140625 C 1.140625,-4.0625 1.765625,-4.0625 1.984375,-4.0625 h 0.625 C 2.25,-2.75 1.671875,-1.421875 1.203125,-0.4375 1.125,-0.265625 1.125,-0.25 1.125,-0.171875 1.125,0.03125 1.296875,0.125 1.4375,0.125 c 0.328125,0 0.421875,-0.3125 0.546875,-0.71875 0.15625,-0.5 0.15625,-0.515625 0.296875,-1.0625 z m 0,0"
           id="path17228" />
      </g>
    </g>
    <g
       style="fill:#000000;fill-opacity:1"
       id="g7310"
       transform="matrix(0.35277777,0,0,0.35277777,-41.715961,-111.34272)">
      <g
         id="use7308"
         transform="translate(476.008,320.819)">
        <path
           style="stroke:none"
           d="m 3.9375,-2.28125 c 0.125,-0.046875 0.15625,-0.0625 0.15625,-0.140625 0,-0.046875 -0.046875,-0.109375 -0.109375,-0.109375 -0.015625,0 -0.234375,0.046875 -0.34375,0.0625 l -1.21875,0.25 -0.1875,-1.46875 c -0.015625,-0.125 -0.03125,-0.203125 -0.125,-0.203125 -0.09375,0 -0.09375,0.0625 -0.125,0.203125 L 1.8125,-2.21875 0.34375,-2.515625 0.234375,-2.53125 c -0.0625,0 -0.109375,0.0625 -0.109375,0.109375 0,0.078125 0.0625,0.109375 0.140625,0.140625 l 1.375,0.625 L 1,-0.53125 c -0.046875,0.09375 -0.15625,0.296875 -0.15625,0.3125 0,0.046875 0.03125,0.109375 0.109375,0.109375 0.015625,0 0.046875,0 0.09375,-0.03125 0.0625,-0.0625 0.21875,-0.234375 0.28125,-0.3125 l 0.78125,-0.84375 0.875,0.9375 c 0.03125,0.046875 0.125,0.140625 0.15625,0.171875 0.09375,0.078125 0.09375,0.078125 0.125,0.078125 0.078125,0 0.109375,-0.0625 0.109375,-0.109375 0,-0.046875 -0.6875,-1.265625 -0.78125,-1.4375 z m 0,0"
           id="path17208" />
      </g>
    </g>
    <path
       style="fill:none;stroke:#000000;stroke-width:0.140582;stroke-linecap:butt;stroke-linejoin:miter;stroke-miterlimit:10;stroke-opacity:1"
       d="m 0.070291,42.578631 h 26.651257 v -5.98758 H 0.070291 Z m 0,0"
       id="path7312" />
    <g
       style="fill:#000000;fill-opacity:1"
       id="g7336"
       transform="matrix(0.35277777,0,0,0.35277777,-41.715961,-111.34272)">
      <g
         id="use7314"
         transform="translate(122.087,430.55301)">
        <path
           style="stroke:none"
           d="M 6.34375,-1.25 C 5.703125,-0.8125 5.328125,-0.59375 4.25,-0.59375 c -1.5625,0 -2.546875,-1.625 -2.546875,-3.203125 0,-1.484375 0.90625,-3.1875 2.578125,-3.1875 0.765625,0 1.265625,0.171875 1.859375,0.5625 L 6.296875,-7.3125 c -0.46875,-0.234375 -1.3125,-0.375 -2.015625,-0.375 -2.015625,0 -3.5625,1.703125 -3.5625,3.984375 0,1.734375 1.296875,3.828125 3.5625,3.828125 1.015625,0 1.421875,-0.171875 2.125,-0.609375 z m 0,0"
           id="path17428" />
      </g>
      <g
         id="use7316"
         transform="translate(129.05682,430.55301)">
        <path
           style="stroke:none"
           d="m 5.109375,-2.40625 c 0,-1.453125 -1.078125,-2.625 -2.390625,-2.625 -1.328125,0 -2.390625,1.203125 -2.390625,2.625 0,1.453125 1.109375,2.53125 2.390625,2.53125 1.3125,0 2.390625,-1.109375 2.390625,-2.53125 z M 2.71875,-0.578125 c -0.75,0 -1.546875,-0.609375 -1.546875,-1.9375 0,-1.3125 0.828125,-1.84375 1.546875,-1.84375 0.765625,0 1.546875,0.5625 1.546875,1.84375 0,1.296875 -0.75,1.9375 -1.546875,1.9375 z m 0,0"
           id="path17396" />
      </g>
      <g
         id="use7318"
         transform="translate(134.51137,430.55301)">
        <path
           style="stroke:none"
           d="m 7.78125,-3.25 c 0,-0.734375 -0.171875,-1.71875 -1.5,-1.71875 -0.65625,0 -1.21875,0.3125 -1.625,0.90625 C 4.375,-4.890625 3.609375,-4.96875 3.265625,-4.96875 c -0.796875,0 -1.296875,0.453125 -1.59375,0.84375 V -4.90625 H 0.890625 V 0 h 0.84375 v -2.671875 c 0,-0.734375 0.296875,-1.625 1.09375,-1.625 1.015625,0 1.078125,0.703125 1.078125,1.125 V 0 H 4.75 v -2.671875 c 0,-0.734375 0.296875,-1.625 1.109375,-1.625 1.015625,0 1.0625,0.703125 1.0625,1.125 V 0 H 7.78125 Z m 0,0"
           id="path17380" />
      </g>
      <g
         id="use7320"
         transform="translate(143.17757,430.55301)">
        <path
           style="stroke:none"
           d="m 1.75,-0.5 c 0.328125,0.3125 0.8125,0.625 1.46875,0.625 1.0625,0 2.015625,-1.078125 2.015625,-2.5625 0,-1.296875 -0.6875,-2.53125 -1.734375,-2.53125 -0.65625,0 -1.28125,0.234375 -1.78125,0.65625 V -4.84375 H 0.890625 V 2.109375 H 1.75 Z m 0,-3.125 C 2,-4.015625 2.4375,-4.265625 2.90625,-4.265625 c 0.828125,0 1.484375,0.828125 1.484375,1.828125 0,1.125 -0.78125,1.890625 -1.59375,1.890625 -0.4375,0 -0.71875,-0.21875 -0.9375,-0.515625 C 1.75,-1.21875 1.75,-1.25 1.75,-1.4375 Z m 0,0"
           id="path17364" />
      </g>
      <g
         id="use7322"
         transform="translate(148.8143,430.55301)">
        <path
           style="stroke:none"
           d="M 4.75,-4.84375 H 3.890625 v 3.171875 c 0,0.8125 -0.609375,1.1875 -1.3125,1.1875 -0.765625,0 -0.84375,-0.28125 -0.84375,-0.75 V -4.84375 h -0.84375 v 3.65625 c 0,0.78125 0.25,1.3125 1.15625,1.3125 0.578125,0 1.34375,-0.171875 1.875,-0.65625 V 0 H 4.75 Z m 0,0"
           id="path17348" />
      </g>
      <g
         id="use7324"
         transform="translate(154.45103,430.55301)">
        <path
           style="stroke:none"
           d="M 1.90625,-4.203125 H 3.453125 V -4.84375 H 1.90625 v -1.390625 h -0.75 V -4.84375 H 0.203125 v 0.640625 H 1.125 v 2.90625 c 0,0.65625 0.15625,1.421875 0.90625,1.421875 0.765625,0 1.3125,-0.28125 1.59375,-0.421875 L 3.453125,-0.9375 C 3.15625,-0.703125 2.8125,-0.578125 2.46875,-0.578125 c -0.40625,0 -0.5625,-0.328125 -0.5625,-0.90625 z m 0,0"
           id="path17316" />
      </g>
      <g
         id="use7326"
         transform="translate(158.3903,430.55301)">
        <path
           style="stroke:none"
           d="m 4.359375,-3.15625 c 0,-1.109375 -0.796875,-1.875 -1.8125,-1.875 -0.703125,0 -1.1875,0.171875 -1.703125,0.46875 l 0.0625,0.71875 c 0.5625,-0.40625 1.109375,-0.546875 1.640625,-0.546875 0.515625,0 0.953125,0.4375 0.953125,1.25 v 0.46875 c -1.640625,0.015625 -3.015625,0.484375 -3.015625,1.4375 0,0.46875 0.296875,1.359375 1.234375,1.359375 0.15625,0 1.1875,-0.03125 1.8125,-0.515625 V 0 H 4.359375 Z M 3.5,-1.4375 c 0,0.203125 0,0.484375 -0.375,0.6875 -0.3125,0.1875 -0.71875,0.203125 -0.84375,0.203125 -0.53125,0 -1.015625,-0.25 -1.015625,-0.703125 0,-0.765625 1.765625,-0.84375 2.234375,-0.859375 z m 0,0"
           id="path17300" />
      </g>
      <g
         id="use7328"
         transform="translate(163.63321,430.55301)">
        <path
           style="stroke:none"
           d="M 1.90625,-4.203125 H 3.453125 V -4.84375 H 1.90625 v -1.390625 h -0.75 V -4.84375 H 0.203125 v 0.640625 H 1.125 v 2.90625 c 0,0.65625 0.15625,1.421875 0.90625,1.421875 0.765625,0 1.3125,-0.28125 1.59375,-0.421875 L 3.453125,-0.9375 C 3.15625,-0.703125 2.8125,-0.578125 2.46875,-0.578125 c -0.40625,0 -0.5625,-0.328125 -0.5625,-0.90625 z m 0,0"
           id="path17320" />
      </g>
      <g
         id="use7330"
         transform="translate(167.57249,430.55301)">
        <path
           style="stroke:none"
           d="M 1.78125,-7.421875 H 0.8125 v 0.96875 H 1.78125 Z M 1.703125,-4.84375 h -0.8125 V 0 h 0.8125 z m 0,0"
           id="path17284" />
      </g>
      <g
         id="use7332"
         transform="translate(170.17868,430.55301)">
        <path
           style="stroke:none"
           d="m 5.109375,-2.40625 c 0,-1.453125 -1.078125,-2.625 -2.390625,-2.625 -1.328125,0 -2.390625,1.203125 -2.390625,2.625 0,1.453125 1.109375,2.53125 2.390625,2.53125 1.3125,0 2.390625,-1.109375 2.390625,-2.53125 z M 2.71875,-0.578125 c -0.75,0 -1.546875,-0.609375 -1.546875,-1.9375 0,-1.3125 0.828125,-1.84375 1.546875,-1.84375 0.765625,0 1.546875,0.5625 1.546875,1.84375 0,1.296875 -0.75,1.9375 -1.546875,1.9375 z m 0,0"
           id="path17400" />
      </g>
      <g
         id="use7334"
         transform="translate(175.63322,430.55301)">
        <path
           style="stroke:none"
           d="m 4.75,-3.25 c 0,-0.71875 -0.171875,-1.71875 -1.5,-1.71875 -0.984375,0 -1.515625,0.75 -1.578125,0.828125 V -4.90625 H 0.890625 V 0 h 0.84375 v -2.671875 c 0,-0.71875 0.265625,-1.625 1.09375,-1.625 1.046875,0 1.0625,0.78125 1.0625,1.125 V 0 H 4.75 Z m 0,0"
           id="path17268" />
      </g>
    </g>
    <g
       style="fill:#000000;fill-opacity:1"
       id="g7340"
       transform="matrix(0.35277777,0,0,0.35277777,-41.715961,-111.34272)">
      <g
         id="use7338"
         transform="translate(184.90269,430.55301)">
        <path
           style="stroke:none"
           d="M 3.265625,-7.390625 H 3.046875 C 2.40625,-6.734375 1.5,-6.703125 0.96875,-6.671875 v 0.625 c 0.359375,0 0.890625,-0.03125 1.4375,-0.25 V -0.625 h -1.375 V 0 H 4.625 V -0.625 H 3.265625 Z m 0,0"
           id="path17264" />
      </g>
    </g>
    <path
       style="fill:none;stroke:#000000;stroke-width:0.140582;stroke-linecap:butt;stroke-linejoin:miter;stroke-miterlimit:10;stroke-opacity:1"
       d="m 13.395921,36.520771 v -7.91269"
       id="path7342" />
    <path
       style="fill:none;stroke:#000000;stroke-width:0.140582;stroke-linecap:round;stroke-linejoin:round;stroke-miterlimit:10;stroke-opacity:1"
       d="m 12.55256,29.269541 c 0.507118,-0.13367 0.745518,-0.43133 0.843361,-0.73174 0.09922,0.30041 0.337619,0.59807 0.843358,0.73174"
       id="path7344" />
    <path
       style="fill:none;stroke:#000000;stroke-width:0.140582;stroke-linecap:butt;stroke-linejoin:miter;stroke-miterlimit:10;stroke-opacity:1"
       d="m 30.071561,42.578631 h 26.651257 v -5.98758 H 30.071561 Z m 0,0"
       id="path7346" />
    <g
       style="fill:#000000;fill-opacity:1"
       id="g7370"
       transform="matrix(0.35277777,0,0,0.35277777,-41.715961,-111.34272)">
      <g
         id="use7348"
         transform="translate(207.127,430.55301)">
        <path
           style="stroke:none"
           d="M 6.34375,-1.25 C 5.703125,-0.8125 5.328125,-0.59375 4.25,-0.59375 c -1.5625,0 -2.546875,-1.625 -2.546875,-3.203125 0,-1.484375 0.90625,-3.1875 2.578125,-3.1875 0.765625,0 1.265625,0.171875 1.859375,0.5625 L 6.296875,-7.3125 c -0.46875,-0.234375 -1.3125,-0.375 -2.015625,-0.375 -2.015625,0 -3.5625,1.703125 -3.5625,3.984375 0,1.734375 1.296875,3.828125 3.5625,3.828125 1.015625,0 1.421875,-0.171875 2.125,-0.609375 z m 0,0"
           id="path17432" />
      </g>
      <g
         id="use7350"
         transform="translate(214.09682,430.55301)">
        <path
           style="stroke:none"
           d="m 5.109375,-2.40625 c 0,-1.453125 -1.078125,-2.625 -2.390625,-2.625 -1.328125,0 -2.390625,1.203125 -2.390625,2.625 0,1.453125 1.109375,2.53125 2.390625,2.53125 1.3125,0 2.390625,-1.109375 2.390625,-2.53125 z M 2.71875,-0.578125 c -0.75,0 -1.546875,-0.609375 -1.546875,-1.9375 0,-1.3125 0.828125,-1.84375 1.546875,-1.84375 0.765625,0 1.546875,0.5625 1.546875,1.84375 0,1.296875 -0.75,1.9375 -1.546875,1.9375 z m 0,0"
           id="path17404" />
      </g>
      <g
         id="use7352"
         transform="translate(219.55138,430.55301)">
        <path
           style="stroke:none"
           d="m 7.78125,-3.25 c 0,-0.734375 -0.171875,-1.71875 -1.5,-1.71875 -0.65625,0 -1.21875,0.3125 -1.625,0.90625 C 4.375,-4.890625 3.609375,-4.96875 3.265625,-4.96875 c -0.796875,0 -1.296875,0.453125 -1.59375,0.84375 V -4.90625 H 0.890625 V 0 h 0.84375 v -2.671875 c 0,-0.734375 0.296875,-1.625 1.09375,-1.625 1.015625,0 1.078125,0.703125 1.078125,1.125 V 0 H 4.75 v -2.671875 c 0,-0.734375 0.296875,-1.625 1.109375,-1.625 1.015625,0 1.0625,0.703125 1.0625,1.125 V 0 H 7.78125 Z m 0,0"
           id="path17384" />
      </g>
      <g
         id="use7354"
         transform="translate(228.21756,430.55301)">
        <path
           style="stroke:none"
           d="m 1.75,-0.5 c 0.328125,0.3125 0.8125,0.625 1.46875,0.625 1.0625,0 2.015625,-1.078125 2.015625,-2.5625 0,-1.296875 -0.6875,-2.53125 -1.734375,-2.53125 -0.65625,0 -1.28125,0.234375 -1.78125,0.65625 V -4.84375 H 0.890625 V 2.109375 H 1.75 Z m 0,-3.125 C 2,-4.015625 2.4375,-4.265625 2.90625,-4.265625 c 0.828125,0 1.484375,0.828125 1.484375,1.828125 0,1.125 -0.78125,1.890625 -1.59375,1.890625 -0.4375,0 -0.71875,-0.21875 -0.9375,-0.515625 C 1.75,-1.21875 1.75,-1.25 1.75,-1.4375 Z m 0,0"
           id="path17368" />
      </g>
      <g
         id="use7356"
         transform="translate(233.85429,430.55301)">
        <path
           style="stroke:none"
           d="M 4.75,-4.84375 H 3.890625 v 3.171875 c 0,0.8125 -0.609375,1.1875 -1.3125,1.1875 -0.765625,0 -0.84375,-0.28125 -0.84375,-0.75 V -4.84375 h -0.84375 v 3.65625 c 0,0.78125 0.25,1.3125 1.15625,1.3125 0.578125,0 1.34375,-0.171875 1.875,-0.65625 V 0 H 4.75 Z m 0,0"
           id="path17352" />
      </g>
      <g
         id="use7358"
         transform="translate(239.49103,430.55301)">
        <path
           style="stroke:none"
           d="M 1.90625,-4.203125 H 3.453125 V -4.84375 H 1.90625 v -1.390625 h -0.75 V -4.84375 H 0.203125 v 0.640625 H 1.125 v 2.90625 c 0,0.65625 0.15625,1.421875 0.90625,1.421875 0.765625,0 1.3125,-0.28125 1.59375,-0.421875 L 3.453125,-0.9375 C 3.15625,-0.703125 2.8125,-0.578125 2.46875,-0.578125 c -0.40625,0 -0.5625,-0.328125 -0.5625,-0.90625 z m 0,0"
           id="path17324" />
      </g>
      <g
         id="use7360"
         transform="translate(243.4303,430.55301)">
        <path
           style="stroke:none"
           d="m 4.359375,-3.15625 c 0,-1.109375 -0.796875,-1.875 -1.8125,-1.875 -0.703125,0 -1.1875,0.171875 -1.703125,0.46875 l 0.0625,0.71875 c 0.5625,-0.40625 1.109375,-0.546875 1.640625,-0.546875 0.515625,0 0.953125,0.4375 0.953125,1.25 v 0.46875 c -1.640625,0.015625 -3.015625,0.484375 -3.015625,1.4375 0,0.46875 0.296875,1.359375 1.234375,1.359375 0.15625,0 1.1875,-0.03125 1.8125,-0.515625 V 0 H 4.359375 Z M 3.5,-1.4375 c 0,0.203125 0,0.484375 -0.375,0.6875 -0.3125,0.1875 -0.71875,0.203125 -0.84375,0.203125 -0.53125,0 -1.015625,-0.25 -1.015625,-0.703125 0,-0.765625 1.765625,-0.84375 2.234375,-0.859375 z m 0,0"
           id="path17304" />
      </g>
      <g
         id="use7362"
         transform="translate(248.67322,430.55301)">
        <path
           style="stroke:none"
           d="M 1.90625,-4.203125 H 3.453125 V -4.84375 H 1.90625 v -1.390625 h -0.75 V -4.84375 H 0.203125 v 0.640625 H 1.125 v 2.90625 c 0,0.65625 0.15625,1.421875 0.90625,1.421875 0.765625,0 1.3125,-0.28125 1.59375,-0.421875 L 3.453125,-0.9375 C 3.15625,-0.703125 2.8125,-0.578125 2.46875,-0.578125 c -0.40625,0 -0.5625,-0.328125 -0.5625,-0.90625 z m 0,0"
           id="path17328" />
      </g>
      <g
         id="use7364"
         transform="translate(252.61249,430.55301)">
        <path
           style="stroke:none"
           d="M 1.78125,-7.421875 H 0.8125 v 0.96875 H 1.78125 Z M 1.703125,-4.84375 h -0.8125 V 0 h 0.8125 z m 0,0"
           id="path17288" />
      </g>
      <g
         id="use7366"
         transform="translate(255.21867,430.55301)">
        <path
           style="stroke:none"
           d="m 5.109375,-2.40625 c 0,-1.453125 -1.078125,-2.625 -2.390625,-2.625 -1.328125,0 -2.390625,1.203125 -2.390625,2.625 0,1.453125 1.109375,2.53125 2.390625,2.53125 1.3125,0 2.390625,-1.109375 2.390625,-2.53125 z M 2.71875,-0.578125 c -0.75,0 -1.546875,-0.609375 -1.546875,-1.9375 0,-1.3125 0.828125,-1.84375 1.546875,-1.84375 0.765625,0 1.546875,0.5625 1.546875,1.84375 0,1.296875 -0.75,1.9375 -1.546875,1.9375 z m 0,0"
           id="path17408" />
      </g>
      <g
         id="use7368"
         transform="translate(260.67322,430.55301)">
        <path
           style="stroke:none"
           d="m 4.75,-3.25 c 0,-0.71875 -0.171875,-1.71875 -1.5,-1.71875 -0.984375,0 -1.515625,0.75 -1.578125,0.828125 V -4.90625 H 0.890625 V 0 h 0.84375 v -2.671875 c 0,-0.71875 0.265625,-1.625 1.09375,-1.625 1.046875,0 1.0625,0.78125 1.0625,1.125 V 0 H 4.75 Z m 0,0"
           id="path17272" />
      </g>
    </g>
    <g
       style="fill:#000000;fill-opacity:1"
       id="g7374"
       transform="matrix(0.35277777,0,0,0.35277777,-41.715961,-111.34272)">
      <g
         id="use7372"
         transform="translate(269.94269,430.55301)">
        <path
           style="stroke:none"
           d="m 1.890625,-2.046875 -1.34375,1.34375 V 0 h 4.34375 V -0.78125 H 2.90625 c -0.125,0 -0.25,0.015625 -0.390625,0.015625 h -1.1875 c 0.34375,-0.296875 1.1875,-1.125 1.515625,-1.4375 0.203125,-0.203125 0.765625,-0.65625 0.96875,-0.84375 0.5,-0.5 1.078125,-1.078125 1.078125,-2 0,-1.25 -0.875,-2.34375 -2.3125,-2.34375 -1.25,0 -1.859375,0.84375 -2.125,1.78125 0.140625,0.1875 0.1875,0.25 0.21875,0.28125 C 0.6875,-5.296875 0.796875,-5.15625 0.90625,-5 1.125,-5.84375 1.421875,-6.703125 2.421875,-6.703125 3.453125,-6.703125 4,-5.875 4,-5.03125 c 0,0.9375 -0.625,1.546875 -1.265625,2.203125 z m 0,0"
           id="path17260" />
      </g>
    </g>
    <path
       style="fill:none;stroke:#000000;stroke-width:0.140582;stroke-linecap:butt;stroke-linejoin:miter;stroke-miterlimit:10;stroke-opacity:1"
       d="m 43.397187,36.520771 v -7.91269"
       id="path7376" />
    <path
       style="fill:none;stroke:#000000;stroke-width:0.140582;stroke-linecap:round;stroke-linejoin:round;stroke-miterlimit:10;stroke-opacity:1"
       d="m 42.553829,29.269541 c 0.505739,-0.13367 0.744139,-0.43133 0.843358,-0.73174 0.09784,0.30041 0.337622,0.59807 0.843361,0.73174"
       id="path7378" />
    <path
       style="fill:none;stroke:#000000;stroke-width:0.140582;stroke-linecap:butt;stroke-linejoin:miter;stroke-miterlimit:10;stroke-opacity:1"
       d="m 60.071448,42.578631 h 26.65126 v -5.98758 h -26.65126 z m 0,0"
       id="path7380" />
    <g
       style="fill:#000000;fill-opacity:1"
       id="g7404"
       transform="matrix(0.35277777,0,0,0.35277777,-41.715961,-111.34272)">
      <g
         id="use7382"
         transform="translate(292.16599,430.55301)">
        <path
           style="stroke:none"
           d="M 6.34375,-1.25 C 5.703125,-0.8125 5.328125,-0.59375 4.25,-0.59375 c -1.5625,0 -2.546875,-1.625 -2.546875,-3.203125 0,-1.484375 0.90625,-3.1875 2.578125,-3.1875 0.765625,0 1.265625,0.171875 1.859375,0.5625 L 6.296875,-7.3125 c -0.46875,-0.234375 -1.3125,-0.375 -2.015625,-0.375 -2.015625,0 -3.5625,1.703125 -3.5625,3.984375 0,1.734375 1.296875,3.828125 3.5625,3.828125 1.015625,0 1.421875,-0.171875 2.125,-0.609375 z m 0,0"
           id="path17436" />
      </g>
      <g
         id="use7384"
         transform="translate(299.13583,430.55301)">
        <path
           style="stroke:none"
           d="m 5.109375,-2.40625 c 0,-1.453125 -1.078125,-2.625 -2.390625,-2.625 -1.328125,0 -2.390625,1.203125 -2.390625,2.625 0,1.453125 1.109375,2.53125 2.390625,2.53125 1.3125,0 2.390625,-1.109375 2.390625,-2.53125 z M 2.71875,-0.578125 c -0.75,0 -1.546875,-0.609375 -1.546875,-1.9375 0,-1.3125 0.828125,-1.84375 1.546875,-1.84375 0.765625,0 1.546875,0.5625 1.546875,1.84375 0,1.296875 -0.75,1.9375 -1.546875,1.9375 z m 0,0"
           id="path17412" />
      </g>
      <g
         id="use7386"
         transform="translate(304.59036,430.55301)">
        <path
           style="stroke:none"
           d="m 7.78125,-3.25 c 0,-0.734375 -0.171875,-1.71875 -1.5,-1.71875 -0.65625,0 -1.21875,0.3125 -1.625,0.90625 C 4.375,-4.890625 3.609375,-4.96875 3.265625,-4.96875 c -0.796875,0 -1.296875,0.453125 -1.59375,0.84375 V -4.90625 H 0.890625 V 0 h 0.84375 v -2.671875 c 0,-0.734375 0.296875,-1.625 1.09375,-1.625 1.015625,0 1.078125,0.703125 1.078125,1.125 V 0 H 4.75 v -2.671875 c 0,-0.734375 0.296875,-1.625 1.109375,-1.625 1.015625,0 1.0625,0.703125 1.0625,1.125 V 0 H 7.78125 Z m 0,0"
           id="path17388" />
      </g>
      <g
         id="use7388"
         transform="translate(313.25656,430.55301)">
        <path
           style="stroke:none"
           d="m 1.75,-0.5 c 0.328125,0.3125 0.8125,0.625 1.46875,0.625 1.0625,0 2.015625,-1.078125 2.015625,-2.5625 0,-1.296875 -0.6875,-2.53125 -1.734375,-2.53125 -0.65625,0 -1.28125,0.234375 -1.78125,0.65625 V -4.84375 H 0.890625 V 2.109375 H 1.75 Z m 0,-3.125 C 2,-4.015625 2.4375,-4.265625 2.90625,-4.265625 c 0.828125,0 1.484375,0.828125 1.484375,1.828125 0,1.125 -0.78125,1.890625 -1.59375,1.890625 -0.4375,0 -0.71875,-0.21875 -0.9375,-0.515625 C 1.75,-1.21875 1.75,-1.25 1.75,-1.4375 Z m 0,0"
           id="path17372" />
      </g>
      <g
         id="use7390"
         transform="translate(318.89328,430.55301)">
        <path
           style="stroke:none"
           d="M 4.75,-4.84375 H 3.890625 v 3.171875 c 0,0.8125 -0.609375,1.1875 -1.3125,1.1875 -0.765625,0 -0.84375,-0.28125 -0.84375,-0.75 V -4.84375 h -0.84375 v 3.65625 c 0,0.78125 0.25,1.3125 1.15625,1.3125 0.578125,0 1.34375,-0.171875 1.875,-0.65625 V 0 H 4.75 Z m 0,0"
           id="path17356" />
      </g>
      <g
         id="use7392"
         transform="translate(324.53003,430.55301)">
        <path
           style="stroke:none"
           d="M 1.90625,-4.203125 H 3.453125 V -4.84375 H 1.90625 v -1.390625 h -0.75 V -4.84375 H 0.203125 v 0.640625 H 1.125 v 2.90625 c 0,0.65625 0.15625,1.421875 0.90625,1.421875 0.765625,0 1.3125,-0.28125 1.59375,-0.421875 L 3.453125,-0.9375 C 3.15625,-0.703125 2.8125,-0.578125 2.46875,-0.578125 c -0.40625,0 -0.5625,-0.328125 -0.5625,-0.90625 z m 0,0"
           id="path17332" />
      </g>
      <g
         id="use7394"
         transform="translate(328.4693,430.55301)">
        <path
           style="stroke:none"
           d="m 4.359375,-3.15625 c 0,-1.109375 -0.796875,-1.875 -1.8125,-1.875 -0.703125,0 -1.1875,0.171875 -1.703125,0.46875 l 0.0625,0.71875 c 0.5625,-0.40625 1.109375,-0.546875 1.640625,-0.546875 0.515625,0 0.953125,0.4375 0.953125,1.25 v 0.46875 c -1.640625,0.015625 -3.015625,0.484375 -3.015625,1.4375 0,0.46875 0.296875,1.359375 1.234375,1.359375 0.15625,0 1.1875,-0.03125 1.8125,-0.515625 V 0 H 4.359375 Z M 3.5,-1.4375 c 0,0.203125 0,0.484375 -0.375,0.6875 -0.3125,0.1875 -0.71875,0.203125 -0.84375,0.203125 -0.53125,0 -1.015625,-0.25 -1.015625,-0.703125 0,-0.765625 1.765625,-0.84375 2.234375,-0.859375 z m 0,0"
           id="path17308" />
      </g>
      <g
         id="use7396"
         transform="translate(333.71222,430.55301)">
        <path
           style="stroke:none"
           d="M 1.90625,-4.203125 H 3.453125 V -4.84375 H 1.90625 v -1.390625 h -0.75 V -4.84375 H 0.203125 v 0.640625 H 1.125 v 2.90625 c 0,0.65625 0.15625,1.421875 0.90625,1.421875 0.765625,0 1.3125,-0.28125 1.59375,-0.421875 L 3.453125,-0.9375 C 3.15625,-0.703125 2.8125,-0.578125 2.46875,-0.578125 c -0.40625,0 -0.5625,-0.328125 -0.5625,-0.90625 z m 0,0"
           id="path17336" />
      </g>
      <g
         id="use7398"
         transform="translate(337.65149,430.55301)">
        <path
           style="stroke:none"
           d="M 1.78125,-7.421875 H 0.8125 v 0.96875 H 1.78125 Z M 1.703125,-4.84375 h -0.8125 V 0 h 0.8125 z m 0,0"
           id="path17292" />
      </g>
      <g
         id="use7400"
         transform="translate(340.25769,430.55301)">
        <path
           style="stroke:none"
           d="m 5.109375,-2.40625 c 0,-1.453125 -1.078125,-2.625 -2.390625,-2.625 -1.328125,0 -2.390625,1.203125 -2.390625,2.625 0,1.453125 1.109375,2.53125 2.390625,2.53125 1.3125,0 2.390625,-1.109375 2.390625,-2.53125 z M 2.71875,-0.578125 c -0.75,0 -1.546875,-0.609375 -1.546875,-1.9375 0,-1.3125 0.828125,-1.84375 1.546875,-1.84375 0.765625,0 1.546875,0.5625 1.546875,1.84375 0,1.296875 -0.75,1.9375 -1.546875,1.9375 z m 0,0"
           id="path17416" />
      </g>
      <g
         id="use7402"
         transform="translate(345.71222,430.55301)">
        <path
           style="stroke:none"
           d="m 4.75,-3.25 c 0,-0.71875 -0.171875,-1.71875 -1.5,-1.71875 -0.984375,0 -1.515625,0.75 -1.578125,0.828125 V -4.90625 H 0.890625 V 0 h 0.84375 v -2.671875 c 0,-0.71875 0.265625,-1.625 1.09375,-1.625 1.046875,0 1.0625,0.78125 1.0625,1.125 V 0 H 4.75 Z m 0,0"
           id="path17276" />
      </g>
    </g>
    <g
       style="fill:#000000;fill-opacity:1"
       id="g7408"
       transform="matrix(0.35277777,0,0,0.35277777,-41.715961,-111.34272)">
      <g
         id="use7406"
         transform="translate(354.98169,430.55301)">
        <path
           style="stroke:none"
           d="m 1,-5.609375 c 0.3125,-0.765625 1.03125,-1.15625 1.6875,-1.15625 0.578125,0 1.109375,0.328125 1.109375,1.03125 0,0.65625 -0.453125,1.3125 -1.109375,1.453125 -0.0625,0.015625 -0.09375,0.015625 -0.859375,0.078125 V -3.53125 H 2.59375 c 1.1875,0 1.421875,1.015625 1.421875,1.5625 0,0.84375 -0.5,1.546875 -1.34375,1.546875 -0.75,0 -1.609375,-0.390625 -2.09375,-1.125 l -0.125,0.65625 C 1.25,0.125 2.25,0.234375 2.6875,0.234375 c 1.34375,0 2.296875,-1.046875 2.296875,-2.203125 0,-0.984375 -0.765625,-1.65625 -1.5,-1.890625 0.828125,-0.453125 1.203125,-1.1875 1.203125,-1.875 0,-0.9375 -0.90625,-1.65625 -1.984375,-1.65625 -0.84375,0 -1.640625,0.4375 -2.09375,1.203125 z m 0,0"
           id="path17256" />
      </g>
    </g>
    <path
       style="fill:none;stroke:#000000;stroke-width:0.140582;stroke-linecap:butt;stroke-linejoin:miter;stroke-miterlimit:10;stroke-opacity:1"
       d="m 73.397078,36.520771 v -7.91269"
       id="path7410" />
    <path
       style="fill:none;stroke:#000000;stroke-width:0.140582;stroke-linecap:round;stroke-linejoin:round;stroke-miterlimit:10;stroke-opacity:1"
       d="m 72.553718,29.269541 c 0.50574,-0.13367 0.74552,-0.43133 0.84336,-0.73174 0.0978,0.30041 0.33762,0.59807 0.84336,0.73174"
       id="path7412" />
    <path
       style="fill:none;stroke:#000000;stroke-width:0.140582;stroke-linecap:butt;stroke-linejoin:miter;stroke-miterlimit:10;stroke-opacity:1"
       d="M 90.072718,42.578631 H 116.7226 v -5.98758 H 90.072718 Z m 0,0"
       id="path7414" />
    <g
       style="fill:#000000;fill-opacity:1"
       id="g7438"
       transform="matrix(0.35277777,0,0,0.35277777,-41.715961,-111.34272)">
      <g
         id="use7416"
         transform="translate(377.20499,430.55301)">
        <path
           style="stroke:none"
           d="M 6.34375,-1.25 C 5.703125,-0.8125 5.328125,-0.59375 4.25,-0.59375 c -1.5625,0 -2.546875,-1.625 -2.546875,-3.203125 0,-1.484375 0.90625,-3.1875 2.578125,-3.1875 0.765625,0 1.265625,0.171875 1.859375,0.5625 L 6.296875,-7.3125 c -0.46875,-0.234375 -1.3125,-0.375 -2.015625,-0.375 -2.015625,0 -3.5625,1.703125 -3.5625,3.984375 0,1.734375 1.296875,3.828125 3.5625,3.828125 1.015625,0 1.421875,-0.171875 2.125,-0.609375 z m 0,0"
           id="path17440" />
      </g>
      <g
         id="use7418"
         transform="translate(384.17484,430.55301)">
        <path
           style="stroke:none"
           d="m 5.109375,-2.40625 c 0,-1.453125 -1.078125,-2.625 -2.390625,-2.625 -1.328125,0 -2.390625,1.203125 -2.390625,2.625 0,1.453125 1.109375,2.53125 2.390625,2.53125 1.3125,0 2.390625,-1.109375 2.390625,-2.53125 z M 2.71875,-0.578125 c -0.75,0 -1.546875,-0.609375 -1.546875,-1.9375 0,-1.3125 0.828125,-1.84375 1.546875,-1.84375 0.765625,0 1.546875,0.5625 1.546875,1.84375 0,1.296875 -0.75,1.9375 -1.546875,1.9375 z m 0,0"
           id="path17420" />
      </g>
      <g
         id="use7420"
         transform="translate(389.62936,430.55301)">
        <path
           style="stroke:none"
           d="m 7.78125,-3.25 c 0,-0.734375 -0.171875,-1.71875 -1.5,-1.71875 -0.65625,0 -1.21875,0.3125 -1.625,0.90625 C 4.375,-4.890625 3.609375,-4.96875 3.265625,-4.96875 c -0.796875,0 -1.296875,0.453125 -1.59375,0.84375 V -4.90625 H 0.890625 V 0 h 0.84375 v -2.671875 c 0,-0.734375 0.296875,-1.625 1.09375,-1.625 1.015625,0 1.078125,0.703125 1.078125,1.125 V 0 H 4.75 v -2.671875 c 0,-0.734375 0.296875,-1.625 1.109375,-1.625 1.015625,0 1.0625,0.703125 1.0625,1.125 V 0 H 7.78125 Z m 0,0"
           id="path17392" />
      </g>
      <g
         id="use7422"
         transform="translate(398.29556,430.55301)">
        <path
           style="stroke:none"
           d="m 1.75,-0.5 c 0.328125,0.3125 0.8125,0.625 1.46875,0.625 1.0625,0 2.015625,-1.078125 2.015625,-2.5625 0,-1.296875 -0.6875,-2.53125 -1.734375,-2.53125 -0.65625,0 -1.28125,0.234375 -1.78125,0.65625 V -4.84375 H 0.890625 V 2.109375 H 1.75 Z m 0,-3.125 C 2,-4.015625 2.4375,-4.265625 2.90625,-4.265625 c 0.828125,0 1.484375,0.828125 1.484375,1.828125 0,1.125 -0.78125,1.890625 -1.59375,1.890625 -0.4375,0 -0.71875,-0.21875 -0.9375,-0.515625 C 1.75,-1.21875 1.75,-1.25 1.75,-1.4375 Z m 0,0"
           id="path17376" />
      </g>
      <g
         id="use7424"
         transform="translate(403.93228,430.55301)">
        <path
           style="stroke:none"
           d="M 4.75,-4.84375 H 3.890625 v 3.171875 c 0,0.8125 -0.609375,1.1875 -1.3125,1.1875 -0.765625,0 -0.84375,-0.28125 -0.84375,-0.75 V -4.84375 h -0.84375 v 3.65625 c 0,0.78125 0.25,1.3125 1.15625,1.3125 0.578125,0 1.34375,-0.171875 1.875,-0.65625 V 0 H 4.75 Z m 0,0"
           id="path17360" />
      </g>
      <g
         id="use7426"
         transform="translate(409.56903,430.55301)">
        <path
           style="stroke:none"
           d="M 1.90625,-4.203125 H 3.453125 V -4.84375 H 1.90625 v -1.390625 h -0.75 V -4.84375 H 0.203125 v 0.640625 H 1.125 v 2.90625 c 0,0.65625 0.15625,1.421875 0.90625,1.421875 0.765625,0 1.3125,-0.28125 1.59375,-0.421875 L 3.453125,-0.9375 C 3.15625,-0.703125 2.8125,-0.578125 2.46875,-0.578125 c -0.40625,0 -0.5625,-0.328125 -0.5625,-0.90625 z m 0,0"
           id="path17340" />
      </g>
      <g
         id="use7428"
         transform="translate(413.5083,430.55301)">
        <path
           style="stroke:none"
           d="m 4.359375,-3.15625 c 0,-1.109375 -0.796875,-1.875 -1.8125,-1.875 -0.703125,0 -1.1875,0.171875 -1.703125,0.46875 l 0.0625,0.71875 c 0.5625,-0.40625 1.109375,-0.546875 1.640625,-0.546875 0.515625,0 0.953125,0.4375 0.953125,1.25 v 0.46875 c -1.640625,0.015625 -3.015625,0.484375 -3.015625,1.4375 0,0.46875 0.296875,1.359375 1.234375,1.359375 0.15625,0 1.1875,-0.03125 1.8125,-0.515625 V 0 H 4.359375 Z M 3.5,-1.4375 c 0,0.203125 0,0.484375 -0.375,0.6875 -0.3125,0.1875 -0.71875,0.203125 -0.84375,0.203125 -0.53125,0 -1.015625,-0.25 -1.015625,-0.703125 0,-0.765625 1.765625,-0.84375 2.234375,-0.859375 z m 0,0"
           id="path17312" />
      </g>
      <g
         id="use7430"
         transform="translate(418.75122,430.55301)">
        <path
           style="stroke:none"
           d="M 1.90625,-4.203125 H 3.453125 V -4.84375 H 1.90625 v -1.390625 h -0.75 V -4.84375 H 0.203125 v 0.640625 H 1.125 v 2.90625 c 0,0.65625 0.15625,1.421875 0.90625,1.421875 0.765625,0 1.3125,-0.28125 1.59375,-0.421875 L 3.453125,-0.9375 C 3.15625,-0.703125 2.8125,-0.578125 2.46875,-0.578125 c -0.40625,0 -0.5625,-0.328125 -0.5625,-0.90625 z m 0,0"
           id="path17344" />
      </g>
      <g
         id="use7432"
         transform="translate(422.69049,430.55301)">
        <path
           style="stroke:none"
           d="M 1.78125,-7.421875 H 0.8125 v 0.96875 H 1.78125 Z M 1.703125,-4.84375 h -0.8125 V 0 h 0.8125 z m 0,0"
           id="path17296" />
      </g>
      <g
         id="use7434"
         transform="translate(425.29666,430.55301)">
        <path
           style="stroke:none"
           d="m 5.109375,-2.40625 c 0,-1.453125 -1.078125,-2.625 -2.390625,-2.625 -1.328125,0 -2.390625,1.203125 -2.390625,2.625 0,1.453125 1.109375,2.53125 2.390625,2.53125 1.3125,0 2.390625,-1.109375 2.390625,-2.53125 z M 2.71875,-0.578125 c -0.75,0 -1.546875,-0.609375 -1.546875,-1.9375 0,-1.3125 0.828125,-1.84375 1.546875,-1.84375 0.765625,0 1.546875,0.5625 1.546875,1.84375 0,1.296875 -0.75,1.9375 -1.546875,1.9375 z m 0,0"
           id="path17424" />
      </g>
      <g
         id="use7436"
         transform="translate(430.75122,430.55301)">
        <path
           style="stroke:none"
           d="m 4.75,-3.25 c 0,-0.71875 -0.171875,-1.71875 -1.5,-1.71875 -0.984375,0 -1.515625,0.75 -1.578125,0.828125 V -4.90625 H 0.890625 V 0 h 0.84375 v -2.671875 c 0,-0.71875 0.265625,-1.625 1.09375,-1.625 1.046875,0 1.0625,0.78125 1.0625,1.125 V 0 H 4.75 Z m 0,0"
           id="path17280" />
      </g>
    </g>
    <g
       style="fill:#000000;fill-opacity:1"
       id="g7442"
       transform="matrix(0.35277777,0,0,0.35277777,-41.715961,-111.34272)">
      <g
         id="use7440"
         transform="translate(440.02069,430.55301)">
        <path
           style="stroke:none"
           d="M 4.0625,-1.859375 H 5.140625 V -2.53125 H 4.0625 v -4.625 h -1 l -2.75,4.625 v 0.671875 H 3.203125 V 0 H 4.0625 Z M 1.15625,-2.53125 c 0.5625,-0.9375 2.109375,-3.515625 2.109375,-4.140625 v 4.140625 z m 0,0"
           id="path17252" />
      </g>
    </g>
    <path
       style="fill:none;stroke:#000000;stroke-width:0.140582;stroke-linecap:butt;stroke-linejoin:miter;stroke-miterlimit:10;stroke-opacity:1"
       d="m 103.39697,36.520771 v -7.91269"
       id="path7444" />
    <path
       style="fill:none;stroke:#000000;stroke-width:0.140582;stroke-linecap:round;stroke-linejoin:round;stroke-miterlimit:10;stroke-opacity:1"
       d="m 102.55361,29.269541 c 0.50712,-0.13367 0.74552,-0.43133 0.84336,-0.73174 0.0992,0.30041 0.33762,0.59807 0.84336,0.73174"
       id="path7446" />
  </g>
</svg>
